g BarrelA
v -0.017583 -2.914865 -0.284482
v 0.322051 1.980074 -0.176569
v -0.017583 1.980074 -0.284482
v 0.322051 -2.914865 -0.176569
v -0.325427 -2.914865 -0.176569
v -0.017583 1.980074 -0.284482
v -0.325427 1.980074 -0.176569
v -0.017583 -2.914865 -0.284482
v -0.017583 -2.914865 0.291054
v -0.325427 1.980074 0.183143
v -0.017583 1.980074 0.291056
v -0.325427 -2.914865 0.183141
v 0.322051 -2.914865 0.183142
v -0.017583 1.980074 0.291056
v 0.322051 1.980074 0.183143
v -0.017583 -2.914865 0.291054
v -0.433341 1.980074 0.003287
v -0.325427 -2.914865 -0.176569
v -0.325427 1.980074 -0.176569
v -0.433341 -2.914865 0.003286
v 0.429964 -2.914865 0.003287
v 0.322051 1.980074 -0.176569
v 0.322051 -2.914865 -0.176569
v 0.429964 1.980074 0.003287
v 0.322051 -2.914865 0.183142
v 0.429964 1.980074 0.003287
v 0.429964 -2.914865 0.003287
v 0.322051 1.980074 0.183143
v -0.325427 1.980074 0.183143
v -0.433341 -2.914865 0.003286
v -0.433341 1.980074 0.003287
v -0.325427 -2.914865 0.183141
v 0.322051 -2.914865 0.183142
v -0.001688 -2.147039 0.003286
v -0.017583 -2.914865 0.291054
v -0.325427 -2.914865 -0.176569
v -0.001688 -2.147039 0.003286
v -0.017583 -2.914865 -0.284482
v -0.017583 -2.914865 0.291054
v -0.001688 -2.147039 0.003286
v -0.325427 -2.914865 0.183141
v 0.429964 -2.914865 0.003287
v -0.001688 -2.147039 0.003286
v 0.322051 -2.914865 0.183142
v 0.322051 -2.914865 -0.176569
v -0.001688 -2.147039 0.003286
v 0.429964 -2.914865 0.003287
v -0.017583 -2.914865 -0.284482
v -0.001688 -2.147039 0.003286
v 0.322051 -2.914865 -0.176569
v -0.325427 -2.914865 0.183141
v -0.001688 -2.147039 0.003286
v -0.433341 -2.914865 0.003286
v -0.433341 -2.914865 0.003286
v -0.001688 -2.147039 0.003286
v -0.325427 -2.914865 -0.176569
v 0.322051 1.980074 -0.176569
v -0.001391 1.980074 0.003452
v -0.017583 1.980074 -0.284482
v -0.325427 1.980074 -0.176569
v -0.433341 1.980074 0.003287
v -0.325427 1.980074 0.183143
v -0.017583 1.980074 0.291056
v 0.322051 1.980074 0.183143
v 0.429964 1.980074 0.003287
vt 0.463552 0.351519
vt 0.440357 0.017192
vt 0.463552 0.017083
vt 0.440357 0.351628
vt 0.483971 0.351661
vt 0.463552 0.017083
vt 0.483971 0.017226
vt 0.463552 0.351519
vt 0.383739 0.351514
vt 0.362988 0.017083
vt 0.383739 0.017457
vt 0.362988 0.35114
vt 0.406644 0.351142
vt 0.383739 0.017457
vt 0.406644 0.017085
vt 0.383739 0.351514
vt 0.529846 0.017083
vt 0.517684 0.351433
vt 0.517684 0.017505
vt 0.529846 0.351011
vt 0.58785 0.017083
vt 0.575649 0.351102
vt 0.575649 0.017653
vt 0.58785 0.350532
vt 0.599901 0.017673
vt 0.58785 0.350532
vt 0.58785 0.017083
vt 0.599901 0.351122
vt 0.541937 0.017512
vt 0.529846 0.351011
vt 0.529846 0.017083
vt 0.541937 0.35144
vt 0.406644 0.351142
vt 0.384826 0.298118
vt 0.383739 0.351514
vt 0.483971 0.351661
vt 0.461634 0.299396
vt 0.463552 0.351519
vt 0.383739 0.351514
vt 0.384826 0.298118
vt 0.362988 0.35114
vt 0.58785 0.017083
vt 0.58755 0.071708
vt 0.599901 0.017673
vt 0.575649 0.017653
vt 0.58755 0.071708
vt 0.58785 0.017083
vt 0.463552 0.351519
vt 0.461634 0.299396
vt 0.440357 0.351628
vt 0.541937 0.35144
vt 0.529701 0.300332
vt 0.529846 0.351011
vt 0.529846 0.351011
vt 0.529701 0.300332
vt 0.517684 0.351433
vt 0.656493 0.279347
vt 0.652255 0.304274
vt 0.67093 0.298807
vt 0.67093 0.321098
vt 0.661896 0.332123
vt 0.64805 0.329232
vt 0.634322 0.311821
vt 0.633614 0.287481
vt 0.642647 0.276455
vn 0.3028151 0 -0.9530494
vn 0.3028151 0 -0.9530494
vn 0.3028151 0 -0.9530494
vn 0.3028151 0 -0.9530494
vn -0.330808 0 -0.9436981
vn -0.330808 0 -0.9436981
vn -0.330808 0 -0.9436981
vn -0.330808 0 -0.9436981
vn -0.330808 0 0.9436981
vn -0.330808 0 0.9436981
vn -0.330808 0 0.9436981
vn -0.330808 0 0.9436981
vn 0.3028151 0 0.9530494
vn 0.3028151 0 0.9530494
vn 0.3028151 0 0.9530494
vn 0.3028151 0 0.9530494
vn -0.8574928 0 -0.5144959
vn -0.8574928 0 -0.5144959
vn -0.8574928 0 -0.5144959
vn -0.8574928 0 -0.5144959
vn 0.8574933 0 -0.5144952
vn 0.8574933 0 -0.5144952
vn 0.8574933 0 -0.5144952
vn 0.8574933 0 -0.5144952
vn 0.8574933 0 0.5144952
vn 0.8574933 0 0.5144952
vn 0.8574933 0 0.5144952
vn 0.8574933 0 0.5144952
vn -0.8574933 0 0.5144952
vn -0.8574933 0 0.5144952
vn -0.8574933 0 0.5144952
vn -0.8574933 0 0.5144952
vn -0.285732 -0.331122 -0.8992861
vn -0.285732 -0.331122 -0.8992861
vn -0.285732 -0.331122 -0.8992861
vn 0.3111999 -0.3391609 0.8877638
vn 0.3111999 -0.3391609 0.8877638
vn 0.3111999 -0.3391609 0.8877638
vn 0.3111999 -0.3391609 -0.8877638
vn 0.3111999 -0.3391609 -0.8877638
vn 0.3111999 -0.3391609 -0.8877638
vn -0.7724273 -0.4342391 -0.4634571
vn -0.7724273 -0.4342391 -0.4634571
vn -0.7724273 -0.4342391 -0.4634571
vn -0.7724273 -0.4342391 0.4634571
vn -0.7724273 -0.4342391 0.4634571
vn -0.7724273 -0.4342391 0.4634571
vn -0.285733 -0.331122 0.8992858
vn -0.285733 -0.331122 0.8992858
vn -0.285733 -0.331122 0.8992858
vn 0.772428 -0.434239 -0.463456
vn 0.772428 -0.434239 -0.463456
vn 0.772428 -0.434239 -0.463456
vn 0.7724273 -0.4342391 0.4634571
vn 0.7724273 -0.4342391 0.4634571
vn 0.7724273 -0.4342391 0.4634571
vn 0 1 0
vn 0 1 0
vn 0 1 0
vn 0 1 0
vn 0 1 0
vn 0 1 0
vn 0 1 0
vn 0 1 0
vn 0 1 0
g BarrelA_0
f 3/3/3 2/2/2 1/1/1
f 2/2/2 4/4/4 1/1/1
f 7/7/7 6/6/6 5/5/5
f 6/6/6 8/8/8 5/5/5
f 11/11/11 10/10/10 9/9/9
f 10/10/10 12/12/12 9/9/9
f 15/15/15 14/14/14 13/13/13
f 14/14/14 16/16/16 13/13/13
f 19/19/19 18/18/18 17/17/17
f 18/18/18 20/20/20 17/17/17
f 23/23/23 22/22/22 21/21/21
f 22/22/22 24/24/24 21/21/21
f 27/27/27 26/26/26 25/25/25
f 26/26/26 28/28/28 25/25/25
f 31/31/31 30/30/30 29/29/29
f 30/30/30 32/32/32 29/29/29
f 35/35/35 34/34/34 33/33/33
f 38/38/38 37/37/37 36/36/36
f 41/41/41 40/40/40 39/39/39
f 44/44/44 43/43/43 42/42/42
f 47/47/47 46/46/46 45/45/45
f 50/50/50 49/49/49 48/48/48
f 53/53/53 52/52/52 51/51/51
f 56/56/56 55/55/55 54/54/54
f 59/59/59 58/58/58 57/57/57
f 60/60/60 58/58/58 59/59/59
f 61/61/61 58/58/58 60/60/60
f 62/62/62 58/58/58 61/61/61
f 63/63/63 58/58/58 62/62/62
f 64/64/64 58/58/58 63/63/63
f 57/57/57 58/58/58 65/65/65
f 65/65/65 58/58/58 64/64/64
