g character_hand_l_ts
v 0.6691124 0.05411112 0.8107996
v 0.5429918 -0.04765509 0.8748733
v 0.5409272 0.06149231 0.8773261
v 0.5962281 -0.07648915 0.8466089
v 0.6778498 -0.07333802 0.8053872
v 0.6745248 -0.07802942 0.7885754
v 0.6708064 -0.01533211 0.7910886
v 0.5640463 -0.08136962 0.825983
v 0.5214003 -0.04350569 0.8134264
v 0.5496318 -0.07921172 0.7722071
v 0.5614876 -0.07832184 0.746436
v 0.6356575 0.05837144 0.7901005
v 0.6577634 0.05602448 0.7473788
v 0.6278679 0.05946551 0.7633916
v 0.5705956 0.06130072 0.8142608
v 0.5223835 0.06528375 0.8150725
v 0.5609834 0.06393002 0.7848923
v 0.5584852 0.05997221 0.756149
v 0.6745248 -0.07802942 0.7885754
v 0.6778498 -0.07333802 0.8053872
v 0.6577634 0.05602448 0.7473788
v 0.664784 -0.01263475 0.7505929
v 0.6688049 -0.07657486 0.7459923
v 0.6672747 -0.07518332 0.737459
v 0.7333677 0.01942606 0.7575733
v 0.7373053 -0.06181247 0.7249832
v 0.7248268 0.02132934 0.7364708
v 0.7451075 -0.06284603 0.7502879
v 0.7541021 0.0602369 0.749335
v 0.7448503 0.06073857 0.7300552
v 0.7091241 -0.07977892 0.7342802
v 0.7185296 -0.08155867 0.7612463
v 0.6822312 -0.07424302 0.7429697
v 0.69084 -0.07564969 0.7743776
v 0.6850092 -0.02103943 0.7794169
v 0.675755 -0.01843282 0.7451226
v 0.6708064 -0.01533211 0.7910886
v 0.664784 -0.01263475 0.7505929
v 0.7576994 -0.08874072 0.7165003
v 0.7393623 -0.1372454 0.7485586
v 0.7686854 -0.09535808 0.7383111
v 0.7313585 -0.136 0.7266242
v 0.738364 0.01590184 0.7287695
v 0.7494888 0.01447501 0.7495896
v 0.6978078 -0.1545816 0.7651007
v 0.6892292 -0.1521338 0.740895
v 0.5709889 -0.1522472 0.7697064
v 0.5826279 -0.1553429 0.8125466
v 0.7580699 0.05395987 0.7239571
v 0.7668175 0.05356156 0.7427126
v 0.7091241 -0.07977892 0.7342802
v 0.6892292 -0.1521338 0.740895
v 0.7313585 -0.136 0.7266242
v 0.6822312 -0.07424302 0.7429697
v 0.7373053 -0.06181247 0.7249832
v 0.7576994 -0.08874072 0.7165003
v 0.6688049 -0.07657486 0.7459923
v 0.5709889 -0.1522472 0.7697064
v 0.5496318 -0.07921172 0.7722071
v 0.664784 -0.01263475 0.7505929
v 0.675755 -0.01843282 0.7451226
v 0.738364 0.01590184 0.7287695
v 0.7248268 0.02132934 0.7364708
v 0.7448503 0.06073857 0.7300552
v 0.7580699 0.05395987 0.7239571
v 0.5614876 -0.07832184 0.746436
v 0.6672747 -0.07518332 0.737459
v 0.7668175 0.05356156 0.7427126
v 0.7333677 0.01942606 0.7575733
v 0.7541021 0.0602369 0.749335
v 0.7494888 0.01447501 0.7495896
v 0.7451075 -0.06284603 0.7502879
v 0.7686854 -0.09535808 0.7383111
v 0.7185296 -0.08155867 0.7612463
v 0.7393623 -0.1372454 0.7485586
v 0.69084 -0.07564969 0.7743776
v 0.6978078 -0.1545816 0.7651007
v 0.6745248 -0.07802942 0.7885754
v 0.6708064 -0.01533211 0.7910886
v 0.6850092 -0.02103943 0.7794169
v 0.5640463 -0.08136962 0.825983
v 0.5826279 -0.1553429 0.8125466
v 0.5496318 -0.07921172 0.7722071
v 0.5709889 -0.1522472 0.7697064
v 0.5584852 0.05997221 0.756149
v 0.5214003 -0.04350569 0.8134264
v 0.5614876 -0.07832184 0.746436
v 0.5223835 0.06528375 0.8150725
v 0.6577634 0.05602448 0.7473788
v 0.6672747 -0.07518332 0.737459
v 0.7580699 0.05395987 0.7239571
v 0.7541021 0.0602369 0.749335
v 0.7448503 0.06073857 0.7300552
v 0.7668175 0.05356156 0.7427126
v 0.6234993 0.0919574 0.8114349
v 0.6118729 0.1248173 0.8356733
v 0.630525 0.1243283 0.829182
v 0.6048471 0.09244645 0.8179262
v 0.6111569 0.09228006 0.7759406
v 0.5925048 0.09277164 0.7824318
v 0.6065563 0.1575134 0.8179262
v 0.6252084 0.1570243 0.8114349
v 0.594214 0.1578386 0.7824318
v 0.612866 0.157347 0.7759406
v 0.5871882 0.1254677 0.7646847
v 0.6058403 0.1249761 0.7581959
v 0.6058403 0.1249761 0.7581959
v 0.5871882 0.1254677 0.7646847
v 0.5609834 0.06393002 0.7848923
v 0.552478 0.09295063 0.8310399
v 0.5705956 0.06130072 0.8142608
v 0.6593692 0.08813823 0.7913458
v 0.6356575 0.05837144 0.7901005
v 0.5412145 0.1008889 0.796123
v 0.552478 0.09295063 0.8310399
v 0.5412145 0.1008889 0.796123
v 0.552478 0.09295063 0.8310399
v 0.6510981 0.09355564 0.7608001
v 0.6356575 0.05837144 0.7901005
v 0.6278679 0.05946551 0.7633916
v 0.6356575 0.05837144 0.7901005
v 0.6593692 0.08813823 0.7913458
v 0.6278679 0.05946551 0.7633916
v 0.5412145 0.1008889 0.796123
v 0.5609834 0.06393002 0.7848923
v 0.6510981 0.09355564 0.7608001
vt 0.695416 0.502744
vt 0.868533 0.549837
vt 0.832006 0.443519
vt 0.817803 0.595195
vt 0.73539 0.631792
vt 0.719844 0.642319
vt 0.700162 0.578889
vt 0.851378 0.615324
vt 0.913083 0.60398
vt 0.886012 0.664146
vt 0.893496 0.693707
vt 0.700784 0.462352
vt 0.652241 0.452223
vt 0.684635 0.438727
vt 0.762372 0.4262
vt 0.794355 0.388004
vt 0.745226 0.399342
vt 0.723649 0.378534
vt 0.738618 0.650224
vt 0.73539 0.631792
vt 0.630362 0.522899
vt 0.658348 0.590323
vt 0.676436 0.655734
vt 0.667291 0.657308
vt 0.583153 0.948289
vt 0.497279 0.976203
vt 0.584615 0.971785
vt 0.497185 0.948895
vt 0.631083 0.948672
vt 0.630634 0.970713
vt 0.461551 0.975008
vt 0.461997 0.945524
vt 0.431881 0.975582
vt 0.430028 0.942044
vt 0.373237 0.944187
vt 0.374184 0.980877
vt 0.354644 0.937284
vt 0.360314 0.979181
vt 0.966433 0.719121
vt 0.940209 0.661782
vt 0.940608 0.715521
vt 0.964296 0.662441
vt 0.97738 0.828958
vt 0.95305 0.83033
vt 0.939255 0.612362
vt 0.965805 0.613705
vt 0.984751 0.48973
vt 0.939255 0.483986
vt 0.977063 0.873397
vt 0.955785 0.87487
vt 0.658802 0.778083
vt 0.597555 0.825781
vt 0.644428 0.839214
vt 0.638567 0.756376
vt 0.69443 0.78101
vt 0.696548 0.816836
vt 0.625673 0.750002
vt 0.495932 0.752293
vt 0.522277 0.678393
vt 0.659988 0.693403
vt 0.666641 0.705692
vt 0.74124 0.715899
vt 0.731638 0.701874
vt 0.772984 0.681635
vt 0.78103 0.696095
vt 0.550066 0.669274
vt 0.631147 0.742796
vt 0.591927 0.910062
vt 0.640406 0.892441
vt 0.592488 0.893773
vt 0.636541 0.911277
vt 0.709547 0.943543
vt 0.727041 0.983032
vt 0.740204 0.925942
vt 0.780065 0.974276
vt 0.749098 0.895036
vt 0.816983 0.94141
vt 0.761125 0.876113
vt 0.705161 0.843497
vt 0.702089 0.863092
vt 0.821466 0.772106
vt 0.877977 0.828458
vt 0.864691 0.734321
vt 0.911558 0.797236
vt 0.877611 0.031321
vt 0.799717 0.132548
vt 0.877325 0.174217
vt 0.806991 0.020663
vt 0.980149 0.038431
vt 0.986779 0.174217
vt 0.570595 0.909999
vt 0.592488 0.893773
vt 0.570444 0.893451
vt 0.591927 0.910062
vt 0.414726 0.906368
vt 0.385697 0.891108
vt 0.385697 0.906368
vt 0.414725 0.891108
vt 0.443754 0.906368
vt 0.443754 0.891108
vt 0.356669 0.891108
vt 0.356669 0.906368
vt 0.32764 0.891108
vt 0.32764 0.906368
vt 0.298611 0.891108
vt 0.298611 0.906368
vt 0.472783 0.906368
vt 0.472783 0.891108
vt 0.844921 0.922904
vt 0.85488 0.966086
vt 0.866139 0.935906
vt 0.913478 0.947773
vt 0.909641 0.931439
vt 0.827678 0.953152
vt 0.85488 0.966086
vt 0.869584 0.994455
vt 0.85488 0.966086
vt 0.931592 0.953377
vt 0.909641 0.931439
vt 0.92702 0.927228
vt 0.909641 0.931439
vt 0.913478 0.947773
vt 0.92702 0.927228
vt 0.988514 0.905656
vt 0.961667 0.898181
vt 0.931592 0.953377
vn 0.7277078 0.5686704 0.3834781
vn 0.07080386 -0.4660236 0.8819346
vn 0.3792013 0.650884 0.6576902
vn 0.256483 -0.661929 0.7043198
vn 0.7904423 -0.4892812 0.3685172
vn 0.6807647 -0.2822427 0.6759425
vn 0.9746512 0.2212618 0.03314341
vn -0.4642288 -0.7395738 0.4873624
vn -0.8932471 -0.3967238 -0.2114704
vn -0.8182498 -0.4731693 -0.3264631
vn -0.4088384 -0.5882319 -0.6977352
vn 0.1021474 0.9943159 0.03003069
vn 0.4991723 0.5960705 -0.6289093
vn 0.05945072 0.9932669 -0.09943019
vn 0.06811853 0.9970315 0.03589081
vn -0.4219305 0.8640966 -0.2744301
vn -0.002808059 0.996542 -0.08304275
vn -0.4106673 0.5948509 -0.6910173
vn 0.6807647 -0.2822427 0.6759425
vn 0.7904423 -0.4892812 0.3685172
vn 0.4991723 0.5960705 -0.6289093
vn 0.8498675 0.3588139 -0.3859764
vn 0.04916567 -0.2834899 -0.9577141
vn 0.5462363 -0.5017091 -0.6707562
vn -0.4378867 0.09674548 0.8938096
vn -0.7221794 0.2335953 -0.6510685
vn -0.9486331 0.1652016 -0.2698214
vn -0.09640911 0.2075584 0.9734603
vn 0.02990875 0.7551388 0.6548824
vn -0.4720973 0.7954147 -0.3800521
vn -0.361625 0.6135937 -0.7019474
vn 0.2439092 0.5493447 0.7992051
vn 0.1205508 0.3635145 -0.9237557
vn 0.7862408 0.2610016 0.5600923
vn 0.8467355 0.4655153 0.257555
vn 0.4195126 0.4868075 -0.7661772
vn 0.9746512 0.2212618 0.03314341
vn 0.8498675 0.3588139 -0.3859764
vn 0.446832 -0.08865798 -0.890214
vn 0.6765615 -0.640854 0.3627267
vn 0.9471079 -0.2166261 0.2367697
vn 0.2083837 -0.5697913 -0.7949303
vn 0.1751206 -0.02139368 -0.9843146
vn 0.8987588 -0.09634902 0.427726
vn 0.3702049 -0.7789552 0.5061393
vn -0.0668388 -0.7120568 -0.6989332
vn -0.6210019 -0.626648 -0.4708173
vn -0.2878301 -0.6995086 0.654096
vn 0.4588264 0.3014385 -0.8358307
vn 0.9485783 0.2592328 0.1816522
vn -0.361625 0.6135937 -0.7019474
vn -0.0668388 -0.7120568 -0.6989332
vn 0.2083837 -0.5697913 -0.7949303
vn 0.1205508 0.3635145 -0.9237557
vn -0.7221794 0.2335953 -0.6510685
vn 0.446832 -0.08865798 -0.890214
vn 0.04916567 -0.2834899 -0.9577141
vn -0.6210019 -0.626648 -0.4708173
vn -0.8182498 -0.4731693 -0.3264631
vn 0.8498675 0.3588139 -0.3859764
vn 0.4195126 0.4868075 -0.7661772
vn 0.1751206 -0.02139368 -0.9843146
vn -0.9486331 0.1652016 -0.2698214
vn -0.4720973 0.7954147 -0.3800521
vn 0.4588264 0.3014385 -0.8358307
vn -0.4088384 -0.5882319 -0.6977352
vn 0.5462363 -0.5017091 -0.6707562
vn 0.9485783 0.2592328 0.1816522
vn -0.4378867 0.09674548 0.8938096
vn 0.02990875 0.7551388 0.6548824
vn 0.8987588 -0.09634902 0.427726
vn -0.09640911 0.2075584 0.9734603
vn 0.9471079 -0.2166261 0.2367697
vn 0.2439092 0.5493447 0.7992051
vn 0.6765615 -0.640854 0.3627267
vn 0.7862408 0.2610016 0.5600923
vn 0.3702049 -0.7789552 0.5061393
vn 0.6807647 -0.2822427 0.6759425
vn 0.9746512 0.2212618 0.03314341
vn 0.8467355 0.4655153 0.257555
vn -0.4642288 -0.7395738 0.4873624
vn -0.2878301 -0.6995086 0.654096
vn -0.8182498 -0.4731693 -0.3264631
vn -0.6210019 -0.626648 -0.4708173
vn -0.4106673 0.5948509 -0.6910173
vn -0.8932471 -0.3967238 -0.2114704
vn -0.4088384 -0.5882319 -0.6977352
vn -0.4219305 0.8640966 -0.2744301
vn 0.4991723 0.5960705 -0.6289093
vn 0.5462363 -0.5017091 -0.6707562
vn 0.4588264 0.3014385 -0.8358307
vn 0.02990875 0.7551388 0.6548824
vn -0.4720973 0.7954147 -0.3800521
vn 0.9485783 0.2592328 0.1816522
vn 0.1414264 -0.8700428 0.4722543
vn 0.3284129 -0.008606074 0.9444951
vn 0.3284129 -0.008606074 0.9444951
vn 0.1414264 -0.8700428 0.4722543
vn -0.1869317 -0.8614113 -0.4722574
vn -0.1869607 -0.8614065 -0.4722548
vn 0.1869607 0.8614065 0.4722548
vn 0.1869607 0.8614065 0.4722548
vn -0.1414558 0.8700391 -0.4722523
vn -0.1414264 0.8700428 -0.4722543
vn -0.3283852 0.008606161 -0.9445047
vn -0.3283852 0.008606161 -0.9445047
vn -0.3283852 0.008606161 -0.9445047
vn -0.3283852 0.008606161 -0.9445047
vn -0.7182781 -0.201002 -0.6660891
vn -0.4684644 0.2756162 0.8393907
vn -0.2568798 -0.5461714 0.797314
vn 0.8844546 0.2438809 0.3978218
vn 0.6835919 -0.5473554 0.4828086
vn -0.8204123 0.5209595 -0.2356368
vn -0.4684644 0.2756162 0.8393907
vn -0.8204123 0.5209595 -0.2356368
vn -0.4684644 0.2756162 0.8393907
vn 0.5948002 0.4449788 -0.6694823
vn 0.6835919 -0.5473554 0.4828086
vn 0.213204 -0.2328282 -0.9488599
vn 0.6835919 -0.5473554 0.4828086
vn 0.8844546 0.2438809 0.3978218
vn 0.213204 -0.2328282 -0.9488599
vn -0.8204123 0.5209595 -0.2356368
vn -0.7182781 -0.201002 -0.6660891
vn 0.5948002 0.4449788 -0.6694823
g character_hand_l_ts_0
f 3/3/3 2/2/2 1/1/1
f 2/2/2 4/4/4 1/1/1
f 1/1/1 4/4/4 5/5/5
f 6/6/6 1/1/1 5/5/5
f 7/7/7 1/1/1 6/6/6
f 8/8/8 4/4/4 2/2/2
f 8/8/8 2/2/2 9/9/9
f 10/10/10 8/8/8 9/9/9
f 10/10/10 9/9/9 11/11/11
f 12/12/12 3/3/3 1/1/1
f 1/1/1 13/13/13 12/12/12
f 12/12/12 13/13/13 14/14/14
f 15/15/15 3/3/3 12/12/12
f 15/15/15 16/16/16 3/3/3
f 17/17/17 16/16/16 15/15/15
f 17/17/17 18/18/18 16/16/16
f 14/14/14 18/18/18 17/17/17
f 13/13/13 18/18/18 14/14/14
f 4/4/4 8/8/8 19/19/19
f 20/20/20 4/4/4 19/19/19
f 22/22/22 21/21/21 7/7/7
f 23/23/23 21/21/21 22/22/22
f 24/24/24 21/21/21 23/23/23
f 21/21/21 1/1/1 7/7/7
f 27/27/27 26/26/26 25/25/25
f 26/26/26 28/28/28 25/25/25
f 27/27/27 25/25/25 29/29/29
f 30/30/30 27/27/27 29/29/29
f 26/26/26 31/31/31 28/28/28
f 31/31/31 32/32/32 28/28/28
f 31/31/31 33/33/33 32/32/32
f 33/33/33 34/34/34 32/32/32
f 34/34/34 33/33/33 35/35/35
f 33/33/33 36/36/36 35/35/35
f 35/35/35 36/36/36 37/37/37
f 36/36/36 38/38/38 37/37/37
f 41/41/41 40/40/40 39/39/39
f 40/40/40 42/42/42 39/39/39
f 41/41/41 39/39/39 43/43/43
f 44/44/44 41/41/41 43/43/43
f 40/40/40 45/45/45 42/42/42
f 45/45/45 46/46/46 42/42/42
f 47/47/47 46/46/46 45/45/45
f 48/48/48 47/47/47 45/45/45
f 44/44/44 43/43/43 49/49/49
f 50/50/50 44/44/44 49/49/49
f 53/53/53 52/52/52 51/51/51
f 52/52/52 54/54/54 51/51/51
f 53/53/53 51/51/51 55/55/55
f 56/56/56 53/53/53 55/55/55
f 54/54/54 52/52/52 57/57/57
f 52/52/52 58/58/58 57/57/57
f 58/58/58 59/59/59 57/57/57
f 54/54/54 57/57/57 60/60/60
f 61/61/61 54/54/54 60/60/60
f 62/62/62 56/56/56 55/55/55
f 62/62/62 55/55/55 63/63/63
f 62/62/62 63/63/63 64/64/64
f 65/65/65 62/62/62 64/64/64
f 57/57/57 59/59/59 66/66/66
f 67/67/67 57/57/57 66/66/66
f 70/70/70 69/69/69 68/68/68
f 69/69/69 71/71/71 68/68/68
f 71/71/71 69/69/69 72/72/72
f 71/71/71 72/72/72 73/73/73
f 72/72/72 74/74/74 73/73/73
f 74/74/74 75/75/75 73/73/73
f 74/74/74 76/76/76 75/75/75
f 76/76/76 77/77/77 75/75/75
f 76/76/76 78/78/78 77/77/77
f 79/79/79 78/78/78 76/76/76
f 80/80/80 79/79/79 76/76/76
f 78/78/78 81/81/81 77/77/77
f 81/81/81 82/82/82 77/77/77
f 82/82/82 81/81/81 83/83/83
f 84/84/84 82/82/82 83/83/83
f 87/87/87 86/86/86 85/85/85
f 86/86/86 88/88/88 85/85/85
f 87/87/87 85/85/85 89/89/89
f 90/90/90 87/87/87 89/89/89
f 93/93/93 92/92/92 91/91/91
f 92/92/92 94/94/94 91/91/91
f 97/97/97 96/96/96 95/95/95
f 96/96/96 98/98/98 95/95/95
f 95/95/95 98/98/98 99/99/99
f 98/98/98 100/100/100 99/99/99
f 101/101/101 96/96/96 97/97/97
f 102/102/102 101/101/101 97/97/97
f 103/103/103 101/101/101 102/102/102
f 104/104/104 103/103/103 102/102/102
f 105/105/105 103/103/103 104/104/104
f 106/106/106 105/105/105 104/104/104
f 99/99/99 100/100/100 107/107/107
f 100/100/100 108/108/108 107/107/107
f 111/111/111 110/110/110 109/109/109
f 112/112/112 110/110/110 111/111/111
f 113/113/113 112/112/112 111/111/111
f 115/115/115 114/114/114 109/109/109
f 117/117/117 112/112/112 116/116/116
f 112/112/112 118/118/118 116/116/116
f 120/120/120 118/118/118 119/119/119
f 118/118/118 122/122/122 121/121/121
f 125/125/125 124/124/124 123/123/123
f 124/124/124 126/126/126 123/123/123
