g Cone001
v 50 0 -50
v 54.6194 0 -51.9134
v 53.5355 0 -53.5355
v 55 0 -50
v 54.6194 0 -48.0866
v 53.5355 0 -46.4645
v 51.9134 0 -45.3806
v 50 0 -45
v 48.0866 0 -45.3806
v 46.4645 0 -46.4645
v 45.3806 0 -48.0866
v 45 0 -50
v 45.3806 0 -51.9134
v 46.4645 0 -53.5355
v 48.0866 0 -54.6194
v 50 0 -55
v 51.9134 0 -54.6194
v 53.5355 0 -53.5355
v 55 0 -50
v 52.3097 5 -50.9567
v 54.6194 0 -51.9134
v 52.5 5 -50
v 51.7678 5 -51.7678
v 53.5355 0 -53.5355
v 50.9567 5 -52.3097
v 51.9134 0 -54.6194
v 54.6194 0 -48.0866
v 52.3097 5 -49.0433
v 53.5355 0 -46.4645
v 51.7678 5 -48.2322
v 51.9134 0 -45.3806
v 50.9567 5 -47.6903
v 50 0 -45
v 50 5 -47.5
v 48.0866 0 -45.3806
v 49.0433 5 -47.6903
v 46.4645 0 -46.4645
v 48.2322 5 -48.2322
v 45.3806 0 -48.0866
v 47.6903 5 -49.0433
v 45 0 -50
v 47.5 5 -50
v 45.3806 0 -51.9134
v 47.6903 5 -50.9567
v 46.4645 0 -53.5355
v 48.2322 5 -51.7678
v 48.0866 0 -54.6194
v 49.0433 5 -52.3097
v 50 0 -55
v 50 5 -52.5
v 51.9134 0 -54.6194
v 50.9567 5 -52.3097
v 50 10 -50
v 50 10 -50
v 50 10 -50
v 50 10 -50
v 50 10 -50
v 50 10 -50
v 50 10 -50
v 50 10 -50
v 50 10 -50
v 50 10 -50
v 50 10 -50
v 50 10 -50
v 50 10 -50
v 50 10 -50
v 50 10 -50
v 50 10 -50
vt 0.5 0
vt 0.8125 0
vt 0.875 0
vt 0.75 0
vt 0.6875 0
vt 0.625 0
vt 0.5625 0
vt 0.5 0
vt 0.4375 0
vt 0.375 0
vt 0.3125 0
vt 0.25 0
vt 0.1875 0
vt 0.125 0
vt 0.0625 0
vt 0 0
vt -0.0625 0
vt -0.0394 0
vt 0.75 0
vt 0.8125 0.5
vt 0.8125 0
vt 0.75 0.5
vt 0.875 0.5
vt 0.875 0
vt 0.9375 0.5
vt 0.9375 0
vt 0.6875 0
vt 0.6875 0.5
vt 0.625 0
vt 0.625 0.5
vt 0.5625 0
vt 0.5625 0.5
vt 0.5 0
vt 0.5 0.5
vt 0.4375 0
vt 0.4375 0.5
vt 0.375 0
vt 0.375 0.5
vt 0.3125 0
vt 0.3125 0.5
vt 0.25 0
vt 0.25 0.5
vt 0.1875 0
vt 0.1875 0.5
vt 0.125 0
vt 0.125 0.5
vt 0.0625 0
vt 0.0625 0.5
vt 0 0
vt 0 0.5
vt -0.0625 0
vt -0.0625 0.5
vt 0.5 1
vt 0.5 1
vt 0.5 1
vt 0.5 1
vt 0.5 1
vt 0.5 1
vt 0.5 1
vt 0.5 1
vt 0.5 1
vt 0.5 1
vt 0.5 1
vt 0.5 1
vt 0.5 1
vt 0.5 1
vt 0.5 1
vt 0.5 1
vn 0 -1 0
vn 0 -1 0
vn 0 -1 0
vn 0 -1 0
vn 0 -1 0
vn 0 -1 0
vn 0 -1 0
vn 0 -1 0
vn 0 -1 0
vn 0 -1 0
vn 0 -1 0
vn 0 -1 0
vn 0 -1 0
vn 0 -1 0
vn 0 -1 0
vn 0 -1 0
vn 0 -1 0
vn 0 -1 0
vn 0.8944272 0.4472136 0
vn 0.8263294 0.4472159 -0.3423122
vn 0.8263294 0.4472159 -0.3423122
vn 0.8944272 0.4472136 0
vn 0.6324683 0.4471776 -0.6324683
vn 0.6324683 0.4471776 -0.6324683
vn 0.3423122 0.4472159 -0.8263294
vn 0.3423122 0.4472159 -0.8263294
vn 0.8263294 0.4472159 0.3423122
vn 0.8263294 0.4472159 0.3423122
vn 0.6324683 0.4471776 0.6324683
vn 0.6324683 0.4471776 0.6324683
vn 0.3423122 0.4472159 0.8263294
vn 0.3423122 0.4472159 0.8263294
vn 0 0.4472136 0.8944272
vn 0 0.4472136 0.8944272
vn -0.3423122 0.4472159 0.8263294
vn -0.3423122 0.4472159 0.8263294
vn -0.6324683 0.4471776 0.6324683
vn -0.6324683 0.4471776 0.6324683
vn -0.8263294 0.4472159 0.3423122
vn -0.8263294 0.4472159 0.3423122
vn -0.8944272 0.4472136 0
vn -0.8944272 0.4472136 0
vn -0.8263294 0.4472159 -0.3423122
vn -0.8263294 0.4472159 -0.3423122
vn -0.6324683 0.4471776 -0.6324683
vn -0.6324683 0.4471776 -0.6324683
vn -0.3423122 0.4472159 -0.8263294
vn -0.3423122 0.4472159 -0.8263294
vn 0 0.4472136 -0.8944272
vn 0 0.4472136 -0.8944272
vn 0.3423122 0.4472159 -0.8263294
vn 0.3423122 0.4472159 -0.8263294
vn 0.1751987 0.4402966 -0.8805932
vn -0.1751987 0.4402966 -0.8805932
vn -0.498818 0.4403159 -0.746527
vn -0.746527 0.4403159 -0.498818
vn -0.8805932 0.4402966 -0.1751987
vn -0.8805932 0.4402966 0.1751987
vn -0.746527 0.4403159 0.498818
vn -0.498818 0.4403159 0.746527
vn -0.1751987 0.4402966 0.8805932
vn 0.1751987 0.4402966 0.8805932
vn 0.498818 0.4403159 0.746527
vn 0.746527 0.4403159 0.498818
vn 0.8805932 0.4402966 0.1751987
vn 0.8805932 0.4402966 -0.1751987
vn 0.746527 0.4403159 -0.498818
vn 0.498818 0.4403159 -0.746527
g Cone001_0
f 3/3/3 2/2/2 1/1/1
f 2/2/2 4/4/4 1/1/1
f 4/4/4 5/5/5 1/1/1
f 5/5/5 6/6/6 1/1/1
f 6/6/6 7/7/7 1/1/1
f 7/7/7 8/8/8 1/1/1
f 8/8/8 9/9/9 1/1/1
f 9/9/9 10/10/10 1/1/1
f 10/10/10 11/11/11 1/1/1
f 11/11/11 12/12/12 1/1/1
f 12/12/12 13/13/13 1/1/1
f 13/13/13 14/14/14 1/1/1
f 14/14/14 15/15/15 1/1/1
f 15/15/15 16/16/16 1/1/1
f 16/16/16 17/17/17 1/1/1
f 17/17/17 18/18/18 1/1/1
f 21/21/21 20/20/20 19/19/19
f 20/20/20 22/22/22 19/19/19
f 23/23/23 20/20/20 21/21/21
f 24/24/24 23/23/23 21/21/21
f 25/25/25 23/23/23 24/24/24
f 26/26/26 25/25/25 24/24/24
f 19/19/19 22/22/22 27/27/27
f 22/22/22 28/28/28 27/27/27
f 27/27/27 28/28/28 29/29/29
f 28/28/28 30/30/30 29/29/29
f 29/29/29 30/30/30 31/31/31
f 30/30/30 32/32/32 31/31/31
f 31/31/31 32/32/32 33/33/33
f 32/32/32 34/34/34 33/33/33
f 33/33/33 34/34/34 35/35/35
f 34/34/34 36/36/36 35/35/35
f 35/35/35 36/36/36 37/37/37
f 36/36/36 38/38/38 37/37/37
f 37/37/37 38/38/38 39/39/39
f 38/38/38 40/40/40 39/39/39
f 39/39/39 40/40/40 41/41/41
f 40/40/40 42/42/42 41/41/41
f 41/41/41 42/42/42 43/43/43
f 42/42/42 44/44/44 43/43/43
f 43/43/43 44/44/44 45/45/45
f 44/44/44 46/46/46 45/45/45
f 45/45/45 46/46/46 47/47/47
f 46/46/46 48/48/48 47/47/47
f 47/47/47 48/48/48 49/49/49
f 48/48/48 50/50/50 49/49/49
f 49/49/49 50/50/50 51/51/51
f 50/50/50 52/52/52 51/51/51
f 50/50/50 53/53/53 52/52/52
f 48/48/48 54/54/54 50/50/50
f 46/46/46 55/55/55 48/48/48
f 44/44/44 56/56/56 46/46/46
f 42/42/42 57/57/57 44/44/44
f 40/40/40 58/58/58 42/42/42
f 38/38/38 59/59/59 40/40/40
f 36/36/36 60/60/60 38/38/38
f 34/34/34 61/61/61 36/36/36
f 32/32/32 62/62/62 34/34/34
f 30/30/30 63/63/63 32/32/32
f 28/28/28 64/64/64 30/30/30
f 22/22/22 65/65/65 28/28/28
f 20/20/20 66/66/66 22/22/22
f 23/23/23 67/67/67 20/20/20
f 25/25/25 68/68/68 23/23/23
