g Cube_002
v 12.5775 -144.7948 0
v 12.5775 -137.9922 0
v 12.5775 -144.7948 110.725
v 12.5775 -137.9922 110.725
v 12.5775 -144.7948 110.725
v 19.4367 -144.7948 0
v 19.4367 -144.7948 110.725
v 19.4367 -144.7948 110.725
v 19.4367 -137.9922 110.725
v 19.4367 -137.9922 0
v 19.4367 -137.9922 110.725
v 12.5775 -137.9922 0
v 12.5775 -137.9922 110.725
v 16.1573 -141.3935 113.8849
v 19.4367 -144.7948 110.725
v 12.5775 -144.7948 110.725
v 19.4367 -137.9922 110.725
v 12.5775 -137.9922 110.725
vt 0.804362 0.999795
vt 0.770517 0.999795
vt 0.804363 0.448896
vt 0.770517 0.448896
vt 0.804363 0.448896
vt 0.83849 0.999795
vt 0.83849 0.448896
vt 0.83849 0.448896
vt 0.872336 0.448896
vt 0.872335 0.999795
vt 0.872336 0.448896
vt 0.906463 0.999795
vt 0.906463 0.448896
vt 0.587945 0.292472
vt 0.60734 0.312186
vt 0.56755 0.31231
vt 0.60734 0.272758
vt 0.567551 0.272633
vn -0.7071068 -0.7071068 0
vn -0.7071068 0.7071068 0
vn -0.6471342 -0.6448147 0.4067326
vn -0.6471342 0.6448147 0.4067326
vn -0.6471342 -0.6448147 0.4067326
vn 0.7071068 -0.7071068 0
vn 0.6472202 -0.6488988 0.4000454
vn 0.6472202 -0.6488988 0.4000454
vn 0.6472202 0.6488988 0.4000454
vn 0.7071068 0.7071068 0
vn 0.6472202 0.6488988 0.4000454
vn -0.7071068 0.7071068 0
vn -0.6471342 0.6448147 0.4067326
vn 0.01907409 0 0.9998181
vn 0.6472202 -0.6488988 0.4000454
vn -0.6471342 -0.6448147 0.4067326
vn 0.6472202 0.6488988 0.4000454
vn -0.6471342 0.6448147 0.4067326
g Cube_002_0
f 3/3/3 2/2/2 1/1/1
f 4/4/4 2/2/2 3/3/3
f 6/6/6 5/5/5 1/1/1
f 7/7/7 5/5/5 6/6/6
f 6/6/6 9/9/9 8/8/8
f 10/10/10 9/9/9 6/6/6
f 10/10/10 12/12/12 11/11/11
f 11/11/11 12/12/12 13/13/13
f 16/16/16 15/15/15 14/14/14
f 14/14/14 15/15/15 17/17/17
f 16/16/16 14/14/14 18/18/18
f 17/17/17 18/18/18 14/14/14
