g default
v -0.420865 23.46449 0.536272
v 1.19506 26.78325 8.600493
v 0.267572 22.67528 0.811662
v 1.448335 26.49291 8.70181
v 0.868478 23.65058 0.276226
v 0.267572 22.67528 0.811662
v 1.555875 26.72422 8.373795
v 1.448335 26.49291 8.70181
v 0.868478 23.65058 0.276226
v 1.555875 26.72422 8.373795
v -0.420865 23.46449 0.536272
v 1.19506 26.78325 8.600493
v 0.826866 21.76971 -0.880843
v 1.276337 25.65473 -8.855632
v -0.027346 21.90609 -0.919322
v 0.883317 25.71748 -8.873336
v 0.456534 22.6926 -0.507456
v -0.027346 21.90609 -0.919322
v 1.085121 25.90359 -8.561404
v 0.883317 25.71748 -8.873336
v 0.456534 22.6926 -0.507456
v 1.085121 25.90359 -8.561404
v 0.826866 21.76971 -0.880843
v 1.276337 25.65473 -8.855632
v -10.56675 26.28656 -2.518622
v -0.656893 21.66963 0.664564
v -10.49298 26.24021 -2.905062
v -0.312264 21.45308 -1.14081
v -10.56675 26.28656 -2.518622
v -10.17848 26.3922 -2.660217
v -0.656893 21.66963 0.664564
v 0.36814 22.91843 -0.238123
v -10.49298 26.24021 -2.905062
v -0.312264 21.45308 -1.14081
v -10.17848 26.3922 -2.660217
v 0.36814 22.91843 -0.238123
v 1.257655 26.03624 0.472263
v 9.288036 27.70124 -2.972056
v 0.997612 26.34594 -0.596003
v 9.169262 27.8427 -3.459981
v 0.924485 26.84344 0.290162
v 0.997612 26.34594 -0.596003
v 8.989951 27.96408 -3.030243
v 9.169262 27.8427 -3.459981
v 0.924485 26.84344 0.290162
v 8.989951 27.96408 -3.030243
v 1.257655 26.03624 0.472263
v 9.288036 27.70124 -2.972056
v 2.255089 -0.103284 -1.251326
v 1.09039 7.006281 -0.629536
v 1.3864 -0.021306 -1.811727
v 0.629537 7.006281 -1.090389
v 0.17216 -0.021306 -2.147018
v 0 7.006281 -1.259073
v -0.629537 7.006281 -1.090389
v -1.274075 -0.008711 -1.745449
v -1.09039 7.006281 -0.629536
v -2.16296 -0.008711 -0.829415
v -1.259074 7.006281 1E-06
v -2.428481 -0.607636 0
v -2.08092 -0.449146 1.118433
v -1.09039 7.006281 0.629538
v -1.192035 -0.420618 2.034467
v -0.629537 7.006281 1.090391
v 0 7.006281 1.259075
v -0.129598 -0.598193 2.604772
v 0.629537 7.006281 1.090391
v 1.198994 -0.250168 2.424893
v 2.239683 -0.40804 1.273846
v 1.09039 7.006281 0.629538
v 2.580445 -0.438732 0
v 1.259074 7.006281 1E-06
v 2.255089 -0.103284 -1.251326
v 1.09039 7.006281 -0.629536
v -1.294829 13.72247 0.688649
v -0.790705 13.72247 1.192773
v -0.335933 13.72247 1.377295
v 0.720964 13.72247 1.310295
v 1.225088 13.72247 0.80617
v 1.606584 13.72247 2E-06
v 1.422061 13.72247 -0.688645
v -0.727706 20.44456 1.028951
v -1.162591 20.44456 0.594066
v -1.309257 20.44456 3E-06
v -1.591498 13.98776 0.018412
v -1.531639 14.19697 -0.714136
v -0.86893 13.91173 -1.112638
v -0.180283 13.91173 -1.29716
v 0.352713 13.72247 -1.192769
v 1.422061 13.72247 -0.688645
v 0.936324 20.24605 -0.768056
v 0.50144 20.24605 -1.20294
v -0.211636 20.17736 -1.310857
v -0.805699 20.17736 -1.151678
v -1.274741 20.65377 -0.637961
v -1.274741 20.65377 -0.637961
v 1.875507 33.07772 5E-06
v 1.875507 33.07772 5E-06
v 1.875507 33.07772 5E-06
v 1.875507 33.07772 5E-06
v -1.274741 20.65377 -0.637961
v 1.875507 33.07772 5E-06
v 1.875507 33.07772 5E-06
v 1.875507 33.07772 5E-06
v -0.12113 20.44456 1.315323
v 0.472934 20.44456 1.156144
v 0.907818 20.44456 0.594067
v 1.066997 20.44456 3E-06
v 0.936324 20.24605 -0.768056
v 1.875507 33.07772 5E-06
v 1.875507 33.07772 5E-06
v 1.875507 33.07772 5E-06
v 1.875507 33.07772 5E-06
vt 0 -0.030538
vt 0 1.020866
vt 0.333333 -0.030538
vt 0.333333 1.020866
vt 0.666667 -0.030538
vt 0.333333 -0.030538
vt 0.666667 1.020866
vt 0.333333 1.020866
vt 0.666667 -0.030538
vt 0.666667 1.020866
vt 1 -0.030538
vt 1 1.020866
vt 0 0.045172
vt 0 0.959722
vt 0.333333 0.045172
vt 0.333333 0.959722
vt 0.666667 0.045172
vt 0.333333 0.045172
vt 0.666667 0.959722
vt 0.333333 0.959722
vt 0.666667 0.045172
vt 0.666667 0.959722
vt 1 0.045172
vt 1 0.959722
vt 0.333333 0.926415
vt 0.333333 0.100534
vt 0 0.926415
vt 0 0.100534
vt 0.333333 0.926415
vt 0.666667 0.926415
vt 0.333333 0.100534
vt 0.666667 0.100534
vt 1 0.926415
vt 1 0.100534
vt 0.666667 0.926415
vt 0.666667 0.100534
vt 0 0.022062
vt 0 0.970401
vt 0.333333 0.022062
vt 0.333333 0.970401
vt 0.666667 0.022062
vt 0.333333 0.022062
vt 0.666667 0.970401
vt 0.333333 0.970401
vt 0.666667 0.022062
vt 0.666667 0.970401
vt 1 0.022062
vt 1 0.970401
vt 0 -0.938234
vt 0 0.023663
vt 0.083333 -0.938234
vt 0.083333 0.023663
vt 0.166667 -0.938234
vt 0.166667 0.023663
vt 0.25 0.023663
vt 0.25 -0.938234
vt 0.333333 0.023663
vt 0.333333 -0.938234
vt 0.416667 0.023663
vt 0.416667 -0.938234
vt 0.5 -0.938234
vt 0.5 0.023663
vt 0.583333 -0.938234
vt 0.583333 0.023663
vt 0.666667 0.023663
vt 0.666667 -0.938234
vt 0.75 0.023663
vt 0.75 -0.938234
vt 0.833333 -0.938234
vt 0.833333 0.023663
vt 0.916667 -0.938234
vt 0.916667 0.023663
vt 1 -0.938234
vt 1 0.023663
vt 0.5 0.985561
vt 0.583333 0.985561
vt 0.666667 0.985561
vt 0.75 0.985561
vt 0.833333 0.985561
vt 0.916667 0.985561
vt 1 0.985561
vt 0.583333 1.947459
vt 0.5 1.947459
vt 0.416667 1.947459
vt 0.416667 0.985561
vt 0.333333 0.985561
vt 0.25 0.985561
vt 0.166667 0.985561
vt 0.083333 0.985561
vt 0 0.985561
vt 0 1.947459
vt 0.083333 1.947459
vt 0.166667 1.947459
vt 0.25 1.947459
vt 0.333333 1.947459
vt 0.333333 1.947459
vt 0.5 3.046767
vt 0.5 3.046767
vt 0.5 3.046767
vt 0.5 3.046767
vt 0.333333 1.947459
vt 0.5 3.046767
vt 0.5 3.046767
vt 0.5 3.046767
vt 0.666667 1.947459
vt 0.75 1.947459
vt 0.833333 1.947459
vt 0.916667 1.947459
vt 1 1.947459
vt 0.5 3.046767
vt 0.5 3.046767
vt 0.5 3.046767
vt 0.5 3.046767
vn -0.7599474 -0.5332046 0.3717161
vn -0.7599476 -0.5332043 0.3717161
vn -0.7599476 -0.5332043 0.3717161
vn -0.7599477 -0.5332041 0.3717159
vn 0.8717144 -0.478084 0.1074699
vn 0.9015443 -0.4262054 0.074611
vn 0.9015443 -0.4262054 0.074611
vn 0.9271722 -0.3723404 0.04140439
vn -0.2001253 0.9215181 -0.3327975
vn -0.1394448 0.9262813 -0.3500831
vn -0.1394448 0.9262813 -0.3500831
vn -0.07820598 0.927336 -0.365967
vn -0.1221911 -0.8895303 -0.4402331
vn -0.1221917 -0.8895302 -0.4402331
vn -0.1221917 -0.8895302 -0.4402331
vn -0.1221922 -0.8895301 -0.4402331
vn -0.8724564 0.4735506 0.1207051
vn -0.8394779 0.5220311 0.1508655
vn -0.8394779 0.5220311 0.1508655
vn -0.8028498 0.5682419 0.1803699
vn 0.9352096 0.2977223 0.1916879
vn 0.912406 0.3468108 0.2173419
vn 0.912406 0.3468108 0.2173419
vn 0.8863289 0.394655 0.2422161
vn -0.429112 -0.9028661 0.02637844
vn -0.4291126 -0.9028658 0.02638031
vn -0.4291126 -0.9028658 0.02638031
vn -0.4291131 -0.9028654 0.02638218
vn 0.08161961 0.6785189 0.7300345
vn 0.04362439 0.6324333 0.7733855
vn 0.04362439 0.6324333 0.7733855
vn 0.005391562 0.582903 0.8125239
vn 0.3700273 0.4978653 -0.7843532
vn 0.3482683 0.4412696 -0.827037
vn 0.3482683 0.4412696 -0.827037
vn 0.3245944 0.3822477 -0.8651735
vn 0.07162862 -0.9531874 -0.2937739
vn 0.0716289 -0.9531876 -0.293773
vn 0.0716289 -0.9531876 -0.293773
vn 0.07162919 -0.9531879 -0.2937722
vn -0.3129465 0.8169262 -0.4844546
vn -0.302861 0.8512633 -0.4285157
vn -0.302861 0.8512633 -0.4285157
vn -0.29144 0.8818467 -0.3706873
vn 0.3192759 0.3320179 0.8875962
vn 0.2905587 0.4075026 0.8657467
vn 0.2905587 0.4075026 0.8657467
vn 0.2598075 0.4801348 0.8378369
vn 0.8722014 0.1809505 -0.4544465
vn 0.8129628 0.08312725 -0.5763518
vn 0.5144139 0.1482802 -0.8446249
vn 0.4486394 0.06177816 -0.8915751
vn -0.0003232459 0.1249784 -0.9921594
vn 0.03960774 0.04664261 -0.9981261
vn -0.4215009 0.05297803 -0.9052792
vn -0.5763901 0.1278508 -0.8071112
vn -0.8416599 0.03558148 -0.5388346
vn -0.9065008 0.148111 -0.3953725
vn -0.995167 0.07001399 0.06885244
vn -0.9877278 0.1517033 0.03714634
vn -0.8968688 0.1470896 0.4171223
vn -0.8184573 0.05833912 0.571598
vn -0.5421635 0.1502973 0.826722
vn -0.4747228 0.04176521 0.8791439
vn -0.06667277 0.06774493 0.9954724
vn -0.03716185 0.1797573 0.9830088
vn 0.5187861 0.0896114 0.8501946
vn 0.4441299 0.1956495 0.8743396
vn 0.8190423 0.1764325 0.5459317
vn 0.8879346 0.09310225 0.450449
vn 0.9793699 0.1739526 0.1028346
vn 0.9986466 0.05174183 -0.005290573
vn 0.8722014 0.1809505 -0.4544465
vn 0.8129628 0.08312725 -0.5763518
vn -0.8641709 0.0009990486 0.5031974
vn -0.5858445 -0.005846683 0.8104025
vn -0.2234278 -0.002084319 0.9747182
vn 0.4315367 0.008390091 0.9020563
vn 0.8588887 0.006343291 0.5121229
vn 0.9958398 0.01415086 0.09001526
vn 0.8423308 0.004902667 -0.5389386
vn -0.5660312 0.07724504 0.8207569
vn -0.8636883 0.1259704 0.4880308
vn -0.9764752 0.1200902 0.1790935
vn -0.9982607 -0.004720297 0.05876435
vn -0.8492957 -0.009474738 -0.5278325
vn -0.5119881 -0.008743783 -0.8589481
vn -0.1111025 -0.005554545 -0.9937934
vn 0.3434414 -0.0004820032 -0.939174
vn 0.8423308 0.004902667 -0.5389386
vn 0.8202385 0.0003629886 -0.5720216
vn 0.4495586 0.01204388 -0.8931696
vn -0.006415611 0.04226882 -0.9990857
vn -0.4424014 0.06884561 -0.8941708
vn -0.8471768 0.06906538 -0.5268029
vn -0.8926969 0.1033172 -0.4386546
vn 0.8697885 -0.01769112 -0.4931076
vn -0.009681847 0.1178161 -0.9929883
vn -0.261759 0.1461885 -0.9539975
vn -0.5279415 0.2031352 -0.8246295
vn -0.9377789 0.1146503 -0.3277591
vn -0.9632521 0.2619716 0.05929768
vn -0.8306772 0.2307753 0.5066736
vn -0.6841653 0.2225296 0.6945491
vn -0.05652945 0.05905771 0.9966527
vn 0.5537599 0.02709116 0.8322355
vn 0.8648887 0.01209764 0.5018179
vn 0.9978377 0.0258559 0.0604261
vn 0.8202385 0.0003629886 -0.5720216
vn -0.5325928 0.1942234 0.8237853
vn -0.02056654 0.1213382 0.9923982
vn 0.8717878 -0.02821265 0.4890707
vn 0.9988371 -0.04810153 0.003292099
g default_0
f 3/3/3 2/2/2 1/1/1
f 4/4/4 2/2/2 3/3/3
f 7/7/7 6/6/6 5/5/5
f 7/7/7 8/8/8 6/6/6
f 11/11/11 10/10/10 9/9/9
f 12/12/12 10/10/10 11/11/11
f 15/15/15 14/14/14 13/13/13
f 16/16/16 14/14/14 15/15/15
f 19/19/19 18/18/18 17/17/17
f 19/19/19 20/20/20 18/18/18
f 23/23/23 22/22/22 21/21/21
f 24/24/24 22/22/22 23/23/23
f 27/27/27 26/26/26 25/25/25
f 26/26/26 27/27/27 28/28/28
f 31/31/31 30/30/30 29/29/29
f 32/32/32 30/30/30 31/31/31
f 35/35/35 34/34/34 33/33/33
f 34/34/34 35/35/35 36/36/36
f 39/39/39 38/38/38 37/37/37
f 40/40/40 38/38/38 39/39/39
f 43/43/43 42/42/42 41/41/41
f 43/43/43 44/44/44 42/42/42
f 47/47/47 46/46/46 45/45/45
f 48/48/48 46/46/46 47/47/47
f 51/51/51 50/50/50 49/49/49
f 52/52/52 50/50/50 51/51/51
f 53/53/53 52/52/52 51/51/51
f 54/54/54 52/52/52 53/53/53
f 55/55/55 54/54/54 53/53/53
f 55/55/55 53/53/53 56/56/56
f 57/57/57 55/55/55 56/56/56
f 57/57/57 56/56/56 58/58/58
f 59/59/59 57/57/57 58/58/58
f 59/59/59 58/58/58 60/60/60
f 61/61/61 59/59/59 60/60/60
f 62/62/62 59/59/59 61/61/61
f 63/63/63 62/62/62 61/61/61
f 64/64/64 62/62/62 63/63/63
f 65/65/65 64/64/64 63/63/63
f 65/65/65 63/63/63 66/66/66
f 67/67/67 65/65/65 66/66/66
f 67/67/67 66/66/66 68/68/68
f 69/69/69 67/67/67 68/68/68
f 70/70/70 67/67/67 69/69/69
f 71/71/71 70/70/70 69/69/69
f 72/72/72 70/70/70 71/71/71
f 73/73/73 72/72/72 71/71/71
f 74/74/74 72/72/72 73/73/73
f 62/62/62 75/75/75 59/59/59
f 62/62/62 76/76/76 75/75/75
f 64/64/64 76/76/76 62/62/62
f 77/77/77 64/64/64 65/65/65
f 77/77/77 76/76/76 64/64/64
f 65/65/65 78/78/78 77/77/77
f 67/67/67 78/78/78 65/65/65
f 67/67/67 79/79/79 78/78/78
f 70/70/70 79/79/79 67/67/67
f 72/72/72 79/79/79 70/70/70
f 79/79/79 72/72/72 80/80/80
f 72/72/72 81/81/81 80/80/80
f 74/74/74 81/81/81 72/72/72
f 82/82/82 75/75/75 76/76/76
f 77/77/77 82/82/82 76/76/76
f 82/82/82 83/83/83 75/75/75
f 83/83/83 84/84/84 75/75/75
f 75/75/75 84/84/84 85/85/85
f 59/59/59 75/75/75 85/85/85
f 59/59/59 85/85/85 57/57/57
f 57/57/57 85/85/85 86/86/86
f 87/87/87 57/57/57 86/86/86
f 57/57/57 87/87/87 55/55/55
f 88/88/88 55/55/55 87/87/87
f 55/55/55 88/88/88 54/54/54
f 88/88/88 89/89/89 54/54/54
f 54/54/54 89/89/89 52/52/52
f 90/90/90 52/52/52 89/89/89
f 52/52/52 90/90/90 50/50/50
f 89/89/89 91/91/91 90/90/90
f 92/92/92 91/91/91 89/89/89
f 89/89/89 93/93/93 92/92/92
f 88/88/88 93/93/93 89/89/89
f 94/94/94 88/88/88 87/87/87
f 94/94/94 93/93/93 88/88/88
f 95/95/95 87/87/87 86/86/86
f 96/96/96 94/94/94 87/87/87
f 85/85/85 96/96/96 86/86/86
f 84/84/84 96/96/96 85/85/85
f 92/92/92 97/97/97 91/91/91
f 93/93/93 98/98/98 92/92/92
f 94/94/94 99/99/99 93/93/93
f 96/96/96 100/100/100 94/94/94
f 84/84/84 102/102/102 101/101/101
f 83/83/83 103/103/103 84/84/84
f 82/82/82 104/104/104 83/83/83
f 82/82/82 77/77/77 105/105/105
f 78/78/78 105/105/105 77/77/77
f 106/106/106 105/105/105 78/78/78
f 107/107/107 106/106/106 78/78/78
f 107/107/107 78/78/78 79/79/79
f 108/108/108 107/107/107 79/79/79
f 108/108/108 79/79/79 80/80/80
f 81/81/81 108/108/108 80/80/80
f 109/109/109 108/108/108 81/81/81
f 105/105/105 110/110/110 82/82/82
f 106/106/106 111/111/111 105/105/105
f 107/107/107 112/112/112 106/106/106
f 108/108/108 113/113/113 107/107/107
f 109/109/109 113/113/113 108/108/108
