g default
v 0.90274 3.742409 -2.73627
v 1.432727 5.112277 -2.077529
v 0.837508 5.112277 -2.5401
v 1.636169 3.742409 -2.293701
v 0.959475 2.052923 -2.917361
v 1.860003 2.052923 -2.504601
v 1.352511 -0.24 -4.127001
v 2.697758 -0.24 -3.689903
v 1.666773 5.112277 -1.193701
v 1.903423 3.742409 -1.335014
v 2.223933 2.052923 -1.541448
v 3.252914 -0.24 -2.289046
v 0.034056 3.742409 -2.880999
v 0.030755 5.112277 -2.67451
v -0.883094 3.742409 -2.736271
v -0.821009 5.112277 -2.5401
v -0.944949 2.052923 -2.917362
v 0.033105 2.052923 -3.071701
v -1.337984 -0.24 -4.127001
v 0.007263 -0.24 -4.564098
v -1.776011 3.742409 -2.446145
v -1.650267 5.112277 -2.270658
v -2.327864 3.742409 -1.686584
v -2.162777 5.112277 -1.565248
v -2.485661 2.052923 -1.79797
v -1.89716 2.052923 -2.60797
v -3.514641 -0.24 -2.545568
v -2.683231 -0.24 -3.689904
v -2.588922 3.742409 -0.927023
v -2.405223 5.112277 -0.859838
v -2.239965 3.742409 0.011846
v -2.081144 5.112277 0.012096
v -2.391924 2.052923 0.013246
v -2.764054 2.052923 -0.98797
v -3.663813 -0.24 0.013246
v -3.971134 -0.24 -1.342035
v -2.419291 3.742409 0.805317
v -2.247686 5.112277 0.748998
v -1.920749 3.742409 1.390399
v -1.784686 5.112277 1.292368
v -2.645885 2.052923 1.948506
v -4.34605 -0.24 1.427724
v -2.583158 2.052923 0.859408
v -4.010814 -0.24 3.00621
v -2.645885 2.052923 1.948506
v -1.680095 3.742409 2.278003
v -1.526946 5.112277 2.103016
v -0.883095 3.742409 2.759962
v -0.821009 5.112277 2.564291
v -0.94495 2.052923 2.943854
v -1.897162 2.052923 2.634461
v -1.337985 -0.24 4.153493
v -2.683233 -0.24 3.716395
v 0.034055 3.742409 2.904691
v 0.030755 5.112277 2.698702
v 0.90274 3.742409 2.759963
v 0.837508 5.112277 2.564292
v 0.959475 2.052923 2.943854
v 0.033105 2.052923 3.098193
v 1.35251 -0.24 4.153493
v 0.007263 -0.24 4.59059
v 1.335253 3.742409 1.864042
v 1.239187 5.112277 1.732244
v 2.34751 3.742409 1.710276
v 2.179277 5.112277 1.58944
v 2.500187 2.052923 1.824461
v 1.42071 2.052923 1.988439
v 3.529167 -0.24 2.57206
v 2.284308 -0.24 3.173742
v 3.00889 3.742409 1.047639
v 2.691782 5.112277 0.884029
v 2.899363 3.742409 0.011846
v 2.691787 5.112277 0.012096
v 3.088686 2.052923 0.013246
v 3.347842 2.052923 1.272866
v 4.360576 -0.24 0.013246
v 4.463938 -0.24 1.505245
v 3.347842 2.052923 1.272866
v 3.347842 2.052923 1.272866
v 3.347842 2.052923 1.272866
v 3.347842 2.052923 1.272866
v 2.778199 3.742409 -0.878557
v 2.407416 5.112277 -0.694536
v 1.903423 3.742409 -1.335014
v 1.666773 5.112277 -1.193701
v 2.223933 2.052923 -1.541448
v 2.959476 2.052923 -0.936285
v 3.252914 -0.24 -2.289046
v 4.123787 -0.24 -1.322302
v -2.645885 2.052923 1.948506
v 1.666773 5.112277 -1.193701
v 0.027236 4.976443 -0.010732
v 1.432727 5.112277 -2.077529
v 2.407416 5.112277 -0.694536
v 2.691787 5.112277 0.012096
v 0.837508 5.112277 -2.5401
v 0.030755 5.112277 -2.67451
v -0.821009 5.112277 -2.5401
v -1.650267 5.112277 -2.270658
v -2.162777 5.112277 -1.565248
v -2.405223 5.112277 -0.859838
v -2.081144 5.112277 0.012096
v -2.247686 5.112277 0.748998
v -1.784686 5.112277 1.292368
v -1.526946 5.112277 2.103016
v -0.821009 5.112277 2.564291
v 2.691782 5.112277 0.884029
v 2.179277 5.112277 1.58944
v 1.239187 5.112277 1.732244
v 0.837508 5.112277 2.564292
v 0.030755 5.112277 2.698702
vt 0.201071 0.280962
vt 0.173134 0.354467
vt 0.207638 0.348302
vt 0.158921 0.288456
vt 0.18821 0.189682
vt 0.133251 0.201664
vt 0.157061 0.049101
vt 0.08454 0.063946
vt 0.1326 0.368915
vt 0.113921 0.305856
vt 0.086248 0.227829
vt 0.02138 0.110688
vt 0.246129 0.277895
vt 0.245739 0.346595
vt 0.294796 0.280046
vt 0.286336 0.349522
vt 0.302715 0.183571
vt 0.243111 0.182977
vt 0.30709 0.033293
vt 0.230454 0.029572
vt 0.344786 0.287005
vt 0.327621 0.356748
vt 0.394141 0.302567
vt 0.368029 0.371521
vt 0.42697 0.205311
vt 0.365038 0.187849
vt 0.463848 0.051596
vt 0.386105 0.031683
vt 0.435499 0.320856
vt 0.401623 0.388805
vt 0.484677 0.351825
vt 0.442368 0.417777
vt 0.536171 0.263347
vt 0.479276 0.225997
vt 0.604489 0.118014
vt 0.534332 0.074985
vt 0.526252 0.376918
vt 0.476851 0.441659
vt 0.562495 0.406824
vt 0.506877 0.470446
vt 0.654658 0.318866
vt 0.700996 0.134709
vt 0.587593 0.286789
vt 0.790459 0.186144
vt 0.654658 0.318866
vt 0.608024 0.442624
vt 0.546757 0.500848
vt 0.643143 0.48849
vt 0.578266 0.535753
vt 0.735172 0.431102
vt 0.699959 0.372914
vt 0.87793 0.347513
vt 0.837807 0.26983
vt 0.671666 0.53561
vt 0.604417 0.573993
vt 0.693 0.581176
vt 0.624218 0.611645
vt 0.789412 0.546096
vt 0.766784 0.488823
vt 0.940381 0.500906
vt 0.921334 0.420056
vt 0.707339 0.634454
vt 0.637851 0.657252
vt 0.725837 0.686937
vt 0.654861 0.702706
vt 0.819531 0.665538
vt 0.795512 0.60815
vt 0.967465 0.650236
vt 0.943945 0.577783
vt 0.737005 0.735923
vt 0.66375 0.745696
vt 0.73464 0.79111
vt 0.663451 0.789635
vt 0.826714 0.797873
vt 0.83559 0.723943
vt 0.970906 0.807212
vt 0.981263 0.726562
vt 0.83559 0.723943
vt 0.83559 0.723943
vt 0.83559 0.723943
vt 0.83559 0.723943
vt 0.731279 0.836873
vt 0.660024 0.82771
vt 0.717016 0.884389
vt 0.647826 0.871065
vt 0.803117 0.89985
vt 0.82055 0.851697
vt 0.934341 0.943637
vt 0.960287 0.879245
vt 0.654658 0.318866
vt 0.469555 0.593884
vt 0.314721 0.703043
vt 0.540548 0.641663
vt 0.447811 0.513164
vt 0.393908 0.466499
vt 0.5633 0.708454
vt 0.550603 0.783935
vt 0.512757 0.855204
vt 0.463632 0.920355
vt 0.385613 0.944248
vt 0.315797 0.944248
vt 0.248416 0.889119
vt 0.178121 0.881319
vt 0.144083 0.823803
vt 0.080256 0.776213
vt 0.060955 0.699691
vt 0.316748 0.43996
vt 0.238708 0.463783
vt 0.197281 0.542538
vt 0.111442 0.552924
vt 0.074993 0.620228
vn 0.3607816 0.1407107 -0.9219746
vn 0.7278187 0.1865826 -0.6598992
vn 0.3193398 0.1492194 -0.9358182
vn 0.7726191 0.1829139 -0.6079492
vn 0.3194815 0.3247712 -0.8901996
vn 0.684768 0.3678336 -0.6291195
vn 0.3002594 0.4956455 -0.8149723
vn 0.6810853 0.518407 -0.517085
vn 0.8616794 0.1939594 -0.4689225
vn 0.7625577 0.2099906 -0.6118903
vn 0.7406987 0.3367803 -0.5813299
vn 0.6941561 0.4703718 -0.5448833
vn 0.004122734 0.1307082 -0.9914123
vn -0.04915756 0.1487565 -0.9876512
vn -0.2312382 0.130137 -0.9641542
vn -0.2558104 0.1483925 -0.95527
vn -0.2205266 0.3041825 -0.9267368
vn -0.01542243 0.3262436 -0.9451599
vn -0.2236272 0.4991965 -0.8371343
vn 0.05008411 0.531561 -0.845538
vn -0.5824111 0.1374054 -0.8011973
vn -0.6634086 0.1546812 -0.7320948
vn -0.8797364 0.1295814 -0.457463
vn -0.8994756 0.1449131 -0.4122423
vn -0.8416386 0.3041307 -0.4462612
vn -0.5517647 0.3189737 -0.7705917
vn -0.7509778 0.4836074 -0.4496177
vn -0.4301678 0.5016258 -0.7505512
vn -0.9928993 0.118235 0.01309559
vn -0.9835007 0.125497 0.130295
vn -0.9925655 0.1020473 0.06633161
vn -0.9928452 0.115115 -0.03173162
vn -0.9492865 0.3120436 0.03852384
vn -0.9542257 0.2987844 -0.01346173
vn -0.881846 0.4696625 0.04201167
vn -0.8692307 0.4751419 -0.1366685
vn -0.978588 0.1842775 0.09169152
vn -0.9105815 0.1301977 0.392288
vn -0.8119712 0.2563007 0.5244165
vn -0.903347 0.1287287 0.409137
vn -0.7520473 0.477332 0.4545096
vn -0.8134456 0.5645458 -0.1399797
vn -0.9347951 0.3412668 -0.09846383
vn -0.7312592 0.6107827 0.3036517
vn -0.8101494 0.4444034 0.3823134
vn -0.7607446 0.1719167 0.6258693
vn -0.7020662 0.1588985 0.6941574
vn -0.3451503 0.1344421 0.9288684
vn -0.2888307 0.1481938 0.9458411
vn -0.280874 0.3371037 0.8985938
vn -0.5298159 0.4194364 0.7371352
vn -0.2702275 0.4850726 0.831674
vn -0.4195932 0.5240801 0.7411353
vn 0.004371609 0.1311943 0.991347
vn 0.05761745 0.1485884 0.9872192
vn 0.5961112 0.1247524 0.7931509
vn 0.7215979 0.1314521 0.6797183
vn 0.5214986 0.3184166 0.7916122
vn 0.02250568 0.3267558 0.9448408
vn 0.3637674 0.4960806 0.7884017
vn -0.04726314 0.5309365 0.8460925
vn 0.5905515 0.1037896 0.8002978
vn 0.4426681 0.1165833 0.8890744
vn 0.4142073 0.1345628 0.9001806
vn 0.5778158 0.1776496 0.7965987
vn 0.3769965 0.2524621 0.8911435
vn 0.607223 0.3041229 0.7340227
vn 0.4032029 0.4767215 0.78113
vn 0.6191143 0.5018228 0.6040459
vn 0.9364145 0.2052421 0.2846114
vn 0.9628655 0.2147003 0.1636885
vn 0.9848354 0.140614 -0.1016219
vn 0.9659693 0.1984012 -0.1659527
vn 0.9397335 0.3070459 -0.1504119
vn 0.9318441 0.3564188 0.06805989
vn 0.8763105 0.4635686 -0.1310874
vn 0.7542287 0.4533276 0.4750085
vn 0.8967239 0.3735254 0.2374131
vn 0.7264172 0.3013528 0.6176605
vn 0.8679739 0.3381471 0.3637003
vn 0.5873167 0.2240053 0.7777409
vn 0.7989783 0.1949894 -0.5688697
vn 0.6591872 0.2461872 -0.7105379
vn 0.7625577 0.2099906 -0.6118903
vn 0.8616794 0.1939594 -0.4689225
vn 0.7406987 0.3367803 -0.5813299
vn 0.845849 0.3042999 -0.4381108
vn 0.6941561 0.4703718 -0.5448833
vn 0.8269908 0.4754999 -0.299977
vn -0.6568414 0.5302785 0.5360636
vn -0.05466226 0.9977505 0.03880733
vn 0.0003675074 0.9999999 -0.0002707215
vn -0.0513851 0.9982082 0.03066075
vn -0.04550298 0.9981673 0.03989445
vn -0.0509973 0.998646 0.01027805
vn -0.02092626 0.998679 0.04692825
vn -0.0002224028 0.9987024 0.0509266
vn 0.0118761 0.9986961 0.04965006
vn 0.02829491 0.9988373 0.03903291
vn 0.04533128 0.9986978 0.02340358
vn 0.05691786 0.9983733 -0.003341298
vn 0.06424212 0.9979236 -0.004615738
vn 0.05544186 0.9983838 -0.01248966
vn 0.05364735 0.9981256 -0.02944886
vn 0.04461708 0.9985117 -0.03136088
vn 0.01811507 0.998744 -0.04671709
vn -0.04592565 0.9988342 -0.01486957
vn -0.02581231 0.9984137 -0.05003813
vn -0.0383486 0.9979566 -0.051108
vn -0.03717374 0.9984685 -0.04097256
vn -0.0002186673 0.9987457 -0.05007063
g default_0
f 3/3/3 2/2/2 1/1/1
f 2/2/2 4/4/4 1/1/1
f 1/1/1 4/4/4 5/5/5
f 4/4/4 6/6/6 5/5/5
f 5/5/5 6/6/6 7/7/7
f 6/6/6 8/8/8 7/7/7
f 2/2/2 9/9/9 4/4/4
f 9/9/9 10/10/10 4/4/4
f 4/4/4 10/10/10 6/6/6
f 6/6/6 11/11/11 8/8/8
f 10/10/10 11/11/11 6/6/6
f 11/11/11 12/12/12 8/8/8
f 3/3/3 1/1/1 13/13/13
f 14/14/14 3/3/3 13/13/13
f 14/14/14 13/13/13 15/15/15
f 16/16/16 14/14/14 15/15/15
f 15/15/15 13/13/13 17/17/17
f 13/13/13 18/18/18 17/17/17
f 17/17/17 18/18/18 19/19/19
f 18/18/18 20/20/20 19/19/19
f 18/18/18 5/5/5 20/20/20
f 5/5/5 7/7/7 20/20/20
f 13/13/13 1/1/1 18/18/18
f 1/1/1 5/5/5 18/18/18
f 16/16/16 15/15/15 21/21/21
f 22/22/22 16/16/16 21/21/21
f 22/22/22 21/21/21 23/23/23
f 24/24/24 22/22/22 23/23/23
f 23/23/23 21/21/21 25/25/25
f 21/21/21 26/26/26 25/25/25
f 21/21/21 15/15/15 26/26/26
f 15/15/15 17/17/17 26/26/26
f 25/25/25 26/26/26 27/27/27
f 26/26/26 28/28/28 27/27/27
f 26/26/26 17/17/17 28/28/28
f 17/17/17 19/19/19 28/28/28
f 24/24/24 23/23/23 29/29/29
f 30/30/30 24/24/24 29/29/29
f 30/30/30 29/29/29 31/31/31
f 32/32/32 30/30/30 31/31/31
f 31/31/31 29/29/29 33/33/33
f 29/29/29 34/34/34 33/33/33
f 29/29/29 23/23/23 34/34/34
f 23/23/23 25/25/25 34/34/34
f 33/33/33 34/34/34 35/35/35
f 34/34/34 36/36/36 35/35/35
f 34/34/34 25/25/25 36/36/36
f 25/25/25 27/27/27 36/36/36
f 32/32/32 31/31/31 37/37/37
f 38/38/38 32/32/32 37/37/37
f 38/38/38 37/37/37 39/39/39
f 40/40/40 38/38/38 39/39/39
f 39/39/39 37/37/37 41/41/41
f 33/33/33 35/35/35 42/42/42
f 43/43/43 33/33/33 42/42/42
f 37/37/37 31/31/31 43/43/43
f 31/31/31 33/33/33 43/43/43
f 41/41/41 43/43/43 44/44/44
f 43/43/43 42/42/42 44/44/44
f 37/37/37 43/43/43 45/45/45
f 40/40/40 39/39/39 46/46/46
f 47/47/47 40/40/40 46/46/46
f 47/47/47 46/46/46 48/48/48
f 49/49/49 47/47/47 48/48/48
f 48/48/48 46/46/46 50/50/50
f 46/46/46 51/51/51 50/50/50
f 46/46/46 39/39/39 51/51/51
f 39/39/39 41/41/41 51/51/51
f 50/50/50 51/51/51 52/52/52
f 51/51/51 53/53/53 52/52/52
f 51/51/51 41/41/41 53/53/53
f 49/49/49 48/48/48 54/54/54
f 55/55/55 49/49/49 54/54/54
f 55/55/55 54/54/54 56/56/56
f 57/57/57 55/55/55 56/56/56
f 56/56/56 54/54/54 58/58/58
f 54/54/54 59/59/59 58/58/58
f 54/54/54 48/48/48 59/59/59
f 48/48/48 50/50/50 59/59/59
f 58/58/58 59/59/59 60/60/60
f 59/59/59 61/61/61 60/60/60
f 59/59/59 50/50/50 61/61/61
f 50/50/50 52/52/52 61/61/61
f 57/57/57 56/56/56 62/62/62
f 63/63/63 57/57/57 62/62/62
f 63/63/63 62/62/62 64/64/64
f 65/65/65 63/63/63 64/64/64
f 64/64/64 62/62/62 66/66/66
f 62/62/62 67/67/67 66/66/66
f 62/62/62 56/56/56 67/67/67
f 56/56/56 58/58/58 67/67/67
f 66/66/66 67/67/67 68/68/68
f 67/67/67 69/69/69 68/68/68
f 67/67/67 58/58/58 69/69/69
f 58/58/58 60/60/60 69/69/69
f 65/65/65 64/64/64 70/70/70
f 71/71/71 65/65/65 70/70/70
f 71/71/71 70/70/70 72/72/72
f 73/73/73 71/71/71 72/72/72
f 72/72/72 70/70/70 74/74/74
f 70/70/70 75/75/75 74/74/74
f 74/74/74 75/75/75 76/76/76
f 66/66/66 68/68/68 77/77/77
f 78/78/78 77/77/77 76/76/76
f 79/79/79 66/66/66 77/77/77
f 70/70/70 64/64/64 80/80/80
f 64/64/64 66/66/66 81/81/81
f 73/73/73 72/72/72 82/82/82
f 83/83/83 73/73/73 82/82/82
f 83/83/83 82/82/82 84/84/84
f 85/85/85 83/83/83 84/84/84
f 84/84/84 82/82/82 86/86/86
f 82/82/82 87/87/87 86/86/86
f 86/86/86 87/87/87 88/88/88
f 87/87/87 89/89/89 88/88/88
f 87/87/87 74/74/74 89/89/89
f 74/74/74 76/76/76 89/89/89
f 82/82/82 72/72/72 87/87/87
f 72/72/72 74/74/74 87/87/87
f 90/90/90 44/44/44 53/53/53
f 93/93/93 92/92/92 91/91/91
f 91/91/91 92/92/92 94/94/94
f 94/94/94 92/92/92 95/95/95
f 96/96/96 92/92/92 93/93/93
f 97/97/97 92/92/92 96/96/96
f 98/98/98 92/92/92 97/97/97
f 99/99/99 92/92/92 98/98/98
f 100/100/100 92/92/92 99/99/99
f 101/101/101 92/92/92 100/100/100
f 102/102/102 92/92/92 101/101/101
f 103/103/103 92/92/92 102/102/102
f 104/104/104 92/92/92 103/103/103
f 105/105/105 92/92/92 104/104/104
f 106/106/106 92/92/92 105/105/105
f 95/95/95 92/92/92 107/107/107
f 107/107/107 92/92/92 108/108/108
f 108/108/108 92/92/92 109/109/109
f 109/109/109 92/92/92 110/110/110
f 110/110/110 92/92/92 111/111/111
f 111/111/111 92/92/92 106/106/106
