g default
v -2.08 4 1.100001
v 1.88 4 -1.099999
v 1.88 4 1.100001
v -2.08 4 -1.099999
v -1 0 1
v 3 0 -1
v 3 0 1
v -1 0 -1
v 3 -1E-06 2
v 3 3.999999 2.990001
v 3 4 2.000001
v 3 -1E-06 2.99
v 3 0 1.01
v 3 4 1.010001
v -3 1E-06 2
v -3 3.999999 2.990001
v -3 0 2.99
v -3 4 2.000001
v -3 1E-06 1.009999
v -3 4.000002 1.010001
v -3 5 2.000002
v -3 4 2.000001
v -3 3.999999 2.990001
v 3 0 1.01
v -3 4.000002 1.010001
v -3 1E-06 1.009999
v 3 4 1.010001
v 3 0 -2.99
v 3.000001 4 -1.999999
v 3.000001 4 -2.989999
v 3 -1E-06 -2
v 3.000001 3.999999 -1.009999
v 3.000001 -1E-06 -1.01
v 3 3.999999 2.990001
v -3 0 2.99
v -3 3.999999 2.990001
v 3 -1E-06 2.99
v -3 1E-06 2
v 3 -1E-06 2.99
v 3 -1E-06 2
v -3 0 2.99
v -3 1E-06 1.009999
v 3 0 1.01
v -3 1E-06 -2.990001
v -2.999999 4 -1.999999
v -3 1E-06 -2
v -2.999999 4.000002 -2.989999
v -2.999999 3.999999 -1.009999
v -3 0 -1.01
v -2.999999 5 -1.999998
v -2.999999 4 -1.999999
v -2.999999 3.999999 -1.009999
v -3 1E-06 -2.990001
v 3 -1E-06 -2
v 3 0 -2.99
v -3 1E-06 -2
v 3.000001 -1E-06 -1.01
v -3 0 -1.01
v 3.000001 3.999999 -1.009999
v -3 0 -1.01
v -2.999999 3.999999 -1.009999
v 3.000001 -1E-06 -1.01
v 3 0 -2.99
v -2.999999 4.000002 -2.989999
v -3 1E-06 -2.990001
v 3.000001 4 -2.989999
v 3 4 2.000001
v 3 5 2.000002
v 3 4 1.010001
v 3 5 2.000002
v -3 3.999999 2.990001
v -3 5 2.000002
v 3 3.999999 2.990001
v 3 4 1.010001
v -3 5 2.000002
v -3 4.000002 1.010001
v 3 5 2.000002
v 3 3.999999 2.990001
v 3 5 2.000002
v 3 4 2.000001
v 3.000001 4 -1.999999
v 3.000001 5 -1.999998
v 3.000001 4 -2.989999
v 3.000001 5 -1.999998
v -2.999999 3.999999 -1.009999
v -2.999999 5 -1.999998
v 3.000001 3.999999 -1.009999
v 3.000001 4 -2.989999
v -2.999999 5 -1.999998
v -2.999999 4.000002 -2.989999
v 3.000001 5 -1.999998
v 3.000001 3.999999 -1.009999
v 3.000001 5 -1.999998
v 3.000001 4 -1.999999
v -2 -1E-06 3
v -2.99 3.999999 3.000001
v -2 4 3.000001
v -2.99 -1E-06 3
v -1.01 0 3
v -1.01 4 3.000001
v -2 1E-06 -3
v -2.99 4 -2.999999
v -2.99 0 -3
v -2.000001 4 -2.999999
v -1.009999 1E-06 -3
v -1.010001 4.000002 -2.999999
v -2.000001 5 -2.999999
v -2.000001 4 -2.999999
v -2.99 4 -2.999999
v -1.01 0 3
v -1.010001 4.000002 -2.999999
v -1.009999 1E-06 -3
v -1.01 4 3.000001
v 2.99 0 3
v 2 4 3.000001
v 2.99 4 3.000001
v 2 -1E-06 3
v 1.01 3.999999 3.000001
v 1.01 -1E-06 3
v -2.99 3.999999 3.000001
v -2.99 0 -3
v -2.99 4 -2.999999
v -2.99 -1E-06 3
v -2 1E-06 -3
v -2.99 -1E-06 3
v -2 -1E-06 3
v -2.99 0 -3
v -1.009999 1E-06 -3
v -1.01 0 3
v 2.990001 1E-06 -3
v 2 4 -2.999999
v 2 1E-06 -3
v 2.99 4.000002 -2.999999
v 1.01 4 -2.999999
v 1.01 0 -3
v 1.999999 5 -2.999999
v 2 4 -2.999999
v 1.01 4 -2.999999
v -2 4 3.000001
v -2.000001 5 3.000001
v -1.01 4 3.000001
v -2.000001 5 3.000001
v -2.99 4 -2.999999
v -2.000001 5 -2.999999
v -2.99 3.999999 3.000001
v -1.01 4 3.000001
v -2.000001 5 -2.999999
v -1.010001 4.000002 -2.999999
v -2.000001 5 3.000001
v -2.99 3.999999 3.000001
v -2.000001 5 3.000001
v -2 4 3.000001
v 2 4 3.000001
v 1.999999 5 3.000001
v 2.99 4 3.000001
v 1.999999 5 2E-06
v 1.01 4 -2.999999
v 1.999999 5 -2.999999
v 1.01 3.999999 1E-06
v 1.999999 5 3.000001
v 1.01 3.999999 3.000001
v 2.99 4.000001 1E-06
v 1.999999 5 -2.999999
v 2.99 4.000002 -2.999999
v 1.999999 5 2E-06
v 2.99 4 3.000001
v 1.999999 5 3.000001
v 1.01 3.999999 3.000001
v 1.999999 5 3.000001
v 2 4 3.000001
v 2.99 4.000001 1E-06
v 2 -1E-06 3
v 2.99 0 3
v 2 4 1E-06
v 1.01 -1E-06 3
v 1.01 3.999999 1E-06
v 1.01 3.999999 1E-06
v 1.01 0 -3
v 1.01 4 -2.999999
v 2.99 4.000001 1E-06
v 2.99 4.000002 -2.999999
v 2.990001 1E-06 -3
v 2.99 0 3
v 2.99 4 3.000001
v 2.99 4.000001 1E-06
v 1.01 3.999999 3.000001
v 1.01 -1E-06 3
v 1.01 3.999999 1E-06
v 2 1E-06 -3
v 1.01 3.999999 1E-06
v 2 4 1E-06
v 1.01 0 -3
v 2.990001 1E-06 -3
v 2.99 4.000001 1E-06
vt 0.11019 0.681699
vt 0.286784 0.741096
vt 0.286784 0.681699
vt 0.109415 0.74048
vt 0.008627 0.408262
vt 0.185222 0.485485
vt 0.185222 0.408262
vt 0.008627 0.48487
vt 0.39864 0.687635
vt 0.34188 0.881557
vt 0.39864 0.881557
vt 0.34188 0.687635
vt 0.455401 0.687635
vt 0.455401 0.881557
vt 0.399414 0.689062
vt 0.454492 0.885156
vt 0.454492 0.689062
vt 0.399414 0.885156
vt 0.344336 0.689062
vt 0.344336 0.885156
vt 0.398165 0.91849
vt 0.399103 0.883686
vt 0.455921 0.883618
vt 0.000488 0.485352
vt 0.341536 0.674862
vt 0.341797 0.485352
vt 0.000293 0.674658
vt 0.455401 0.687635
vt 0.39864 0.881557
vt 0.455401 0.881557
vt 0.39864 0.687635
vt 0.34188 0.881557
vt 0.34188 0.687635
vt 0.001007 0.810066
vt 0.343118 1.000838
vt 0.343118 0.810066
vt 0.001007 1.000838
vt 0.727381 0.655475
vt 0.341602 0.622852
vt 0.341602 0.655273
vt 0.727381 0.623302
vt 0.727381 0.687648
vt 0.341602 0.687695
vt 0.344336 0.689062
vt 0.399414 0.885156
vt 0.399414 0.689062
vt 0.344336 0.885156
vt 0.454492 0.885156
vt 0.454492 0.689062
vt 0.398165 0.91849
vt 0.399103 0.883686
vt 0.455921 0.883618
vt 0.727381 0.687648
vt 0.341602 0.655273
vt 0.341602 0.687695
vt 0.727381 0.655475
vt 0.341602 0.622852
vt 0.727381 0.623302
vt 0.001007 0.810066
vt 0.343118 1.000838
vt 0.343118 0.810066
vt 0.001007 1.000838
vt 0.000488 0.485352
vt 0.341536 0.674862
vt 0.341797 0.485352
vt 0.000293 0.674658
vt 0.398641 0.885249
vt 0.39864 0.919084
vt 0.454171 0.884633
vt 0.000119 0.741854
vt 0.34037 0.806898
vt 0.340647 0.741854
vt 0.00084 0.806898
vt 6.5E-05 0.678195
vt 0.340647 0.741854
vt 0.34037 0.678195
vt 0.000119 0.741854
vt 0.343566 0.885932
vt 0.396829 0.918697
vt 0.396897 0.885932
vt 0.398641 0.885249
vt 0.39864 0.919084
vt 0.454171 0.884633
vt 0.000119 0.741854
vt 0.34037 0.806898
vt 0.340647 0.741854
vt 0.00084 0.806898
vt 6.5E-05 0.678195
vt 0.340647 0.741854
vt 0.34037 0.678195
vt 0.000119 0.741854
vt 0.343566 0.885932
vt 0.396829 0.918697
vt 0.396897 0.885932
vt 0.39864 0.687635
vt 0.34188 0.881557
vt 0.39864 0.881557
vt 0.34188 0.687635
vt 0.455401 0.687635
vt 0.455401 0.881557
vt 0.399414 0.689062
vt 0.454492 0.885156
vt 0.454492 0.689062
vt 0.399414 0.885156
vt 0.344336 0.689062
vt 0.344336 0.885156
vt 0.398165 0.91849
vt 0.399103 0.883686
vt 0.455921 0.883618
vt 0.000488 0.485352
vt 0.341536 0.674862
vt 0.341797 0.485352
vt 0.000293 0.674658
vt 0.455401 0.687635
vt 0.39864 0.881557
vt 0.455401 0.881557
vt 0.39864 0.687635
vt 0.34188 0.881557
vt 0.34188 0.687635
vt 0.001007 0.810066
vt 0.343118 1.000838
vt 0.343118 0.810066
vt 0.001007 1.000838
vt 0.727381 0.655475
vt 0.341602 0.622852
vt 0.341602 0.655273
vt 0.727381 0.623302
vt 0.727381 0.687648
vt 0.341602 0.687695
vt 0.344336 0.689062
vt 0.399414 0.885156
vt 0.399414 0.689062
vt 0.344336 0.885156
vt 0.454492 0.885156
vt 0.454492 0.689062
vt 0.398165 0.91849
vt 0.399103 0.883686
vt 0.455921 0.883618
vt 0.398641 0.885249
vt 0.39864 0.919084
vt 0.454171 0.884633
vt 0.000119 0.741854
vt 0.34037 0.806898
vt 0.340647 0.741854
vt 0.00084 0.806898
vt 6.5E-05 0.678195
vt 0.340647 0.741854
vt 0.34037 0.678195
vt 0.000119 0.741854
vt 0.343566 0.885932
vt 0.396829 0.918697
vt 0.396897 0.885932
vt 0.398641 0.885249
vt 0.39864 0.919084
vt 0.454171 0.884633
vt 0.170383 0.741854
vt 0.34037 0.806898
vt 0.340647 0.741854
vt 0.170605 0.806898
vt 0.000119 0.741854
vt 0.00084 0.806898
vt 0.170217 0.678195
vt 0.340647 0.741854
vt 0.34037 0.678195
vt 0.170383 0.741854
vt 6.5E-05 0.678195
vt 0.000119 0.741854
vt 0.343566 0.885932
vt 0.396829 0.918697
vt 0.396897 0.885932
vt 0.534491 0.687671
vt 0.341602 0.655273
vt 0.341602 0.687695
vt 0.534491 0.655374
vt 0.341602 0.622852
vt 0.534491 0.623077
vt 0.172062 0.810066
vt 0.343118 1.000838
vt 0.343118 0.810066
vt 0.171143 0.485352
vt 0.341536 0.674862
vt 0.341797 0.485352
vt 0.000488 0.485352
vt 0.000293 0.674658
vt 0.170915 0.67476
vt 0.001007 0.810066
vt 0.001007 1.000838
vt 0.172062 1.000838
vt 0.727381 0.655475
vt 0.534491 0.623077
vt 0.534491 0.655374
vt 0.727381 0.623302
vt 0.727381 0.687648
vt 0.534491 0.687671
vn 0 1 0
vn 0 1 0
vn 0 1 0
vn 0 1 0
vn 0 1 0
vn 0 1 0
vn 0 1 0
vn 0 1 0
vn 1 0 0
vn 1 0 0
vn 1 0 0
vn 1 0 0
vn 1 0 0
vn 1 0 0
vn -1 0 0
vn -1 0 0
vn -1 0 0
vn -1 0 0
vn -1 0 0
vn -1 0 0
vn -1 0 0
vn -1 0 0
vn -1 0 0
vn 0 0 -1
vn 0 0.2512248 -0.9679288
vn 0 0 -1
vn 0 0.502449 -0.8646069
vn 1 0 0
vn 1 0 0
vn 1 0 0
vn 1 0 0
vn 1 0 0
vn 1 0 0
vn 0 0.2512239 0.967929
vn 0 0 1
vn 0 0.5024478 0.8646075
vn 0 0 1
vn 0 -1 0
vn 0 -1 0
vn 0 -1 0
vn 0 -1 0
vn 0 -1 0
vn 0 -1 0
vn -1 0 0
vn -1 0 0
vn -1 0 0
vn -1 0 0
vn -1 0 0
vn -1 0 0
vn -1 0 0
vn -1 0 0
vn -1 0 0
vn 0 -1 0
vn 0 -1 0
vn 0 -1 0
vn 0 -1 0
vn 0 -1 0
vn 0 -1 0
vn 0 0.2512239 0.967929
vn 0 0 1
vn 0 0.5024478 0.8646076
vn 0 0 1
vn 0 0 -1
vn 0 0.2512248 -0.9679288
vn 0 0 -1
vn 0 0.502449 -0.8646068
vn 1 0 0
vn 1 0 0
vn 1 0 0
vn 0 0.7035439 0.7106518
vn 0 0.5024478 0.8646075
vn 0 0.7035439 0.7106518
vn 0 0.2512239 0.967929
vn 0 0.502449 -0.8646069
vn 0 0.7035453 -0.7106504
vn 0 0.2512248 -0.9679288
vn 0 0.7035449 -0.7106507
vn 1 0 0
vn 1 0 0
vn 1 0 0
vn 1 0 0
vn 1 0 0
vn 1 0 0
vn 0 0.7035439 0.7106518
vn 0 0.5024478 0.8646076
vn 0 0.7035439 0.7106518
vn 0 0.2512239 0.967929
vn 0 0.502449 -0.8646068
vn 0 0.7035453 -0.7106504
vn 0 0.2512248 -0.9679288
vn 0 0.703545 -0.7106507
vn 1 0 0
vn 1 0 0
vn 1 0 0
vn 0 0 1
vn 0 0 1
vn 0 0 1
vn 0 0 1
vn 0 0 1
vn 0 0 1
vn 0 0 -1
vn 0 0 -1
vn 0 0 -1
vn 0 0 -1
vn 0 0 -1
vn 0 0 -1
vn 0 0 -1
vn 0 0 -1
vn 0 0 -1
vn 1 0 0
vn 0.9679288 0.2512246 0
vn 1 0 0
vn 0.864607 0.5024489 0
vn 0 0 1
vn 0 0 1
vn 0 0 1
vn 0 0 1
vn 0 0 1
vn 0 0 1
vn -0.967929 0.2512239 0
vn -1 0 0
vn -0.8646075 0.502448 0
vn -1 0 0
vn 0 -1 0
vn 0 -1 0
vn 0 -1 0
vn 0 -1 0
vn 0 -1 0
vn 0 -1 0
vn 0 0 -1
vn 0 0 -1
vn 0 0 -1
vn 0 0 -1
vn 0 0 -1
vn 0 0 -1
vn 0 0 -1
vn 0 0 -1
vn 0 0 -1
vn 0 0 1
vn 0 0 1
vn 0 0 1
vn -0.7106516 0.7035441 0
vn -0.8646075 0.502448 0
vn -0.7106515 0.7035443 0
vn -0.967929 0.2512239 0
vn 0.864607 0.5024489 0
vn 0.7106506 0.7035452 0
vn 0.9679288 0.2512246 0
vn 0.7106507 0.7035449 0
vn 0 0 1
vn 0 0 1
vn 0 0 1
vn 0 0 1
vn 0 0 1
vn 0 0 1
vn -0.7106517 0.703544 0
vn -0.8646075 0.502448 0
vn -0.7106515 0.7035443 0
vn -0.8905444 0.4548963 0
vn -0.7106518 0.7035439 0
vn -0.9248383 0.3803605 0
vn 0.8905438 0.4548975 0
vn 0.7106503 0.7035455 0
vn 0.9248379 0.3803616 0
vn 0.7106505 0.7035452 0
vn 0.864607 0.5024489 0
vn 0.7106507 0.7035449 0
vn 0 0 1
vn 0 0 1
vn 0 0 1
vn 0 -0.5999998 -0.8000001
vn 0 -0.5999998 -0.8000001
vn 0 -0.5999998 -0.8000001
vn 0 -0.5999998 -0.8000001
vn 0 -0.5999998 -0.8000001
vn 0 -0.5999998 -0.8000001
vn -0.8905444 0.4548963 0
vn -1 0 0
vn -0.8646075 0.502448 0
vn 0.8905438 0.4548975 0
vn 0.9248379 0.3803616 0
vn 1 0 0
vn 1 0 0
vn 0.864607 0.5024489 0
vn 0.8905438 0.4548975 0
vn -0.9248383 0.3803605 0
vn -1 0 0
vn -0.8905444 0.4548963 0
vn 0 -0.6000002 0.7999998
vn 0 -0.6000002 0.7999998
vn 0 -0.6000001 0.8
vn 0 -0.6000002 0.7999998
vn 0 -0.6000001 0.8
vn 0 -0.6000001 0.8
g default_0
f 3/3/3 2/2/2 1/1/1
f 2/2/2 4/4/4 1/1/1
f 7/7/7 6/6/6 5/5/5
f 6/6/6 8/8/8 5/5/5
f 11/11/11 10/10/10 9/9/9
f 10/10/10 12/12/12 9/9/9
f 9/9/9 13/13/13 11/11/11
f 13/13/13 14/14/14 11/11/11
f 17/17/17 16/16/16 15/15/15
f 16/16/16 18/18/18 15/15/15
f 15/15/15 18/18/18 19/19/19
f 18/18/18 20/20/20 19/19/19
f 18/18/18 21/21/21 20/20/20
f 23/23/23 21/21/21 22/22/22
f 26/26/26 25/25/25 24/24/24
f 25/25/25 27/27/27 24/24/24
f 30/30/30 29/29/29 28/28/28
f 29/29/29 31/31/31 28/28/28
f 29/29/29 32/32/32 31/31/31
f 32/32/32 33/33/33 31/31/31
f 36/36/36 35/35/35 34/34/34
f 35/35/35 37/37/37 34/34/34
f 40/40/40 39/39/39 38/38/38
f 39/39/39 41/41/41 38/38/38
f 38/38/38 42/42/42 40/40/40
f 42/42/42 43/43/43 40/40/40
f 46/46/46 45/45/45 44/44/44
f 45/45/45 47/47/47 44/44/44
f 48/48/48 45/45/45 46/46/46
f 49/49/49 48/48/48 46/46/46
f 45/45/45 50/50/50 47/47/47
f 52/52/52 50/50/50 51/51/51
f 55/55/55 54/54/54 53/53/53
f 54/54/54 56/56/56 53/53/53
f 54/54/54 57/57/57 56/56/56
f 57/57/57 58/58/58 56/56/56
f 61/61/61 60/60/60 59/59/59
f 60/60/60 62/62/62 59/59/59
f 65/65/65 64/64/64 63/63/63
f 64/64/64 66/66/66 63/63/63
f 69/69/69 68/68/68 67/67/67
f 72/72/72 71/71/71 70/70/70
f 71/71/71 73/73/73 70/70/70
f 76/76/76 75/75/75 74/74/74
f 75/75/75 77/77/77 74/74/74
f 80/80/80 79/79/79 78/78/78
f 83/83/83 82/82/82 81/81/81
f 86/86/86 85/85/85 84/84/84
f 85/85/85 87/87/87 84/84/84
f 90/90/90 89/89/89 88/88/88
f 89/89/89 91/91/91 88/88/88
f 94/94/94 93/93/93 92/92/92
f 97/97/97 96/96/96 95/95/95
f 96/96/96 98/98/98 95/95/95
f 95/95/95 99/99/99 97/97/97
f 99/99/99 100/100/100 97/97/97
f 103/103/103 102/102/102 101/101/101
f 102/102/102 104/104/104 101/101/101
f 101/101/101 104/104/104 105/105/105
f 104/104/104 106/106/106 105/105/105
f 104/104/104 107/107/107 106/106/106
f 109/109/109 107/107/107 108/108/108
f 112/112/112 111/111/111 110/110/110
f 111/111/111 113/113/113 110/110/110
f 116/116/116 115/115/115 114/114/114
f 115/115/115 117/117/117 114/114/114
f 115/115/115 118/118/118 117/117/117
f 118/118/118 119/119/119 117/117/117
f 122/122/122 121/121/121 120/120/120
f 121/121/121 123/123/123 120/120/120
f 126/126/126 125/125/125 124/124/124
f 125/125/125 127/127/127 124/124/124
f 124/124/124 128/128/128 126/126/126
f 128/128/128 129/129/129 126/126/126
f 132/132/132 131/131/131 130/130/130
f 131/131/131 133/133/133 130/130/130
f 134/134/134 131/131/131 132/132/132
f 135/135/135 134/134/134 132/132/132
f 131/131/131 136/136/136 133/133/133
f 138/138/138 136/136/136 137/137/137
f 141/141/141 140/140/140 139/139/139
f 144/144/144 143/143/143 142/142/142
f 143/143/143 145/145/145 142/142/142
f 148/148/148 147/147/147 146/146/146
f 147/147/147 149/149/149 146/146/146
f 152/152/152 151/151/151 150/150/150
f 155/155/155 154/154/154 153/153/153
f 158/158/158 157/157/157 156/156/156
f 157/157/157 159/159/159 156/156/156
f 156/156/156 159/159/159 160/160/160
f 159/159/159 161/161/161 160/160/160
f 164/164/164 163/163/163 162/162/162
f 163/163/163 165/165/165 162/162/162
f 162/162/162 165/165/165 166/166/166
f 165/165/165 167/167/167 166/166/166
f 170/170/170 169/169/169 168/168/168
f 173/173/173 172/172/172 171/171/171
f 172/172/172 174/174/174 171/171/171
f 172/172/172 175/175/175 174/174/174
f 175/175/175 176/176/176 174/174/174
f 179/179/179 178/178/178 177/177/177
f 182/182/182 181/181/181 180/180/180
f 185/185/185 184/184/184 183/183/183
f 188/188/188 187/187/187 186/186/186
f 191/191/191 190/190/190 189/189/189
f 190/190/190 192/192/192 189/189/189
f 191/191/191 189/189/189 193/193/193
f 194/194/194 191/191/191 193/193/193
