g default
v 91.73035 198.8752 -15.69032
v 123.5496 198.8752 -47.50963
v 123.5497 198.8752 -15.69032
v 91.73035 198.8752 -47.50963
v 75.14005 -209.4981 -64.10004
v 140.14 -209.4982 0.89996
v 140.14 -209.4981 -64.10004
v 75.14005 -209.4982 0.89996
v 141.3371 85.13078 -64.09996
v 140.14 -209.4982 0.89996
v 140.14 85.13078 0.900038
v 140.14 -209.4981 -64.10004
v 143.5382 92.83739 -66.30106
v 142.3411 92.83738 3.101139
v 142.3411 154.9346 -66.30104
v 142.3411 154.9346 3.10116
v 140.14 -209.4981 -64.10004
v 75.14005 85.13078 -64.09996
v 75.14005 -209.4981 -64.10004
v 141.3371 85.13078 -64.09996
v 72.93895 92.83739 -66.30106
v 143.5382 92.83739 -66.30106
v 72.93895 154.9346 -66.30104
v 142.3411 154.9346 -66.30104
v 75.14005 -209.4981 -64.10004
v 75.14005 85.13078 0.900038
v 75.14005 -209.4982 0.89996
v 75.14005 85.13078 -64.09996
v 72.93895 92.83738 3.101139
v 72.93895 92.83739 -66.30106
v 72.93895 154.9346 3.10116
v 72.93895 154.9346 -66.30104
v 140.14 85.13078 0.900038
v 75.14005 -209.4982 0.89996
v 75.14005 85.13078 0.900038
v 140.14 -209.4982 0.89996
v 142.3411 92.83738 3.101139
v 72.93895 92.83738 3.101139
v 142.3411 154.9346 3.10116
v 72.93895 154.9346 3.10116
v 137.5582 158.3446 -60.32104
v 142.3411 154.9346 3.10116
v 136.3611 158.3446 -2.878838
v 142.3411 154.9346 -66.30104
v 142.3411 154.9346 3.10116
v 78.91895 158.3446 -60.32104
v 142.3411 154.9346 -66.30104
v 137.5582 158.3446 -60.32104
v 72.93895 154.9346 -66.30104
v 78.91895 158.3446 -2.878838
v 72.93895 154.9346 -66.30104
v 78.91895 158.3446 -60.32104
v 72.93895 154.9346 3.10116
v 136.3611 158.3446 -2.878838
v 72.93895 154.9346 3.10116
v 78.91895 158.3446 -2.878838
v 142.3411 154.9346 3.10116
v 136.3611 175.4288 -60.32103
v 136.3611 158.3446 -2.878838
v 136.3611 175.4288 -2.878831
v 123.5496 198.8752 -47.50963
v 123.5497 198.8752 -15.69032
v 137.5582 158.3446 -60.32104
v 136.3611 158.3446 -2.878838
v 78.91895 175.4288 -60.32103
v 137.5582 158.3446 -60.32104
v 136.3611 175.4288 -60.32103
v 78.91895 158.3446 -60.32104
v 91.73035 198.8752 -47.50963
v 123.5496 198.8752 -47.50963
v 78.91895 175.4288 -2.878831
v 78.91895 158.3446 -60.32104
v 78.91895 175.4288 -60.32103
v 78.91895 158.3446 -2.878838
v 91.73035 198.8752 -15.69032
v 91.73035 198.8752 -47.50963
v 136.3611 175.4288 -2.878831
v 78.91895 158.3446 -2.878838
v 78.91895 175.4288 -2.878831
v 136.3611 158.3446 -2.878838
v 123.5497 198.8752 -15.69032
v 91.73035 198.8752 -15.69032
vt 0.810732 0.172525
vt 1.000081 0.321205
vt 1.000081 0.173903
vt 0.810735 0.319828
vt 1 0.159037
vt 0.810944 0
vt 0.810944 0.159037
vt 1 0
vt 0.400759 0.719832
vt 0.211524 0
vt 0.211679 0.719935
vt 0.400572 4.7E-05
vt 0.407225 0.73839
vt 0.205341 0.738489
vt 0.407225 0.890276
vt 0.205374 0.890225
vt 0.009884 0
vt 0.198939 0.720231
vt 0.198939 0
vt 0.006402 0.720231
vt 0.205341 0.738842
vt 0 0.738842
vt 0.205341 0.890641
vt 0.003482 0.890641
vt 0.413627 0
vt 0.602683 0.720231
vt 0.602683 0
vt 0.413627 0.720231
vt 0.609085 0.738842
vt 0.407225 0.738842
vt 0.609085 0.890641
vt 0.407225 0.890641
vt 0.804542 0.720231
vt 0.615486 0
vt 0.615487 0.720231
vt 0.804542 0
vt 0.810944 0.738842
vt 0.609085 0.738842
vt 0.810944 0.890641
vt 0.609085 0.890641
vt 0.389704 0.899202
vt 0.205374 0.890225
vt 0.222605 0.89931
vt 0.407225 0.890276
vt 0.205374 0.890225
vt 0.187948 0.899595
vt 0.003482 0.890641
vt 0.017393 0.899595
vt 0.205341 0.890641
vt 0.591691 0.899596
vt 0.407225 0.890641
vt 0.424618 0.899596
vt 0.609085 0.890641
vt 0.793551 0.899595
vt 0.609085 0.890641
vt 0.626478 0.899596
vt 0.810944 0.890641
vt 0.38968 0.941097
vt 0.222605 0.89931
vt 0.222614 0.941056
vt 0.352083 0.999982
vt 0.259539 0.999958
vt 0.389704 0.899202
vt 0.222605 0.89931
vt 0.187948 0.941358
vt 0.017393 0.899595
vt 0.020875 0.941358
vt 0.187948 0.899595
vt 0.150686 1
vt 0.058138 1
vt 0.591691 0.941359
vt 0.424618 0.899596
vt 0.424618 0.941359
vt 0.591691 0.899596
vt 0.554429 1
vt 0.461881 1
vt 0.793551 0.941358
vt 0.626478 0.899596
vt 0.626478 0.941358
vt 0.793551 0.899595
vt 0.756289 1
vt 0.66374 1
vn 0 1 0
vn 0 1 0
vn 0 1 0
vn 0 1 0
vn 0 -1 0
vn 0 -1 0
vn 0 -1 0
vn 0 -1 0
vn 0.9956779 -0.09207689 0.01214716
vn 0.9999555 -0.002031533 0.009206939
vn 0.9826657 -0.184538 0.0177199
vn 0.9999918 -0.004062881 0
vn 0.983827 -0.1782793 0.01734779
vn 0.9961086 -0.08739748 0.01137635
vn 0.9515595 0.3073988 0.006359025
vn 0.8889642 0.4579765 0
vn 0 0 -1
vn 0 -0.09233548 -0.995728
vn 0 0 -1
vn 0 -0.1846712 -0.9828004
vn 0 -0.1846712 -0.9828004
vn 0 -0.09233549 -0.995728
vn 0 0 -1
vn 0 0 -1
vn -1 0 0
vn -0.995728 -0.09233564 0
vn -1 0 0
vn -0.9828004 -0.1846713 0
vn -0.9828004 -0.1846713 0
vn -0.995728 -0.09233566 0
vn -1 0 0
vn -1 0 0
vn 0 -0.09233604 0.9957279
vn 0 0 1
vn 0 -0.1846718 0.9828002
vn 0 0 1
vn 0 -0.1846718 0.9828002
vn 0 -0.09233607 0.9957279
vn 0 0 1
vn 0 0 1
vn 0.6123697 0.7784895 -0.1376856
vn 0.3793307 0.9076784 0.1795224
vn 0.4597507 0.8298075 0.3163048
vn 0.6843593 0.6818988 -0.2581987
vn 0.621722 0.7683541 0.1519666
vn -0.174932 0.920323 -0.3498634
vn 0.207468 0.9119183 -0.3540649
vn 0.3798132 0.908833 -0.1725235
vn -0.3498638 0.9203229 -0.1749316
vn -0.3498638 0.9203228 0.174932
vn -0.3498638 0.9203229 -0.1749316
vn -0.174932 0.920323 -0.3498634
vn -0.1749318 0.9203228 0.3498637
vn 0.1718327 0.9198307 0.3526824
vn -0.1749318 0.9203228 0.3498637
vn -0.3498638 0.9203228 0.174932
vn 0.3793307 0.9076784 0.1795224
vn 0.9822013 0.1876969 0.007100821
vn 0.9993344 0.03496392 0.01039882
vn 0.944421 0.3287384 0
vn 0.8775414 0.4795009 0
vn 0.8775424 0.479499 0
vn 0.7616265 0.6479159 0.01141107
vn 0.9348981 0.3547251 0.01164253
vn 0 0.1643691 -0.9863988
vn 0 0 -1
vn 0 0.3287379 -0.9444212
vn 0 0 -1
vn 0 0.4795002 -0.8775418
vn 0 0.4795001 -0.8775418
vn -0.9863989 0.1643689 0
vn -1 0 0
vn -0.9444212 0.3287378 0
vn -1 0 0
vn -0.8775418 0.4795 0
vn -0.8775419 0.4795 0
vn 0 0.1643696 0.9863988
vn 0 0 1
vn 0 0.3287396 0.9444206
vn 0 0 1
vn 0 0.4795027 0.8775404
vn 0 0.4795027 0.8775404
g default_0
f 3/3/3 2/2/2 1/1/1
f 2/2/2 4/4/4 1/1/1
f 7/7/7 6/6/6 5/5/5
f 6/6/6 8/8/8 5/5/5
f 11/11/11 10/10/10 9/9/9
f 10/10/10 12/12/12 9/9/9
f 11/11/11 9/9/9 13/13/13
f 14/14/14 11/11/11 13/13/13
f 14/14/14 13/13/13 15/15/15
f 16/16/16 14/14/14 15/15/15
f 19/19/19 18/18/18 17/17/17
f 18/18/18 20/20/20 17/17/17
f 20/20/20 18/18/18 21/21/21
f 22/22/22 20/20/20 21/21/21
f 22/22/22 21/21/21 23/23/23
f 24/24/24 22/22/22 23/23/23
f 27/27/27 26/26/26 25/25/25
f 26/26/26 28/28/28 25/25/25
f 28/28/28 26/26/26 29/29/29
f 30/30/30 28/28/28 29/29/29
f 30/30/30 29/29/29 31/31/31
f 32/32/32 30/30/30 31/31/31
f 35/35/35 34/34/34 33/33/33
f 34/34/34 36/36/36 33/33/33
f 35/35/35 33/33/33 37/37/37
f 38/38/38 35/35/35 37/37/37
f 38/38/38 37/37/37 39/39/39
f 40/40/40 38/38/38 39/39/39
f 43/43/43 42/42/42 41/41/41
f 45/45/45 44/44/44 41/41/41
f 48/48/48 47/47/47 46/46/46
f 47/47/47 49/49/49 46/46/46
f 52/52/52 51/51/51 50/50/50
f 51/51/51 53/53/53 50/50/50
f 56/56/56 55/55/55 54/54/54
f 55/55/55 57/57/57 54/54/54
f 60/60/60 59/59/59 58/58/58
f 60/60/60 58/58/58 61/61/61
f 62/62/62 60/60/60 61/61/61
f 64/64/64 63/63/63 58/58/58
f 67/67/67 66/66/66 65/65/65
f 66/66/66 68/68/68 65/65/65
f 67/67/67 65/65/65 69/69/69
f 70/70/70 67/67/67 69/69/69
f 73/73/73 72/72/72 71/71/71
f 72/72/72 74/74/74 71/71/71
f 73/73/73 71/71/71 75/75/75
f 76/76/76 73/73/73 75/75/75
f 79/79/79 78/78/78 77/77/77
f 78/78/78 80/80/80 77/77/77
f 79/79/79 77/77/77 81/81/81
f 82/82/82 79/79/79 81/81/81
