g grass_002
v -0.02564705 -0.0007442459 0.04643229
v 0.01187806 -0.000744231 -0.05100986
v 0.02321014 0.04844167 0.00998058
v -0.02564705 -0.0007442459 0.04643229
v 0.02321014 0.04844167 0.00998058
v 0.01187806 -0.000744231 -0.05100986
v -0.04627495 -0.0007442295 -0.02250131
v 0.05109303 -0.000744243 0.04120401
v -0.01796505 0.03722524 0.02773069
v -0.04627495 -0.0007442295 -0.02250131
v -0.01796505 0.03722524 0.02773069
v 0.05109303 -0.000744243 0.04120401
v 0.002384036 -0.0007442295 -0.05501531
v -0.01469404 -0.0007442504 0.05670612
v -0.03693658 0.04301405 0.002159999
v 0.002384036 -0.0007442295 -0.05501531
v -0.01469404 -0.0007442504 0.05670612
v 0.01072847 -0.000744225 -0.05190954
v -0.002055762 -0.0007442474 0.06010738
v 0.03645762 0.02882143 0.00607487
v 0.01072847 -0.000744225 -0.05190954
v 0.03645762 0.02882143 0.00607487
v -0.002055762 -0.0007442474 0.06010738
v 0.06104808 -0.0007442385 0.006862531
v -0.06512108 -0.0007442374 0.01313311
v -0.004881788 0.04906135 0.02436686
v 0.06104808 -0.0007442385 0.006862531
v -0.004881788 0.04906135 0.02436686
v -0.06512108 -0.0007442374 0.01313311
v 0.05825036 -0.0007442377 0.003303236
v -0.05040114 -0.0007442348 -0.00927477
v 0.008064116 0.04915305 -0.02179527
v 0.05825036 -0.0007442377 0.003303236
v 0.008064116 0.04915305 -0.02179527
v -0.05040114 -0.0007442348 -0.00927477
v 0.04704626 -0.0007442333 -0.01831657
v -0.05927891 -0.0007442351 0.003239705
v -0.01453388 0.04187614 -0.03625428
v 0.04704626 -0.0007442333 -0.01831657
v -0.01453388 0.04187614 -0.03625428
v -0.05927891 -0.0007442351 0.003239705
v -0.007106216 -0.00074424 0.04254337
v -0.03041356 -0.000744231 -0.02771741
v -0.04863318 0.03247542 0.01807138
v -0.007106216 -0.00074424 0.04254337
v -0.04863318 0.03247542 0.01807138
v -0.03041356 -0.000744231 -0.02771741
v 0.04326312 -0.0007442385 0.01911421
v -0.04300123 -0.0007442385 0.01548825
v 0.001633622 0.03799123 0.04839245
v 0.04326312 -0.0007442385 0.01911421
v 0.001633622 0.03799123 0.04839245
v 0.0004800386 -0.0007442266 -0.03928873
v 0.02822317 -0.00074424 0.02982792
v 0.03726413 0.03209741 -0.01479743
v 0.0004800386 -0.0007442266 -0.03928873
v 0.03726413 0.03209741 -0.01479743
v 0.02822317 -0.00074424 0.02982792
v -0.04085254 -0.0007442295 -0.02825943
v 0.04354004 -0.0007442342 -0.01083002
v 0.008782258 0.03303476 -0.04593904
v -0.04085254 -0.0007442295 -0.02825943
v 0.008782258 0.03303476 -0.04593904
v 0.04354004 -0.0007442342 -0.01083002
v 0.0387314 -0.0007442344 -0.01247314
v -0.01280443 -0.000744243 0.04625352
v 0.03476375 0.0325165 0.03309341
v 0.0387314 -0.0007442344 -0.01247314
v 0.03476375 0.0325165 0.03309341
v -0.01280443 -0.000744243 0.04625352
v -0.04019577 -0.0007442377 0.01273141
v 0.008507309 -0.0007442266 -0.04767371
v -0.03748195 0.03706923 -0.03275378
v -0.04019577 -0.0007442377 0.01273141
v -0.03748195 0.03706923 -0.03275378
v 0.008507309 -0.0007442266 -0.04767371
vt 1.104524 0.354745
vt -0.155919 0.354745
vt 0.467863 1.053123
vt 1.104524 0.354745
vt 0.467863 1.053123
vt -0.155919 0.354745
vt 1.104524 0.354745
vt -0.155919 0.354745
vt 0.467863 1.053123
vt 1.104524 0.354745
vt 0.467863 1.053123
vt -0.155919 0.354745
vt 1.104524 0.354745
vt -0.155919 0.354745
vt 0.467863 1.053123
vt 1.104524 0.354745
vt -0.155919 0.354745
vt 1.104524 0.354745
vt -0.155919 0.354745
vt 0.467863 1.053123
vt 1.104524 0.354745
vt 0.467863 1.053123
vt -0.155919 0.354745
vt 1.104524 0.354745
vt -0.155919 0.354745
vt 0.467863 1.053123
vt 1.104524 0.354745
vt 0.467863 1.053123
vt -0.155919 0.354745
vt 1.104524 0.354745
vt -0.155919 0.354745
vt 0.467863 1.053123
vt 1.104524 0.354745
vt 0.467863 1.053123
vt -0.155919 0.354745
vt 1.104524 0.354745
vt -0.155919 0.354745
vt 0.467863 1.053123
vt 1.104524 0.354745
vt 0.467863 1.053123
vt -0.155919 0.354745
vt 1.104524 0.354745
vt -0.155919 0.354745
vt 0.467863 1.053123
vt 1.104524 0.354745
vt 0.467863 1.053123
vt -0.155919 0.354745
vt 1.104524 0.354745
vt -0.155919 0.354745
vt 0.467863 1.053123
vt 1.104524 0.354745
vt 0.467863 1.053123
vt 1.104524 0.354745
vt -0.155919 0.354745
vt 0.467863 1.053123
vt 1.104524 0.354745
vt 0.467863 1.053123
vt -0.155919 0.354745
vt 1.104524 0.354745
vt -0.155919 0.354745
vt 0.467863 1.053123
vt 1.104524 0.354745
vt 0.467863 1.053123
vt -0.155919 0.354745
vt 1.104524 0.354745
vt -0.155919 0.354745
vt 0.467863 1.053123
vt 1.104524 0.354745
vt 0.467863 1.053123
vt -0.155919 0.354745
vt 1.104524 0.354745
vt -0.155919 0.354745
vt 0.467863 1.053123
vt 1.104524 0.354745
vt 0.467863 1.053123
vt -0.155919 0.354745
vn -0.7786286 0.5512051 -0.2998508
vn -0.7786286 0.5512051 -0.2998508
vn -0.7786286 0.5512051 -0.2998508
vn 0.7786286 -0.5512051 0.2998508
vn 0.7786286 -0.5512051 0.2998508
vn 0.7786286 -0.5512051 0.2998508
vn 0.4487731 0.5728264 -0.68591
vn 0.4487731 0.5728264 -0.68591
vn 0.4487731 0.5728264 -0.68591
vn -0.4487731 -0.5728264 0.68591
vn -0.4487731 -0.5728264 0.68591
vn -0.4487731 -0.5728264 0.68591
vn 0.8133138 0.568387 0.1243257
vn 0.8133138 0.568387 0.1243257
vn 0 1 0
vn -0.8133138 -0.568387 -0.1243257
vn -0.8133138 -0.568387 -0.1243257
vn 0.6726723 -0.7359472 0.07677042
vn 0.6726723 -0.7359472 0.07677042
vn 0.6726723 -0.7359472 0.07677042
vn -0.6726723 0.7359472 -0.07677042
vn -0.6726723 0.7359472 -0.07677042
vn -0.6726723 0.7359472 -0.07677042
vn 0.04773366 -0.2743628 0.9604408
vn 0.04773366 -0.2743628 0.9604408
vn 0.04773366 -0.2743628 0.9604408
vn -0.04773366 0.2743628 -0.9604408
vn -0.04773366 0.2743628 -0.9604408
vn -0.04773366 0.2743628 -0.9604408
vn -0.1073536 0.3584818 0.9273435
vn -0.1073536 0.3584818 0.9273435
vn -0.1073536 0.3584818 0.9273435
vn 0.1073536 -0.3584818 -0.9273435
vn 0.1073536 -0.3584818 -0.9273435
vn 0.1073536 -0.3584818 -0.9273435
vn 0.1628118 0.5732245 0.8030605
vn 0.1628118 0.5732245 0.8030605
vn 0.1628118 0.5732245 0.8030605
vn -0.1628118 -0.5732245 -0.8030605
vn -0.1628118 -0.5732245 -0.8030605
vn -0.1628118 -0.5732245 -0.8030605
vn -0.6865645 -0.6904771 0.2277514
vn -0.6865645 -0.6904771 0.2277514
vn -0.6865645 -0.6904771 0.2277514
vn 0.6865645 0.6904771 -0.2277514
vn 0.6865645 0.6904771 -0.2277514
vn 0.6865645 0.6904771 -0.2277514
vn -0.03278831 -0.6248465 0.7800589
vn 0 1 0
vn -0.03278831 -0.6248465 0.7800589
vn 0.03278831 0.6248465 -0.7800589
vn 0.03278831 0.6248465 -0.7800589
vn 0.738278 -0.6059102 -0.2963418
vn 0.738278 -0.6059102 -0.2963418
vn 0.738278 -0.6059102 -0.2963418
vn -0.738278 0.6059102 0.2963418
vn -0.738278 0.6059102 0.2963418
vn -0.738278 0.6059102 0.2963418
vn 0.1571858 -0.6293151 -0.7610882
vn 0.1571858 -0.6293151 -0.7610882
vn 0.1571858 -0.6293151 -0.7610882
vn -0.1571858 0.6293151 0.7610882
vn -0.1571858 0.6293151 0.7610882
vn -0.1571858 0.6293151 0.7610882
vn 0.5829279 -0.6312773 0.5115507
vn 0.5829279 -0.6312773 0.5115507
vn 0.5829279 -0.6312773 0.5115507
vn -0.5829279 0.6312773 -0.5115507
vn -0.5829279 0.6312773 -0.5115507
vn -0.5829279 0.6312773 -0.5115507
vn -0.6380132 -0.5729904 -0.5144135
vn -0.6380132 -0.5729904 -0.5144135
vn -0.6380132 -0.5729904 -0.5144135
vn 0.6380132 0.5729904 0.5144135
vn 0.6380132 0.5729904 0.5144135
vn 0.6380132 0.5729904 0.5144135
g grass_002_0
f 3/3/3 2/2/2 1/1/1
f 6/6/6 5/5/5 4/4/4
f 9/9/9 8/8/8 7/7/7
f 12/12/12 11/11/11 10/10/10
f 15/15/15 14/14/14 13/13/13
f 17/17/17 15/15/15 16/16/16
f 20/20/20 19/19/19 18/18/18
f 23/23/23 22/22/22 21/21/21
f 26/26/26 25/25/25 24/24/24
f 29/29/29 28/28/28 27/27/27
f 32/32/32 31/31/31 30/30/30
f 35/35/35 34/34/34 33/33/33
f 38/38/38 37/37/37 36/36/36
f 41/41/41 40/40/40 39/39/39
f 44/44/44 43/43/43 42/42/42
f 47/47/47 46/46/46 45/45/45
f 50/50/50 49/49/49 48/48/48
f 49/49/49 52/52/52 51/51/51
f 55/55/55 54/54/54 53/53/53
f 58/58/58 57/57/57 56/56/56
f 61/61/61 60/60/60 59/59/59
f 64/64/64 63/63/63 62/62/62
f 67/67/67 66/66/66 65/65/65
f 70/70/70 69/69/69 68/68/68
f 73/73/73 72/72/72 71/71/71
f 76/76/76 75/75/75 74/74/74
