g group21_pCylinder3_group22
v -1.5401 11.5549 14.9618
v 0.6514 7.6361 -12.5185
v -0.0681 10.9516 15.0503
v -1.5401 8.5343 -12.6502
v -3.0121 10.9516 15.0503
v -1.5401 8.5343 -12.6502
v -1.5401 11.5549 14.9618
v -3.7316 7.6361 -12.5185
v -3.6218 9.4952 15.2638
v -3.7316 7.6361 -12.5185
v -3.0121 10.9516 15.0503
v -4.6393 5.4678 -12.2005
v -3.0121 8.0388 15.4774
v -3.7316 3.2995 -11.8826
v -1.5401 7.4355 15.5659
v -3.7316 3.2995 -11.8826
v -3.0121 8.0388 15.4774
v -1.5401 2.4013 -11.7509
v -0.0681 8.0388 15.4774
v -1.5401 2.4013 -11.7509
v -1.5401 7.4355 15.5659
v 0.6514 3.2995 -11.8826
v 0.5416 9.4952 15.2638
v 0.6514 3.2995 -11.8826
v -0.0681 8.0388 15.4774
v 1.5592 5.4678 -12.2005
v -0.0681 10.9516 15.0503
v 0.6514 7.6361 -12.5185
v -0.0298 3.5627 -14.7829
v 0.5958 5.057 -15.002
v -0.0298 6.5513 -15.2211
v -1.5401 2.9438 -14.6921
v -1.5401 7.1702 -15.3119
v -3.0503 3.5627 -14.7829
v -3.0503 6.5513 -15.2211
v -3.6759 5.057 -15.002
v -0.0681 10.9516 15.0503
v 0.5416 9.4952 15.2638
v -0.0681 8.0388 15.4774
v -1.5401 11.5549 14.9618
v -1.5401 7.4355 15.5659
v -3.0121 10.9516 15.0503
v -3.0121 8.0388 15.4774
v -3.6218 9.4952 15.2638
v -0.0298 6.5513 -15.2211
v -1.5401 8.5343 -12.6502
v -1.5401 7.1702 -15.3119
v 0.6514 7.6361 -12.5185
v -1.5401 7.1702 -15.3119
v -3.7316 7.6361 -12.5185
v -3.0503 6.5513 -15.2211
v -1.5401 8.5343 -12.6502
v -3.0503 6.5513 -15.2211
v -4.6393 5.4678 -12.2005
v -3.6759 5.057 -15.002
v -3.7316 7.6361 -12.5185
v -3.6759 5.057 -15.002
v -3.7316 3.2995 -11.8826
v -3.0503 3.5627 -14.7829
v -4.6393 5.4678 -12.2005
v -3.0503 3.5627 -14.7829
v -1.5401 2.4013 -11.7509
v -1.5401 2.9438 -14.6921
v -1.5401 2.9438 -14.6921
v 0.6514 3.2995 -11.8826
v -0.0298 3.5627 -14.7829
v -1.5401 2.4013 -11.7509
v -0.0298 3.5627 -14.7829
v 1.5592 5.4678 -12.2005
v 0.5958 5.057 -15.002
v 0.6514 3.2995 -11.8826
v 0.5958 5.057 -15.002
v 0.6514 7.6361 -12.5185
v -0.0298 6.5513 -15.2211
v 1.5592 5.4678 -12.2005
vt 0.9601 0.503
vt 0.043 0.6174
vt 0.9601 0.6172
vt 0.043 0.5032
vt 0.9601 0.503
vt 0.043 0.6174
vt 0.9601 0.6172
vt 0.043 0.5032
vt 0.0083 0.1717
vt 0.9548 0.2625
vt 0.0083 0.2453
vt 0.9548 0.1689
vt 0.0083 0.1107
vt 0.9548 0.0895
vt 0.9601 0.6172
vt 0.043 0.5032
vt 0.9601 0.503
vt 0.043 0.6174
vt 0.9601 0.503
vt 0.043 0.6174
vt 0.9601 0.6172
vt 0.043 0.5032
vt 0.0083 0.1717
vt 0.9548 0.0895
vt 0.0083 0.1107
vt 0.9548 0.1689
vt 0.0083 0.2453
vt 0.9548 0.2625
vt 0.7306 0.4006
vt 0.7433 0.3457
vt 0.7206 0.2847
vt 0.6656 0.4209
vt 0.6656 0.2679
vt 0.6066 0.4006
vt 0.6081 0.2907
vt 0.5879 0.3457
vt 0.8687 0.3844
vt 0.8841 0.3474
vt 0.8687 0.3103
vt 0.8317 0.3997
vt 0.8317 0.295
vt 0.7947 0.3844
vt 0.7947 0.3103
vt 0.7793 0.3474
vt 0.5838 0.4213
vt 0.4357 0.2717
vt 0.4357 0.4213
vt 0.5838 0.2717
vt 0.5838 0.4213
vt 0.4357 0.2717
vt 0.4357 0.4213
vt 0.5838 0.2717
vt 0.5838 0.4213
vt 0.4354 0.2717
vt 0.5838 0.2717
vt 0.4354 0.4213
vt 0.5838 0.4213
vt 0.4354 0.2717
vt 0.5838 0.2717
vt 0.4354 0.4213
vt 0.4357 0.4213
vt 0.5838 0.2717
vt 0.5838 0.4213
vt 0.4357 0.4213
vt 0.5838 0.2717
vt 0.5838 0.4213
vt 0.4357 0.2717
vt 0.5838 0.2717
vt 0.4354 0.4213
vt 0.5838 0.4213
vt 0.4354 0.2717
vt 0.5838 0.2717
vt 0.4354 0.4213
vt 0.5838 0.4213
vt 0.4354 0.2717
vn 0.1366916 0.9847388 -0.1077251
vn 0.6972975 0.6732058 -0.2461106
vn 0.7966505 0.6022308 -0.05163383
vn -0.003185803 0.9576741 -0.2878373
vn -0.6033632 0.793476 -0.07967877
vn -0.003185803 0.9576741 -0.2878373
vn 0.1366916 0.9847388 -0.1077251
vn -0.7017999 0.6687464 -0.2454692
vn -0.9899507 0.1404968 0.0160735
vn -0.7017999 0.6687464 -0.2454692
vn -0.6033632 0.793476 -0.07967877
vn -0.9893034 -0.02430038 -0.1438342
vn -0.796659 -0.5916895 0.1234424
vn -0.6973065 -0.7155133 -0.04247752
vn -0.1366916 -0.9742085 0.1795364
vn -0.6973065 -0.7155133 -0.04247752
vn -0.796659 -0.5916895 0.1234424
vn 0.003185226 -0.9999946 -0.0007702119
vn 0.6033641 -0.782945 0.1514888
vn 0.003185226 -0.9999946 -0.0007702119
vn -0.1366916 -0.9742085 0.1795364
vn 0.7017877 -0.7110797 -0.04312405
vn 0.9899489 -0.1299789 0.05573858
vn 0.7017877 -0.7110797 -0.04312405
vn 0.6033641 -0.782945 0.1514888
vn 0.9893041 -0.01801685 -0.1447506
vn 0.7966505 0.6022308 -0.05163383
vn 0.6972975 0.6732058 -0.2461106
vn -1.794515E-05 -0.1450727 -0.989421
vn 0 -0.1450727 -0.989421
vn 0 -0.1450811 -0.9894198
vn 0 -0.1450894 -0.9894186
vn 0 -0.1450895 -0.9894186
vn 0 -0.1450811 -0.9894198
vn -1.795779E-05 -0.1450727 -0.989421
vn 0 -0.1450727 -0.989421
vn 2.755567E-05 0.1450775 0.9894203
vn 8.125012E-05 0.1450775 0.9894203
vn 2.453128E-05 0.1450836 0.9894193
vn 0 0.1450897 0.9894186
vn 0 0.1450897 0.9894186
vn -2.963547E-05 0.1450836 0.9894195
vn -5.369446E-05 0.1450775 0.9894203
vn -8.125012E-05 0.1450775 0.9894203
vn 0.5721177 0.7010865 -0.425628
vn -0.003185803 0.9576741 -0.2878373
vn -0.1296225 0.8824309 -0.4522319
vn 0.6972975 0.6732058 -0.2461106
vn -0.1296225 0.8824309 -0.4522319
vn -0.7017999 0.6687464 -0.2454692
vn -0.7554181 0.5197255 -0.3990349
vn -0.003185803 0.9576741 -0.2878373
vn -0.7554181 0.5197255 -0.3990349
vn -0.9893034 -0.02430038 -0.1438342
vn -0.9387141 -0.1745688 -0.2972229
vn -0.7017999 0.6687464 -0.2454692
vn -0.9387141 -0.1745688 -0.2972229
vn -0.6973065 -0.7155133 -0.04247752
vn -0.5721183 -0.7937652 -0.2064399
vn -0.9893034 -0.02430038 -0.1438342
vn -0.5721183 -0.7937652 -0.2064399
vn 0.003185226 -0.9999946 -0.0007702119
vn 0.1296093 -0.9751198 -0.1798414
vn 0.1296093 -0.9751198 -0.1798414
vn 0.7017877 -0.7110797 -0.04312405
vn 0.7554082 -0.6124278 -0.2330038
vn 0.003185226 -0.9999946 -0.0007702119
vn 0.7554082 -0.6124278 -0.2330038
vn 0.9893041 -0.01801685 -0.1447506
vn 0.9387146 0.0819058 -0.3348228
vn 0.7017877 -0.7110797 -0.04312405
vn 0.9387146 0.0819058 -0.3348228
vn 0.6972975 0.6732058 -0.2461106
vn 0.5721177 0.7010865 -0.425628
vn 0.9893041 -0.01801685 -0.1447506
g group21_pCylinder3_group22_0
f 3/3/3 2/2/2 1/1/1
f 2/2/2 4/4/4 1/1/1
f 7/7/7 6/6/6 5/5/5
f 6/6/6 8/8/8 5/5/5
f 11/11/11 10/10/10 9/9/9
f 10/10/10 12/12/12 9/9/9
f 9/9/9 12/12/12 13/13/13
f 12/12/12 14/14/14 13/13/13
f 17/17/17 16/16/16 15/15/15
f 16/16/16 18/18/18 15/15/15
f 21/21/21 20/20/20 19/19/19
f 20/20/20 22/22/22 19/19/19
f 25/25/25 24/24/24 23/23/23
f 24/24/24 26/26/26 23/23/23
f 23/23/23 26/26/26 27/27/27
f 26/26/26 28/28/28 27/27/27
f 31/31/31 30/30/30 29/29/29
f 29/29/29 32/32/32 31/31/31
f 32/32/32 33/33/33 31/31/31
f 32/32/32 34/34/34 33/33/33
f 34/34/34 35/35/35 33/33/33
f 34/34/34 36/36/36 35/35/35
f 39/39/39 38/38/38 37/37/37
f 37/37/37 40/40/40 39/39/39
f 40/40/40 41/41/41 39/39/39
f 40/40/40 42/42/42 41/41/41
f 42/42/42 43/43/43 41/41/41
f 42/42/42 44/44/44 43/43/43
f 47/47/47 46/46/46 45/45/45
f 46/46/46 48/48/48 45/45/45
f 51/51/51 50/50/50 49/49/49
f 50/50/50 52/52/52 49/49/49
f 55/55/55 54/54/54 53/53/53
f 54/54/54 56/56/56 53/53/53
f 59/59/59 58/58/58 57/57/57
f 58/58/58 60/60/60 57/57/57
f 62/62/62 58/58/58 61/61/61
f 63/63/63 62/62/62 61/61/61
f 66/66/66 65/65/65 64/64/64
f 65/65/65 67/67/67 64/64/64
f 70/70/70 69/69/69 68/68/68
f 69/69/69 71/71/71 68/68/68
f 74/74/74 73/73/73 72/72/72
f 73/73/73 75/75/75 72/72/72
