g group11_group12_group14_group13_pCylinder2
v -34.8756 4.8231 -18.3534
v -32.6908 3.0116 -17.5875
v -32.1229 4.8231 -18.3534
v -34.3076 3.0116 -17.5875
v -36.252 4.5286 -15.9877
v -34.3076 3.0116 -17.5875
v -34.8756 4.8231 -18.3534
v -35.116 2.8387 -16.198
v -34.8756 4.2342 -13.622
v -35.116 2.8387 -16.198
v -36.252 4.5286 -15.9877
v -34.3076 2.6657 -14.8086
v -32.1229 4.2342 -13.622
v -34.3076 2.6657 -14.8086
v -34.8756 4.2342 -13.622
v -32.6908 2.6657 -14.8086
v -30.7465 4.5286 -15.9877
v -32.6908 2.6657 -14.8086
v -32.1229 4.2342 -13.622
v -31.8824 2.8387 -16.198
v -32.1229 4.8231 -18.3534
v -31.8824 2.8387 -16.198
v -30.7465 4.5286 -15.9877
v -32.6908 3.0116 -17.5875
v -36.252 4.5286 -15.9877
v -34.8756 4.8231 -18.3534
v -32.1229 4.8231 -18.3534
v -30.7465 4.5286 -15.9877
v -34.8756 4.2342 -13.622
v -32.1229 4.2342 -13.622
vt 0.441 0.4205
vt 0.5847 0.2721
vt 0.5847 0.4205
vt 0.441 0.2721
vt 0.441 0.4205
vt 0.5847 0.2721
vt 0.5847 0.4205
vt 0.441 0.2721
vt 0.441 0.4205
vt 0.5847 0.2721
vt 0.5847 0.4205
vt 0.441 0.2721
vt 0.5847 0.4205
vt 0.441 0.2721
vt 0.441 0.4205
vt 0.5847 0.2721
vt 0.5847 0.4205
vt 0.441 0.2721
vt 0.441 0.4205
vt 0.5847 0.2721
vt 0.5847 0.4205
vt 0.441 0.2721
vt 0.441 0.4205
vt 0.5847 0.2721
vt 0.7451 0.3441
vt 0.7876 0.4178
vt 0.8727 0.4178
vt 0.9139 0.3441
vt 0.7876 0.2726
vt 0.8727 0.2726
vn -0.2738114 -0.4461065 -0.8520659
vn 0.2738283 -0.4460968 -0.8520656
vn 0.5476413 -0.4656206 -0.695188
vn -0.5476243 -0.46565 -0.6951818
vn -0.821435 -0.5242357 -0.2245475
vn -0.5476243 -0.46565 -0.6951818
vn -0.2738114 -0.4461065 -0.8520659
vn -0.8214348 -0.5632818 0.08921025
vn -0.5476261 -0.6218447 0.5598347
vn -0.8214348 -0.5632818 0.08921025
vn -0.821435 -0.5242357 -0.2245475
vn -0.2738172 -0.641364 0.7167122
vn 0.2738184 -0.6413538 0.7167209
vn -0.2738172 -0.641364 0.7167122
vn -0.5476261 -0.6218447 0.5598347
vn 0.5476378 -0.6218267 0.5598433
vn 0.8214557 -0.5632522 0.08920577
vn 0.5476378 -0.6218267 0.5598433
vn 0.2738184 -0.6413538 0.7167209
vn 0.8214594 -0.5241947 -0.2245542
vn 0.5476413 -0.4656206 -0.695188
vn 0.8214594 -0.5241947 -0.2245542
vn 0.8214557 -0.5632522 0.08920577
vn 0.2738283 -0.4460968 -0.8520656
vn 0 0.9923421 0.1235202
vn 0 0.9923403 0.1235339
vn 0 0.9923403 0.1235339
vn 0 0.9923437 0.1235064
vn 0 0.9923455 0.1234927
vn 0 0.9923455 0.1234927
g group11_group12_group14_group13_pCylinder2_0
f 3/3/3 2/2/2 1/1/1
f 2/2/2 4/4/4 1/1/1
f 7/7/7 6/6/6 5/5/5
f 6/6/6 8/8/8 5/5/5
f 11/11/11 10/10/10 9/9/9
f 10/10/10 12/12/12 9/9/9
f 15/15/15 14/14/14 13/13/13
f 14/14/14 16/16/16 13/13/13
f 19/19/19 18/18/18 17/17/17
f 18/18/18 20/20/20 17/17/17
f 23/23/23 22/22/22 21/21/21
f 22/22/22 24/24/24 21/21/21
f 27/27/27 26/26/26 25/25/25
f 25/25/25 28/28/28 27/27/27
f 25/25/25 29/29/29 28/28/28
f 29/29/29 30/30/30 28/28/28
