g group11_group12_group14_group13_pCylinder1
v -42.4182 0.9556 -0.299
v -24.707 2.1408 -0.1515
v -42.4182 2.1408 -0.1515
v -24.707 0.9556 -0.299
v -42.4182 0.2316 0.6554
v -24.707 0.9556 -0.299
v -42.4182 0.9556 -0.299
v -24.707 0.2316 0.6554
v -42.4182 0.6995 1.7581
v -24.707 0.2316 0.6554
v -42.4182 0.2316 0.6554
v -24.707 0.6995 1.7581
v -42.4182 1.8848 1.9056
v -24.707 0.6995 1.7581
v -42.4182 0.6995 1.7581
v -24.707 1.8848 1.9056
v -42.4182 2.6066 0.951
v -24.707 1.8848 1.9056
v -42.4182 1.8848 1.9056
v -24.707 2.6066 0.951
v -42.4182 2.1408 -0.1515
v -24.707 2.6066 0.951
v -42.4182 2.6066 0.951
v -24.707 2.1408 -0.1515
v -24.707 0.9556 -0.299
v -24.707 0.2316 0.6554
v -24.707 0.6995 1.7581
v -24.707 1.8848 1.9056
v -24.707 2.1408 -0.1515
v -24.707 2.6066 0.951
v -42.4182 0.6995 1.7581
v -42.4182 0.2316 0.6554
v -42.4182 0.9556 -0.299
v -42.4182 1.8848 1.9056
v -42.4182 2.1408 -0.1515
v -42.4182 2.6066 0.951
vt 0.9983 0.4914
vt 0.0014 0.6348
vt 0.9983 0.6348
vt 0.0014 0.4914
vt 0.0013 0.4914
vt 0.9983 0.6348
vt 0.0013 0.6348
vt 0.9983 0.4914
vt 0.0013 0.4914
vt 0.9983 0.6348
vt 0.0013 0.6348
vt 0.9983 0.4914
vt 0.9983 0.6348
vt 0.0014 0.4914
vt 0.9983 0.4914
vt 0.0014 0.6348
vt 0.0013 0.6348
vt 0.9983 0.4914
vt 0.0013 0.4914
vt 0.9983 0.6348
vt 0.0013 0.6348
vt 0.9983 0.4914
vt 0.0013 0.4914
vt 0.9983 0.6348
vt 0.4401 0.3454
vt 0.3938 0.2701
vt 0.31 0.2701
vt 0.2671 0.3451
vt 0.395 0.4204
vt 0.3104 0.4203
vt 0.31 0.2701
vt 0.3938 0.2701
vt 0.4401 0.3454
vt 0.2671 0.3451
vt 0.395 0.4204
vt 0.3104 0.4203
vn 0 -0.2076885 -0.978195
vn 0 0.4415261 -0.8972484
vn 0 0.7430163 -0.6692733
vn 0 -0.5553575 -0.8316118
vn 0 -0.7967023 -0.6043719
vn 0 -0.5553575 -0.8316118
vn 0 -0.2076885 -0.978195
vn 0 -0.7967023 -0.6043719
vn 0 -0.742273 0.6700976
vn 0 -0.9205554 0.390612
vn 0 -0.9205554 0.390612
vn 0 -0.4411219 0.8974471
vn 0 0.2081334 0.9781004
vn 0 -0.4411219 0.8974471
vn 0 -0.742273 0.6700976
vn 0 0.5562894 0.8309886
vn 0 0.9511213 0.3088178
vn 0 0.5562894 0.8309886
vn 0 0.2081334 0.9781004
vn 0 0.997804 -0.066236
vn 0 0.7430163 -0.6692733
vn 0 0.997804 -0.066236
vn 0 0.9511213 0.3088178
vn 0 0.4415261 -0.8972484
vn 1 0 0
vn 1 0 0
vn 1 0 0
vn 1 0 0
vn 1 0 0
vn 1 0 0
vn -1 0 0
vn -1 0 0
vn -1 0 0
vn -1 0 0
vn -1 0 0
vn -1 0 0
g group11_group12_group14_group13_pCylinder1_0
f 3/3/3 2/2/2 1/1/1
f 2/2/2 4/4/4 1/1/1
f 7/7/7 6/6/6 5/5/5
f 6/6/6 8/8/8 5/5/5
f 11/11/11 10/10/10 9/9/9
f 10/10/10 12/12/12 9/9/9
f 15/15/15 14/14/14 13/13/13
f 14/14/14 16/16/16 13/13/13
f 19/19/19 18/18/18 17/17/17
f 18/18/18 20/20/20 17/17/17
f 23/23/23 22/22/22 21/21/21
f 22/22/22 24/24/24 21/21/21
f 27/27/27 26/26/26 25/25/25
f 25/25/25 28/28/28 27/27/27
f 25/25/25 29/29/29 28/28/28
f 29/29/29 30/30/30 28/28/28
f 33/33/33 32/32/32 31/31/31
f 31/31/31 34/34/34 33/33/33
f 34/34/34 35/35/35 33/33/33
f 34/34/34 36/36/36 35/35/35
