g group11_group12_pCube27_group14_group13
v -34.0261 1.0497 -0.2366
v -34.0261 3.8456 -13.9996
v -34.0261 2.0419 -0.1131
v -34.0261 2.9207 -14.6646
v -33.0247 2.9207 -14.6646
v -33.0247 2.0419 -0.1131
v -33.0247 3.8456 -13.9996
v -33.0247 1.0497 -0.2366
v -34.0261 2.0419 -0.1131
v -33.0247 3.8456 -13.9996
v -33.0247 2.0419 -0.1131
v -34.0261 3.8456 -13.9996
v -33.0247 2.9207 -14.6646
v -34.0261 1.0497 -0.2366
v -33.0247 1.0497 -0.2366
v -34.0261 2.9207 -14.6646
vt 0.002 0.4247
vt 0.9992 0.5169
vt 0.002 0.5169
vt 0.9992 0.4247
vt 0.9992 0.4247
vt 0.002 0.5169
vt 0.9992 0.5169
vt 0.002 0.4247
vt 0.9992 0.5169
vt 0.002 0.4247
vt 0.9992 0.4247
vt 0.002 0.5169
vt 0.9992 0.5171
vt 0.002 0.4249
vt 0.002 0.5171
vt 0.9992 0.4249
vn -1 0 0
vn -1 0 0
vn -1 0 0
vn -1 0 0
vn 1 0 0
vn 1 0 0
vn 1 0 0
vn 1 0 0
vn 0 0.9916697 0.1288067
vn 0 0.9916697 0.1288067
vn 0 0.9916697 0.1288067
vn 0 0.9916697 0.1288067
vn 0 -0.9916964 -0.1286016
vn 0 -0.9916964 -0.1286016
vn 0 -0.9916964 -0.1286016
vn 0 -0.9916964 -0.1286016
g group11_group12_pCube27_group14_group13_0
f 3/3/3 2/2/2 1/1/1
f 2/2/2 4/4/4 1/1/1
f 7/7/7 6/6/6 5/5/5
f 6/6/6 8/8/8 5/5/5
f 11/11/11 10/10/10 9/9/9
f 10/10/10 12/12/12 9/9/9
f 15/15/15 14/14/14 13/13/13
f 14/14/14 16/16/16 13/13/13
