g group2_pCube33
v -28.1077 0.557 15.0358
v -38.9855 2.4415 15.0359
v -28.1077 2.4415 15.0358
v -38.9855 0.557 15.0359
v -28.1077 2.4415 15.0358
v -38.9855 2.4415 13.1513
v -28.1077 2.4415 13.1513
v -38.9855 2.4415 15.0359
v -28.1077 0.557 13.1513
v -38.9855 2.4415 13.1513
v -38.9855 0.557 13.1513
v -28.1077 2.4415 13.1513
vt 0.0012 0.002
vt 0.9982 0.0763
vt 0.0012 0.0763
vt 0.9982 0.002
vt 0.9982 0.0763
vt 0.0012 0.002
vt 0.9982 0.002
vt 0.0012 0.0763
vt 0.0001 0.0763
vt 0.9994 0.002
vt 0.9994 0.0763
vt 0.0001 0.002
vn 0 0 1
vn 0 0 1
vn 0 0 1
vn 0 0 1
vn 0 1 0
vn 0 1 0
vn 0 1 0
vn 0 1 0
vn 0 0 -1
vn 0 0 -1
vn 0 0 -1
vn 0 0 -1
g group2_pCube33_0
f 3/3/3 2/2/2 1/1/1
f 2/2/2 4/4/4 1/1/1
f 7/7/7 6/6/6 5/5/5
f 6/6/6 8/8/8 5/5/5
f 11/11/11 10/10/10 9/9/9
f 10/10/10 12/12/12 9/9/9
