g group2_pCube29
v -39.3998 12.328 1.7321
v -41.2843 2.8038 1.7322
v -41.2843 12.328 1.7321
v -39.3998 2.8038 1.7322
v -39.3998 12.328 -0.1524
v -39.3998 2.8038 1.7322
v -39.3998 12.328 1.7321
v -39.3998 2.8038 -0.1524
v -41.2843 12.328 1.7321
v -41.2843 2.8038 -0.1524
v -41.2843 12.328 -0.1524
v -41.2843 2.8038 1.7322
v -39.3998 12.328 -0.1524
v -41.2843 2.8038 -0.1524
v -39.3998 2.8038 -0.1524
v -41.2843 12.328 -0.1524
v -39.3998 12.328 -0.1524
v -41.2843 12.328 1.7321
v -41.2843 12.328 -0.1524
v -39.3998 12.328 1.7321
vt 0.0012 0.002
vt 0.9982 0.0763
vt 0.0012 0.0763
vt 0.9982 0.002
vt 0.9982 0.0763
vt 0.0012 0.0014
vt 0.9982 0.0014
vt 0.0012 0.0763
vt 0.9982 0.0763
vt 0.0012 0.002
vt 0.9982 0.002
vt 0.0012 0.0763
vt 0.9983 0.0763
vt 0.0012 0.002
vt 0.0012 0.0763
vt 0.9983 0.002
vt 0.1579 0.7085
vt 0.0838 0.6353
vt 0.0838 0.7085
vt 0.1579 0.6353
vn 0 1.050131E-05 1
vn 0 1.050131E-05 1
vn 0 1.050131E-05 1
vn 0 1.050131E-05 1
vn 1 0 0
vn 1 0 0
vn 1 0 0
vn 1 0 0
vn -1 0 0
vn -1 0 0
vn -1 0 0
vn -1 0 0
vn 0 0 -1
vn 0 0 -1
vn 0 0 -1
vn 0 0 -1
vn 0 1 0
vn 0 1 0
vn 0 1 0
vn 0 1 0
g group2_pCube29_0
f 3/3/3 2/2/2 1/1/1
f 2/2/2 4/4/4 1/1/1
f 7/7/7 6/6/6 5/5/5
f 6/6/6 8/8/8 5/5/5
f 11/11/11 10/10/10 9/9/9
f 10/10/10 12/12/12 9/9/9
f 15/15/15 14/14/14 13/13/13
f 14/14/14 16/16/16 13/13/13
f 19/19/19 18/18/18 17/17/17
f 18/18/18 20/20/20 17/17/17
