g group21_pCube42
v 39.4586 12.328 7.8808
v 37.5741 2.8038 7.8808
v 37.5741 12.328 7.8808
v 39.4586 2.8038 7.8808
v 39.4586 12.328 5.9963
v 39.4586 2.8038 7.8808
v 39.4586 12.328 7.8808
v 39.4586 2.8038 5.9963
v 37.5741 12.328 7.8808
v 37.5741 2.8038 5.9963
v 37.5741 12.328 5.9963
v 37.5741 2.8038 7.8808
v 39.4586 12.328 5.9963
v 37.5741 2.8038 5.9963
v 39.4586 2.8038 5.9963
v 37.5741 12.328 5.9963
v 39.4586 12.328 5.9963
v 37.5741 12.328 7.8808
v 37.5741 12.328 5.9963
v 39.4586 12.328 7.8808
vt 0.9965 0.0016
vt 0.0033 0.0763
vt 0.9965 0.0763
vt 0.0033 0.0016
vt 0.9965 0.0016
vt 0.0033 0.0763
vt 0.9965 0.0763
vt 0.0033 0.0016
vt 0.9965 0.0763
vt 0.0033 0.0016
vt 0.9965 0.0016
vt 0.0033 0.0763
vt 0.0033 0.0763
vt 0.9965 0.0016
vt 0.9965 0.0763
vt 0.0033 0.0016
vt 0.9979 0.419
vt 0.9238 0.3458
vt 0.9238 0.419
vt 0.9979 0.3458
vn 0 0 1
vn 0 0 1
vn 0 0 1
vn 0 0 1
vn 1 0 0
vn 1 0 0
vn 1 0 0
vn 1 0 0
vn -1 0 0
vn -1 0 0
vn -1 0 0
vn -1 0 0
vn 0 0 -1
vn 0 0 -1
vn 0 0 -1
vn 0 0 -1
vn 0 1 0
vn 0 1 0
vn 0 1 0
vn 0 1 0
g group21_pCube42_0
f 3/3/3 2/2/2 1/1/1
f 2/2/2 4/4/4 1/1/1
f 7/7/7 6/6/6 5/5/5
f 6/6/6 8/8/8 5/5/5
f 11/11/11 10/10/10 9/9/9
f 10/10/10 12/12/12 9/9/9
f 15/15/15 14/14/14 13/13/13
f 14/14/14 16/16/16 13/13/13
f 19/19/19 18/18/18 17/17/17
f 18/18/18 20/20/20 17/17/17
