g group21_polySurface13
v 30.8399 16.3327 21.5579
v 31.7012 16.8317 22.6789
v 32.5625 16.3327 21.5579
v 31.7012 16.8317 22.6789
v 32.5625 17.3395 21.1096
v 32.5625 16.3327 21.5579
v 31.7012 17.8386 22.2306
v 32.5625 17.3395 21.1096
v 31.7012 17.8386 22.2306
v 30.8399 17.3395 21.1096
v 31.7012 16.8317 22.6789
v 30.8399 17.3395 21.1096
v 31.7012 17.8386 22.2306
v 30.8399 16.3327 21.5579
v 30.8399 16.3327 21.5579
v 32.5625 17.3395 21.1096
v 30.8399 17.3395 21.1096
v 32.5625 16.3327 21.5579
vt 0.0045 0.4173
vt 0.0578 0.3439
vt 0.117 0.4173
vt 0.9544 0.4169
vt 0.9192 0.3434
vt 0.9544 0.3434
vt 0.9192 0.4169
vt 0.117 0.4173
vt 0.0578 0.3439
vt 0.0045 0.4173
vt 0.9544 0.4169
vt 0.9192 0.3434
vt 0.9192 0.4169
vt 0.9544 0.3434
vt 0.9192 0.3434
vt 0.9544 0.4169
vt 0.9192 0.4169
vt 0.9544 0.3434
vn 0 -0.9135765 0.4066667
vn 0 -0.9135765 0.4066667
vn 0 -0.9135765 0.4066667
vn 0.8184938 0.2336854 0.5248417
vn 0.8184938 0.2336854 0.5248417
vn 0.8184893 0.2336979 0.5248433
vn 0.8184984 0.2336731 0.5248403
vn 0 0.913546 -0.4067355
vn 0 0.913546 -0.4067355
vn 0 0.913546 -0.4067355
vn -0.8184932 0.2336858 0.5248426
vn -0.8184932 0.2336858 0.5248426
vn -0.8184978 0.2336734 0.524841
vn -0.8184887 0.2336982 0.5248441
vn 0 -0.4067695 -0.9135309
vn 0 -0.4067695 -0.9135309
vn 0 -0.4067695 -0.9135309
vn 0 -0.4067695 -0.9135309
g group21_polySurface13_0
f 3/3/3 2/2/2 1/1/1
f 6/6/6 5/5/5 4/4/4
f 5/5/5 7/7/7 4/4/4
f 10/10/10 9/9/9 8/8/8
f 13/13/13 12/12/12 11/11/11
f 12/12/12 14/14/14 11/11/11
f 17/17/17 16/16/16 15/15/15
f 16/16/16 18/18/18 15/15/15
