g group21_pCube40
v 25.5419 9.9823 7.7497
v 24.3467 2.712 15.02
v 24.3467 9.9823 7.7497
v 25.5419 2.712 15.02
v 25.5419 9.1371 6.9045
v 25.5419 2.712 15.02
v 25.5419 9.9823 7.7497
v 25.5419 1.8668 14.1748
v 24.3467 9.9823 7.7497
v 24.3467 1.8668 14.1748
v 24.3467 9.1371 6.9045
v 24.3467 2.712 15.02
v 25.5419 9.1371 6.9045
v 24.3467 1.8668 14.1748
v 25.5419 1.8668 14.1748
v 24.3467 9.1371 6.9045
vt 0.0012 0.002
vt 0.9982 0.0763
vt 0.0012 0.0763
vt 0.9982 0.002
vt 0.9982 0.0016
vt 0.0012 0.0761
vt 0.9982 0.0761
vt 0.0012 0.0016
vt 0.9982 0.0763
vt 0.0012 0.002
vt 0.9982 0.002
vt 0.0012 0.0763
vt 0.9983 0.0763
vt 0.0012 0.002
vt 0.0012 0.0763
vt 0.9983 0.002
vn 0 0.7071068 0.7071068
vn 0 0.7071068 0.7071068
vn 0 0.7071068 0.7071068
vn 0 0.7071068 0.7071068
vn 1 0 0
vn 1 0 0
vn 1 0 0
vn 1 0 0
vn -1 0 0
vn -1 0 0
vn -1 0 0
vn -1 0 0
vn 0 -0.7071068 -0.7071068
vn 0 -0.7071068 -0.7071068
vn 0 -0.7071068 -0.7071068
vn 0 -0.7071068 -0.7071068
g group21_pCube40_0
f 3/3/3 2/2/2 1/1/1
f 2/2/2 4/4/4 1/1/1
f 7/7/7 6/6/6 5/5/5
f 6/6/6 8/8/8 5/5/5
f 11/11/11 10/10/10 9/9/9
f 10/10/10 12/12/12 9/9/9
f 15/15/15 14/14/14 13/13/13
f 14/14/14 16/16/16 13/13/13
