g group21_group22_pCylinder11
v -5.9393 7.2765 -0.4123
v 3.1394 8.4229 -0.0772
v -5.9393 8.4229 -0.0772
v 3.1394 7.2765 -0.4123
v -5.9393 6.4092 0.4141
v 3.1394 7.2765 -0.4123
v -5.9393 7.2765 -0.4123
v 3.1394 6.4092 0.4141
v -5.9393 6.6948 1.5774
v 3.1394 6.4092 0.4141
v -5.9393 6.4092 0.4141
v 3.1394 6.6948 1.5774
v -5.9393 7.8412 1.9125
v 3.1394 6.6948 1.5774
v -5.9393 6.6948 1.5774
v 3.1394 7.8412 1.9125
v -5.9393 8.7064 1.0856
v 3.1394 7.8412 1.9125
v -5.9393 7.8412 1.9125
v 3.1394 8.7064 1.0856
v -5.9393 8.4229 -0.0772
v 3.1394 8.7064 1.0856
v -5.9393 8.7064 1.0856
v 3.1394 8.4229 -0.0772
v 3.1394 7.2765 -0.4123
v 3.1394 6.4092 0.4141
v 3.1394 6.6948 1.5774
v 3.1394 7.8412 1.9125
v 3.1394 8.4229 -0.0772
v 3.1394 8.7064 1.0856
v -5.9393 6.6948 1.5774
v -5.9393 6.4092 0.4141
v -5.9393 7.2765 -0.4123
v -5.9393 7.8412 1.9125
v -5.9393 8.4229 -0.0772
v -5.9393 8.7064 1.0856
vt 0.9983 0.4914
vt 0.0014 0.6348
vt 0.9983 0.6348
vt 0.0014 0.4914
vt 0.0013 0.4914
vt 0.9983 0.6348
vt 0.0013 0.6348
vt 0.9983 0.4914
vt 0.0013 0.4914
vt 0.9983 0.6348
vt 0.0013 0.6348
vt 0.9983 0.4914
vt 0.9983 0.6348
vt 0.0014 0.4914
vt 0.9983 0.4914
vt 0.0014 0.6348
vt 0.0013 0.6348
vt 0.9983 0.4914
vt 0.0013 0.4914
vt 0.9983 0.6348
vt 0.0013 0.6348
vt 0.9983 0.4914
vt 0.0013 0.4914
vt 0.9983 0.6348
vt 0.4401 0.3454
vt 0.3938 0.2701
vt 0.31 0.2701
vt 0.2671 0.3451
vt 0.395 0.4204
vt 0.3104 0.4203
vt 0.31 0.2701
vt 0.3938 0.2701
vt 0.4401 0.3454
vt 0.2671 0.3451
vt 0.395 0.4204
vt 0.3104 0.4203
vn 0 -0.04862477 -0.9988171
vn 0 0.5793064 -0.8151098
vn 0 0.8404754 -0.5418496
vn 0 -0.4152586 -0.9097034
vn 0 -0.6898302 -0.7239712
vn 0 -0.4152586 -0.9097034
vn 0 -0.04862477 -0.9988171
vn 0 -0.6898302 -0.7239712
vn 0 -0.839854 0.5428123
vn 0 -0.9711602 0.2384278
vn 0 -0.9711602 0.2384278
vn 0 -0.5789327 0.8153753
vn 0 0.0490566 0.998796
vn 0 -0.5789327 0.8153753
vn 0 -0.839854 0.5428123
vn 0 0.4162413 0.9092542
vn 0 0.8894924 0.4569501
vn 0 0.4162413 0.9092542
vn 0 0.0490566 0.998796
vn 0 0.9955549 0.09418357
vn 0 0.8404754 -0.5418496
vn 0 0.9955549 0.09418357
vn 0 0.8894924 0.4569501
vn 0 0.5793064 -0.8151098
vn 1 0 0
vn 1 0 0
vn 1 0 0
vn 1 0 0
vn 1 0 0
vn 1 0 0
vn -1 0 0
vn -1 0 0
vn -1 0 0
vn -1 0 0
vn -1 0 0
vn -1 0 0
g group21_group22_pCylinder11_0
f 3/3/3 2/2/2 1/1/1
f 2/2/2 4/4/4 1/1/1
f 7/7/7 6/6/6 5/5/5
f 6/6/6 8/8/8 5/5/5
f 11/11/11 10/10/10 9/9/9
f 10/10/10 12/12/12 9/9/9
f 15/15/15 14/14/14 13/13/13
f 14/14/14 16/16/16 13/13/13
f 19/19/19 18/18/18 17/17/17
f 18/18/18 20/20/20 17/17/17
f 23/23/23 22/22/22 21/21/21
f 22/22/22 24/24/24 21/21/21
f 27/27/27 26/26/26 25/25/25
f 25/25/25 28/28/28 27/27/27
f 25/25/25 29/29/29 28/28/28
f 29/29/29 30/30/30 28/28/28
f 33/33/33 32/32/32 31/31/31
f 31/31/31 34/34/34 33/33/33
f 34/34/34 35/35/35 33/33/33
f 34/34/34 36/36/36 35/35/35
