g group21_group22_pCylinder14
v 3.1223 8.8082 0.0101
v 5.2568 8.826 1.4611
v 3.1223 8.826 1.4611
v 5.2568 8.8082 0.0101
v 3.1223 7.5399 -0.7041
v 5.2568 8.8082 0.0101
v 3.1223 8.8082 0.0101
v 5.2568 7.5399 -0.7041
v 3.1223 6.2897 0.0411
v 5.2568 7.5399 -0.7041
v 3.1223 7.5399 -0.7041
v 5.2568 6.2897 0.0411
v 3.1223 7.5757 2.2037
v 5.2568 6.3075 1.4921
v 3.1223 6.3075 1.4921
v 5.2568 7.5757 2.2037
v 3.1223 8.826 1.4611
v 5.2568 7.5757 2.2037
v 3.1223 7.5757 2.2037
v 5.2568 8.826 1.4611
v 5.2568 7.5399 -0.7041
v 5.2568 6.2897 0.0411
v 5.2568 6.3075 1.4921
v 5.2568 7.5757 2.2037
v 5.2568 8.8082 0.0101
v 5.2568 8.826 1.4611
v 3.1223 6.3075 1.4921
v 3.1223 6.2897 0.0411
v 3.1223 7.5399 -0.7041
v 3.1223 7.5757 2.2037
v 3.1223 8.8082 0.0101
v 3.1223 8.826 1.4611
vt 0.5851 0.4166
vt 0.438 0.2734
vt 0.5851 0.2734
vt 0.438 0.4166
vt 0.438 0.2734
vt 0.5851 0.4167
vt 0.438 0.4167
vt 0.5851 0.2734
vt 0.438 0.4166
vt 0.5851 0.2734
vt 0.438 0.2734
vt 0.5851 0.4166
vt 0.5849 0.2734
vt 0.4381 0.4166
vt 0.5849 0.4166
vt 0.4381 0.2734
vt 0.438 0.4167
vt 0.5851 0.2734
vt 0.438 0.2734
vt 0.5851 0.4167
vt 0.2622 0.3457
vt 0.3134 0.2701
vt 0.3954 0.2701
vt 0.4324 0.346
vt 0.309 0.4168
vt 0.3941 0.4168
vt 0.3954 0.2701
vt 0.3134 0.2701
vt 0.2622 0.3457
vt 0.4324 0.346
vt 0.309 0.4168
vt 0.3941 0.4168
vn 0 0.9409725 -0.3384829
vn 0 0.9488629 0.3156885
vn 0 0.7639412 0.6452859
vn 0 0.7485645 -0.663062
vn 0 0.4906689 -0.8713462
vn 0 0.7485645 -0.663062
vn 0 0.9409725 -0.3384829
vn 0 0.4906689 -0.8713462
vn 0 -0.5120081 -0.8589806
vn 0 -0.5120081 -0.8589806
vn 0 -0.5120081 -0.8589806
vn 0 -0.5120081 -0.8589806
vn 0 -0.1768997 0.9842288
vn 0 -0.4893403 0.8720928
vn 0 -0.4893403 0.8720928
vn 0 0.2010721 0.9795765
vn 0 0.7639412 0.6452859
vn 0 0.2010721 0.9795765
vn 0 -0.1768997 0.9842288
vn 0 0.9488629 0.3156885
vn 1 0 0
vn 1 0 0
vn 1 0 0
vn 1 0 0
vn 1 0 0
vn 1 0 0
vn -1 0 0
vn -1 0 0
vn -1 0 0
vn -1 0 0
vn -1 0 0
vn -1 0 0
g group21_group22_pCylinder14_0
f 3/3/3 2/2/2 1/1/1
f 2/2/2 4/4/4 1/1/1
f 7/7/7 6/6/6 5/5/5
f 6/6/6 8/8/8 5/5/5
f 11/11/11 10/10/10 9/9/9
f 10/10/10 12/12/12 9/9/9
f 15/15/15 14/14/14 13/13/13
f 14/14/14 16/16/16 13/13/13
f 19/19/19 18/18/18 17/17/17
f 18/18/18 20/20/20 17/17/17
f 23/23/23 22/22/22 21/21/21
f 21/21/21 24/24/24 23/23/23
f 21/21/21 25/25/25 24/24/24
f 25/25/25 26/26/26 24/24/24
f 29/29/29 28/28/28 27/27/27
f 27/27/27 30/30/30 29/29/29
f 30/30/30 31/31/31 29/29/29
f 30/30/30 32/32/32 31/31/31
