g HouseONE_polySurface2
v -10.01443 4.225675 -17.10922
v -10.01443 9.351436 -7.169563
v -10.01443 4.225675 -7.169563
v -10.01443 9.351436 -17.10922
v -0.074769 9.351436 -17.10922
v -0.074769 4.225675 -7.169563
v -0.074769 9.351436 -7.169563
v -0.074769 4.225675 -17.10922
v -0.074769 4.225675 -17.10922
v -10.01443 4.225675 -7.169563
v -0.074769 4.225675 -7.169563
v -10.01443 4.225675 -17.10922
v -10.01443 4.225675 -7.169563
v -0.074769 9.351436 -7.169563
v -0.074769 4.225675 -7.169563
v -10.01443 9.351436 -7.169563
v -0.074769 4.225675 -17.10922
v -10.01443 9.351436 -17.10922
v -10.01443 4.225675 -17.10922
v -0.074769 9.351436 -17.10922
v -10.01443 9.351436 -17.10922
v -5.044598 11.99972 -12.13939
v -10.01443 9.351436 -7.169563
v -10.01443 9.351436 -7.169563
v -5.044598 11.99972 -12.13939
v -0.074769 9.351436 -7.169563
v -0.074769 9.351436 -7.169563
v -5.044598 11.99972 -12.13939
v -0.074769 9.351436 -17.10922
v -0.074769 9.351436 -17.10922
v -5.044598 11.99972 -12.13939
v -10.01443 9.351436 -17.10922
vt 0.015606 0.765387
vt 0.200913 0.88256
vt 0.200913 0.765387
vt 0.013446 0.88256
vt 0.388611 0.88256
vt 0.573613 0.765262
vt 0.573613 0.88256
vt 0.388611 0.765262
vt 0.392801 0.607199
vt 0.590551 0.409449
vt 0.590551 0.607199
vt 0.392801 0.409449
vt 0.201045 0.765175
vt 0.387799 0.88256
vt 0.387799 0.765175
vt 0.201045 0.88256
vt 0.760138 0.765397
vt 0.574127 0.88256
vt 0.574127 0.765397
vt 0.760138 0.88256
vt 0.57338 0.88256
vt 0.480146 0.997936
vt 0.387344 0.88256
vt 0.386455 0.88256
vt 0.294084 0.99663
vt 0.202244 0.88256
vt 0.198816 0.88256
vt 0.10766 0.997307
vt 0.013837 0.88256
vt 0.761163 0.88256
vt 0.667762 0.997972
vt 0.574361 0.88256
vn -1 0 0
vn -1 0 0
vn -1 0 0
vn -1 0 0
vn 1 0 0
vn 1 0 0
vn 1 0 0
vn 1 0 0
vn 0 -1 0
vn 0 -1 0
vn 0 -1 0
vn 0 -1 0
vn 0 0 1
vn 0 0 1
vn 0 0 1
vn 0 0 1
vn 0 0 -1
vn 0 0 -1
vn 0 0 -1
vn 0 0 -1
vn -0.4702718 0.8825216 0
vn -0.4702718 0.8825216 0
vn -0.4702718 0.8825216 0
vn 0 0.8825216 0.4702718
vn 0 0.8825216 0.4702718
vn 0 0.8825216 0.4702718
vn 0.4702718 0.8825216 0
vn 0.4702718 0.8825216 0
vn 0.4702718 0.8825216 0
vn 0 0.8825216 -0.4702718
vn 0 0.8825216 -0.4702718
vn 0 0.8825216 -0.4702718
g HouseONE_polySurface2_0
f 3/3/3 2/2/2 1/1/1
f 2/2/2 4/4/4 1/1/1
f 7/7/7 6/6/6 5/5/5
f 6/6/6 8/8/8 5/5/5
f 11/11/11 10/10/10 9/9/9
f 10/10/10 12/12/12 9/9/9
f 15/15/15 14/14/14 13/13/13
f 14/14/14 16/16/16 13/13/13
f 19/19/19 18/18/18 17/17/17
f 18/18/18 20/20/20 17/17/17
f 23/23/23 22/22/22 21/21/21
f 26/26/26 25/25/25 24/24/24
f 29/29/29 28/28/28 27/27/27
f 32/32/32 31/31/31 30/30/30
