g House3_pCube3
v 16.47384 0.003344 -7.221181
v 18.2095 3.268037 -7.221181
v 18.2095 0.003344 -7.221181
v 16.47384 3.911606 -7.221181
v 16.47384 3.911606 -7.221181
v 18.2095 3.268037 -9.606915
v 18.2095 3.268037 -7.221181
v 16.47384 3.911606 -9.606915
v 16.47384 3.911606 -9.606915
v 18.2095 0.003344 -9.606915
v 18.2095 3.268037 -9.606915
v 16.47384 0.003344 -9.606915
v 16.47384 0.003344 -9.606915
v 18.2095 0.003344 -7.221181
v 18.2095 0.003344 -9.606915
v 16.47384 0.003344 -7.221181
v 18.2095 0.003344 -7.221181
v 18.2095 3.268037 -9.606915
v 18.2095 0.003344 -9.606915
v 18.2095 3.268037 -7.221181
v 16.47384 0.003344 -9.606915
v 16.47384 3.911606 -7.221181
v 16.47384 0.003344 -7.221181
v 16.47384 3.911606 -9.606915
vt 0.629557 0.155697
vt 0.66818 0.239522
vt 0.66818 0.155697
vt 0.629557 0.266113
vt 0.760146 0.269525
vt 0.824012 0.317598
vt 0.824012 0.269525
vt 0.760146 0.317598
vt 0.629557 0.266113
vt 0.66818 0.155697
vt 0.66818 0.239522
vt 0.629557 0.155697
vt 0.375 0.75
vt 0.625 1
vt 0.625 0.75
vt 0.375 1
vt 0.669228 0.154687
vt 0.721281 0.240928
vt 0.721281 0.154687
vt 0.669228 0.240928
vt 0.125 0
vt 0.375 0.25
vt 0.375 0
vt 0.125 0.25
vn 0 0 1
vn 0 0 1
vn 0 0 1
vn 0 0 1
vn 0.347662 0.9376199 0
vn 0.347662 0.9376199 0
vn 0.347662 0.9376199 0
vn 0.347662 0.9376199 0
vn 0 0 -1
vn 0 0 -1
vn 0 0 -1
vn 0 0 -1
vn 0 -1 0
vn 0 -1 0
vn 0 -1 0
vn 0 -1 0
vn 1 0 0
vn 1 0 0
vn 1 0 0
vn 1 0 0
vn -1 0 0
vn -1 0 0
vn -1 0 0
vn -1 0 0
g House3_pCube3_0
f 3/3/3 2/2/2 1/1/1
f 2/2/2 4/4/4 1/1/1
f 7/7/7 6/6/6 5/5/5
f 6/6/6 8/8/8 5/5/5
f 11/11/11 10/10/10 9/9/9
f 10/10/10 12/12/12 9/9/9
f 15/15/15 14/14/14 13/13/13
f 14/14/14 16/16/16 13/13/13
f 19/19/19 18/18/18 17/17/17
f 18/18/18 20/20/20 17/17/17
f 23/23/23 22/22/22 21/21/21
f 22/22/22 24/24/24 21/21/21
