g HouseONE_Houses
v -5.831004 9.484015 -16.7349
v -5.831004 11.69985 -15.307
v -5.831004 10.27195 -15.307
v -5.831004 11.69985 -16.7349
v -4.403105 11.69985 -16.7349
v -4.403105 10.27195 -15.307
v -4.403105 11.69985 -15.307
v -4.403105 9.484015 -16.7349
v -5.831004 10.27195 -15.307
v -4.403105 11.69985 -15.307
v -4.403105 10.27195 -15.307
v -5.831004 11.69985 -15.307
v -4.403105 9.484015 -16.7349
v -5.831004 11.69985 -16.7349
v -5.831004 9.484015 -16.7349
v -4.403105 11.69985 -16.7349
v -5.831004 11.69985 -16.7349
v -5.795308 11.74674 -15.3427
v -5.831004 11.69985 -15.307
v -5.795308 11.74674 -16.6992
v -5.831004 11.69985 -15.307
v -4.438803 11.74674 -15.3427
v -4.403105 11.69985 -15.307
v -5.795308 11.74674 -15.3427
v -4.403105 11.69985 -15.307
v -4.438803 11.74674 -16.6992
v -4.403105 11.69985 -16.7349
v -4.438803 11.74674 -15.3427
v -4.403105 11.69985 -16.7349
v -5.795308 11.74674 -16.6992
v -5.831004 11.69985 -16.7349
v -4.438803 11.74674 -16.6992
v -5.512701 11.74674 -16.4166
v -5.512701 11.17102 -15.6253
v -5.512701 11.74674 -15.6253
v -5.512701 11.17102 -16.4166
v -5.512701 11.74674 -15.6253
v -4.721407 11.17101 -15.6253
v -4.721407 11.74674 -15.6253
v -5.512701 11.17102 -15.6253
v -4.721407 11.74674 -15.6253
v -4.721407 11.17101 -16.4166
v -4.721407 11.74674 -16.4166
v -4.721407 11.17101 -15.6253
v -4.721407 11.74674 -16.4166
v -5.512701 11.17102 -16.4166
v -5.512701 11.74674 -16.4166
v -4.721407 11.17101 -16.4166
v -5.795308 11.74674 -16.6992
v -5.512701 11.74674 -15.6253
v -5.795308 11.74674 -15.3427
v -5.512701 11.74674 -16.4166
v -4.721407 11.74674 -15.6253
v -4.438803 11.74674 -15.3427
v -4.721407 11.74674 -16.4166
v -4.438803 11.74674 -16.6992
vt 0.840572 0.766152
vt 0.863513 0.834248
vt 0.863513 0.788116
vt 0.840572 0.834248
vt 0.816814 0.834217
vt 0.792816 0.78724
vt 0.792816 0.834217
vt 0.816814 0.764501
vt 0.769799 0.785831
vt 0.791821 0.834595
vt 0.791821 0.785831
vt 0.769799 0.834595
vt 0.841075 0.749311
vt 0.817181 0.83421
vt 0.817181 0.749311
vt 0.841075 0.83421
vt 0.819574 0.83644
vt 0.838088 0.836915
vt 0.838562 0.83644
vt 0.820049 0.836915
vt 0.838562 0.83644
vt 0.838088 0.854954
vt 0.838562 0.855428
vt 0.838088 0.836915
vt 0.838562 0.855428
vt 0.820049 0.854954
vt 0.819574 0.855428
vt 0.838088 0.854954
vt 0.819574 0.855428
vt 0.820049 0.836915
vt 0.819574 0.83644
vt 0.820049 0.854954
vt 0.824659 0.84168
vt 0.832832 0.84168
vt 0.832832 0.84168
vt 0.824659 0.84168
vt 0.832832 0.84168
vt 0.832832 0.849853
vt 0.832832 0.849853
vt 0.832832 0.84168
vt 0.832832 0.849853
vt 0.824659 0.849853
vt 0.824659 0.849853
vt 0.832832 0.849853
vt 0.824659 0.849853
vt 0.824659 0.84168
vt 0.824659 0.84168
vt 0.824659 0.849853
vt 0.820049 0.836915
vt 0.83433 0.840673
vt 0.838088 0.836915
vt 0.823807 0.840673
vt 0.83433 0.851196
vt 0.838088 0.854954
vt 0.823807 0.851196
vt 0.820049 0.854954
vn -1 0 0
vn -1 0 0
vn -1 0 0
vn -1 0 0
vn 1 0 0
vn 1 0 0
vn 1 0 0
vn 1 0 0
vn 0 0 1
vn 0 0 1
vn 0 0 1
vn 0 0 1
vn 0 0 -1
vn 0 0 -1
vn 0 0 -1
vn 0 0 -1
vn -0.7956879 0.6057069 0
vn -0.7956879 0.6057069 0
vn -0.7956879 0.6057069 0
vn -0.7956879 0.6057069 0
vn 0 0.6057279 0.7956719
vn 0 0.6057279 0.7956719
vn 0 0.6057279 0.7956719
vn 0 0.6057279 0.7956719
vn 0.7956724 0.6057273 0
vn 0.7956724 0.6057273 0
vn 0.7956724 0.6057273 0
vn 0.7956724 0.6057273 0
vn 0 0.6056961 -0.7956961
vn 0 0.6056961 -0.7956961
vn 0 0.6056961 -0.7956961
vn 0 0.6056961 -0.7956961
vn 1 0 0
vn 1 0 0
vn 1 0 0
vn 1 0 0
vn 0 0 -1
vn 0 0 -1
vn 0 0 -1
vn 0 0 -1
vn -1 0 0
vn -1 0 0
vn -1 0 0
vn -1 0 0
vn 0 0 1
vn 0 0 1
vn 0 0 1
vn 0 0 1
vn 0 1 0
vn 0 1 0
vn 0 1 0
vn 0 1 0
vn 0 1 0
vn 0 1 0
vn 0 1 0
vn 0 1 0
g HouseONE_Houses_0
f 3/3/3 2/2/2 1/1/1
f 2/2/2 4/4/4 1/1/1
f 7/7/7 6/6/6 5/5/5
f 6/6/6 8/8/8 5/5/5
f 11/11/11 10/10/10 9/9/9
f 10/10/10 12/12/12 9/9/9
f 15/15/15 14/14/14 13/13/13
f 14/14/14 16/16/16 13/13/13
f 19/19/19 18/18/18 17/17/17
f 18/18/18 20/20/20 17/17/17
f 23/23/23 22/22/22 21/21/21
f 22/22/22 24/24/24 21/21/21
f 27/27/27 26/26/26 25/25/25
f 26/26/26 28/28/28 25/25/25
f 31/31/31 30/30/30 29/29/29
f 30/30/30 32/32/32 29/29/29
f 35/35/35 34/34/34 33/33/33
f 34/34/34 36/36/36 33/33/33
f 39/39/39 38/38/38 37/37/37
f 38/38/38 40/40/40 37/37/37
f 43/43/43 42/42/42 41/41/41
f 42/42/42 44/44/44 41/41/41
f 47/47/47 46/46/46 45/45/45
f 46/46/46 48/48/48 45/45/45
f 51/51/51 50/50/50 49/49/49
f 50/50/50 52/52/52 49/49/49
f 53/53/53 50/50/50 51/51/51
f 54/54/54 53/53/53 51/51/51
f 55/55/55 53/53/53 54/54/54
f 56/56/56 55/55/55 54/54/54
f 49/49/49 52/52/52 56/56/56
f 52/52/52 55/55/55 56/56/56
