g House2_pCylinder1
v 6.071427 0.003372 -7.738237
v 5.821254 0.989737 -7.841862
v 5.821254 0.003372 -7.841862
v 6.071427 0.989737 -7.738237
v 5.821254 0.003372 -7.841862
v 5.57108 0.989737 -7.738237
v 5.57108 0.003372 -7.738237
v 5.821254 0.989737 -7.841862
v 5.57108 0.003372 -7.738237
v 5.467455 0.989737 -7.488063
v 5.467455 0.003372 -7.488063
v 5.57108 0.989737 -7.738237
v 5.467455 0.003372 -7.488063
v 5.57108 0.989737 -7.23789
v 5.57108 0.003372 -7.23789
v 5.467455 0.989737 -7.488063
v 5.57108 0.003372 -7.23789
v 5.821254 0.989737 -7.134265
v 5.821254 0.003372 -7.134265
v 5.57108 0.989737 -7.23789
v 5.821254 0.003372 -7.134265
v 6.071427 0.989737 -7.23789
v 6.071427 0.003372 -7.23789
v 5.821254 0.989737 -7.134265
v 6.071427 0.003372 -7.23789
v 6.175052 0.989737 -7.488063
v 6.175052 0.003372 -7.488063
v 6.071427 0.989737 -7.23789
v 6.175052 0.003372 -7.488063
v 6.071427 0.989737 -7.738237
v 6.071427 0.003372 -7.738237
v 6.175052 0.989737 -7.488063
v 6.071427 0.989737 -7.738237
v 5.821254 0.989737 -7.488063
v 5.821254 0.989737 -7.841862
v 5.57108 0.989737 -7.738237
v 5.467455 0.989737 -7.488063
v 5.57108 0.989737 -7.23789
v 5.821254 0.989737 -7.134265
v 6.071427 0.989737 -7.23789
v 6.175052 0.989737 -7.488063
vt 0.865694 0.187343
vt 0.879279 0.22438
vt 0.879279 0.187343
vt 0.865694 0.22438
vt 0.770595 0.187343
vt 0.784181 0.22438
vt 0.784181 0.187343
vt 0.770595 0.22438
vt 0.784181 0.187343
vt 0.797766 0.22438
vt 0.797766 0.187343
vt 0.784181 0.22438
vt 0.797766 0.187343
vt 0.811352 0.22438
vt 0.811352 0.187343
vt 0.797766 0.22438
vt 0.811352 0.187343
vt 0.824937 0.22438
vt 0.824937 0.187343
vt 0.811352 0.22438
vt 0.824937 0.187343
vt 0.838523 0.22438
vt 0.838523 0.187343
vt 0.824937 0.22438
vt 0.838523 0.187343
vt 0.852108 0.22438
vt 0.852108 0.187343
vt 0.838523 0.22438
vt 0.852108 0.187343
vt 0.865694 0.22438
vt 0.865694 0.187343
vt 0.852108 0.22438
vt 0.811735 0.248112
vt 0.802669 0.239046
vt 0.802669 0.251867
vt 0.793604 0.248112
vt 0.789849 0.239046
vt 0.793604 0.229981
vt 0.802669 0.226226
vt 0.811735 0.229981
vt 0.81549 0.239046
vn 0.3826841 0 -0.9238793
vn 0.3826841 0 -0.9238793
vn 0.3826841 0 -0.9238793
vn 0.3826841 0 -0.9238793
vn -0.3826829 0 -0.9238797
vn -0.3826829 0 -0.9238797
vn -0.3826829 0 -0.9238797
vn -0.3826829 0 -0.9238797
vn -0.9238793 0 -0.3826841
vn -0.9238793 0 -0.3826841
vn -0.9238793 0 -0.3826841
vn -0.9238793 0 -0.3826841
vn -0.9238793 0 0.3826841
vn -0.9238793 0 0.3826841
vn -0.9238793 0 0.3826841
vn -0.9238793 0 0.3826841
vn -0.3826829 0 0.9238797
vn -0.3826829 0 0.9238797
vn -0.3826829 0 0.9238797
vn -0.3826829 0 0.9238797
vn 0.3826841 0 0.9238793
vn 0.3826841 0 0.9238793
vn 0.3826841 0 0.9238793
vn 0.3826841 0 0.9238793
vn 0.9238793 0 0.3826841
vn 0.9238793 0 0.3826841
vn 0.9238793 0 0.3826841
vn 0.9238793 0 0.3826841
vn 0.9238793 0 -0.3826841
vn 0.9238793 0 -0.3826841
vn 0.9238793 0 -0.3826841
vn 0.9238793 0 -0.3826841
vn 0 1 0
vn 0 1 0
vn 0 1 0
vn 0 1 0
vn 0 1 0
vn 0 1 0
vn 0 1 0
vn 0 1 0
vn 0 1 0
g House2_pCylinder1_0
f 3/3/3 2/2/2 1/1/1
f 2/2/2 4/4/4 1/1/1
f 7/7/7 6/6/6 5/5/5
f 6/6/6 8/8/8 5/5/5
f 11/11/11 10/10/10 9/9/9
f 10/10/10 12/12/12 9/9/9
f 15/15/15 14/14/14 13/13/13
f 14/14/14 16/16/16 13/13/13
f 19/19/19 18/18/18 17/17/17
f 18/18/18 20/20/20 17/17/17
f 23/23/23 22/22/22 21/21/21
f 22/22/22 24/24/24 21/21/21
f 27/27/27 26/26/26 25/25/25
f 26/26/26 28/28/28 25/25/25
f 31/31/31 30/30/30 29/29/29
f 30/30/30 32/32/32 29/29/29
f 35/35/35 34/34/34 33/33/33
f 36/36/36 34/34/34 35/35/35
f 37/37/37 34/34/34 36/36/36
f 38/38/38 34/34/34 37/37/37
f 39/39/39 34/34/34 38/38/38
f 40/40/40 34/34/34 39/39/39
f 41/41/41 34/34/34 40/40/40
f 33/33/33 34/34/34 41/41/41
