g House2_pCube1
v 3.906197 4.475813 -10.61388
v 4.906197 5.736488 -10.61388
v 4.906197 4.475813 -10.61388
v 3.906197 5.736488 -10.61388
v 3.906197 5.736488 -10.61388
v 4.906197 5.736488 -11.61388
v 4.906197 5.736488 -10.61388
v 3.906197 5.736488 -11.61388
v 3.906197 5.736488 -11.61388
v 4.906197 4.475813 -11.61388
v 4.906197 5.736488 -11.61388
v 3.906197 4.475813 -11.61388
v 4.906197 4.475813 -10.61388
v 4.906197 5.736488 -11.61388
v 4.906197 4.475813 -11.61388
v 4.906197 5.736488 -10.61388
v 3.906197 4.475813 -11.61388
v 3.906197 5.736488 -10.61388
v 3.906197 4.475813 -10.61388
v 3.906197 5.736488 -11.61388
vt 0.817767 0.76721
vt 0.862965 0.83354
vt 0.862965 0.76721
vt 0.817767 0.83354
vt 0.819936 0.836348
vt 0.838602 0.855015
vt 0.838602 0.836348
vt 0.819936 0.855015
vt 0.817767 0.83354
vt 0.862965 0.76721
vt 0.862965 0.83354
vt 0.817767 0.76721
vt 0.770365 0.766753
vt 0.815887 0.833973
vt 0.815887 0.766753
vt 0.770365 0.833973
vt 0.815887 0.766753
vt 0.770365 0.833973
vt 0.770365 0.766753
vt 0.815887 0.833973
vn 0 0 1
vn 0 0 1
vn 0 0 1
vn 0 0 1
vn 0 1 0
vn 0 1 0
vn 0 1 0
vn 0 1 0
vn 0 0 -1
vn 0 0 -1
vn 0 0 -1
vn 0 0 -1
vn 1 0 0
vn 1 0 0
vn 1 0 0
vn 1 0 0
vn -1 0 0
vn -1 0 0
vn -1 0 0
vn -1 0 0
g House2_pCube1_0
f 3/3/3 2/2/2 1/1/1
f 2/2/2 4/4/4 1/1/1
f 7/7/7 6/6/6 5/5/5
f 6/6/6 8/8/8 5/5/5
f 11/11/11 10/10/10 9/9/9
f 10/10/10 12/12/12 9/9/9
f 15/15/15 14/14/14 13/13/13
f 14/14/14 16/16/16 13/13/13
f 19/19/19 18/18/18 17/17/17
f 18/18/18 20/20/20 17/17/17
