g OldColumn01_part_01
v -63.2451 120.1586 -6.4436
v -63.1546 0.1552 -7.8199
v -62.7901 120.1552 -6.2197
v -63.6097 0.1586 -8.0438
v -61.3834 120.1552 -6.2893
v -60.748 0.1586 -8.1855
v -60.9527 120.1586 -6.5572
v -61.1787 0.1552 -7.9177
v -65.3604 120.1586 -5.5529
v -65.7461 0.1552 -6.8771
v -64.8562 120.1552 -5.4981
v -66.2503 0.1586 -6.9319
v -63.5582 120.1552 -6.0447
v -63.6097 0.1586 -8.0438
v -63.2451 120.1586 -6.4436
v -63.9228 0.1552 -7.6449
v -67.0435 120.1586 -3.9925
v -67.8589 0.1552 -5.1049
v -66.551 120.1552 -4.1134
v -68.3514 0.1586 -4.9839
v -65.5182 120.1552 -5.0709
v -66.2503 0.1586 -6.9319
v -65.3604 120.1586 -5.5529
v -66.4081 0.1552 -6.4499
v -68.0914 120.1586 -1.9504
v -69.2381 0.1552 -2.7169
v -67.67 120.1552 -2.2325
v -69.6595 0.1586 -2.4348
v -67.027 120.1552 -3.4856
v -68.3514 0.1586 -4.9839
v -67.0435 120.1586 -3.9925
v -68.3348 0.1552 -4.477
v -68.3777 120.1586 0.3268
v -69.7173 0.1552 -0.0012
v -68.0781 120.1552 -0.0824
v -70.0169 0.1586 0.408
v -67.9025 120.1552 -1.4798
v -69.6595 0.1586 -2.4348
v -68.0914 120.1586 -1.9504
v -69.4706 0.1552 -1.9641
v -67.8679 120.1586 2.5647
v -69.2389 0.1552 2.7146
v -67.7263 120.1552 2.0777
v -69.3804 0.1586 3.2016
v -68.0392 120.1552 0.7045
v -70.0169 0.1586 0.408
v -68.3777 120.1586 0.3268
v -69.6784 0.1552 0.7857
v -66.6234 120.1586 4.4932
v -67.8605 0.1552 5.103
v -66.6569 120.1552 3.9872
v -67.8269 0.1586 5.6091
v -67.4206 120.1552 2.8038
v -69.3804 0.1586 3.2016
v -67.8679 120.1586 2.5647
v -68.9332 0.1552 3.4407
v -64.7943 120.1586 5.8798
v -65.7483 0.1552 6.8759
v -64.9989 120.1552 5.4157
v -65.5436 0.1586 7.34
v -66.1213 120.1552 4.5649
v -67.8269 0.1586 5.6091
v -66.6234 120.1586 4.4932
v -67.3248 0.1552 5.6807
v -62.6013 120.1586 6.5572
v -63.1571 0.1552 7.8195
v -62.9524 120.1552 6.1911
v -62.8061 0.1586 8.1855
v -64.298 120.1552 5.7754
v -65.5436 0.1586 7.34
v -64.7943 120.1586 5.8798
v -65.0473 0.1552 7.2356
v -60.309 120.1586 6.4436
v -60.3994 0.1552 7.8199
v -60.764 120.1552 6.2197
v -59.9444 0.1586 8.0438
v -62.1707 120.1552 6.2894
v -62.8061 0.1586 8.1855
v -62.6013 120.1586 6.5572
v -62.3754 0.1552 7.9177
v -58.1936 120.1586 5.5529
v -57.8079 0.1552 6.8771
v -58.6978 120.1552 5.4981
v -57.3037 0.1586 6.9319
v -59.9958 120.1552 6.0447
v -59.9444 0.1586 8.0438
v -60.309 120.1586 6.4436
v -59.6313 0.1552 7.6449
v -56.5105 120.1586 3.9925
v -55.6952 0.1552 5.1049
v -57.0031 120.1552 4.1134
v -55.2027 0.1586 4.9839
v -58.0359 120.1552 5.0709
v -57.3037 0.1586 6.9319
v -58.1936 120.1586 5.5529
v -57.146 0.1552 6.4499
v -55.4626 120.1586 1.9504
v -54.316 0.1552 2.7169
v -55.8841 120.1552 2.2325
v -53.8945 0.1586 2.4348
v -56.5271 120.1552 3.4856
v -55.2027 0.1586 4.9839
v -56.5105 120.1586 3.9925
v -55.2192 0.1552 4.477
v -55.1763 120.1586 -0.3268
v -53.8367 0.1552 0.0012
v -55.4759 120.1552 0.0824
v -53.5372 0.1586 -0.408
v -55.6516 120.1552 1.4798
v -53.8945 0.1586 2.4348
v -55.4626 120.1586 1.9504
v -54.0835 0.1552 1.9641
v -55.6862 120.1586 -2.5647
v -54.3152 0.1552 -2.7146
v -55.8277 120.1552 -2.0777
v -54.1736 0.1586 -3.2016
v -55.5149 120.1552 -0.7045
v -53.5372 0.1586 -0.408
v -55.1763 120.1586 -0.3268
v -53.8757 0.1552 -0.7857
v -56.9307 120.1586 -4.4932
v -55.6936 0.1552 -5.103
v -56.8971 120.1552 -3.9872
v -55.7272 0.1586 -5.609
v -56.1335 120.1552 -2.8038
v -54.1736 0.1586 -3.2016
v -55.6862 120.1586 -2.5647
v -54.6209 0.1552 -3.4407
v -58.7597 120.1586 -5.8798
v -57.8058 0.1552 -6.8759
v -58.5551 120.1552 -5.4157
v -58.0104 0.1586 -7.34
v -57.4328 120.1552 -4.5649
v -55.7272 0.1586 -5.609
v -56.9307 120.1586 -4.4932
v -56.2293 0.1552 -5.6807
v -60.9527 120.1586 -6.5572
v -60.397 0.1552 -7.8195
v -60.6017 120.1552 -6.1911
v -60.748 0.1586 -8.1855
v -59.2561 120.1552 -5.7754
v -58.0104 0.1586 -7.34
v -58.7597 120.1586 -5.8798
v -58.5068 0.1552 -7.2356
v -63.1546 0.1552 -7.8199
v -61.3834 120.1552 -6.2893
v -62.7901 120.1552 -6.2197
v -61.1787 0.1552 -7.9177
v -65.7461 0.1552 -6.8771
v -63.5582 120.1552 -6.0447
v -64.8562 120.1552 -5.4981
v -63.9228 0.1552 -7.6449
v -67.8589 0.1552 -5.1049
v -65.5182 120.1552 -5.0709
v -66.551 120.1552 -4.1134
v -66.4081 0.1552 -6.4499
v -69.2381 0.1552 -2.7169
v -67.027 120.1552 -3.4856
v -67.67 120.1552 -2.2325
v -68.3348 0.1552 -4.477
v -69.7173 0.1552 -0.0012
v -67.9025 120.1552 -1.4798
v -68.0781 120.1552 -0.0824
v -69.4706 0.1552 -1.9641
v -69.2389 0.1552 2.7146
v -68.0392 120.1552 0.7045
v -67.7263 120.1552 2.0777
v -69.6784 0.1552 0.7857
v -67.8605 0.1552 5.103
v -67.4206 120.1552 2.8038
v -66.6569 120.1552 3.9872
v -68.9332 0.1552 3.4407
v -65.7483 0.1552 6.8759
v -66.1213 120.1552 4.5649
v -64.9989 120.1552 5.4157
v -67.3248 0.1552 5.6807
v -63.1571 0.1552 7.8195
v -64.298 120.1552 5.7754
v -62.9524 120.1552 6.1911
v -65.0473 0.1552 7.2356
v -60.3994 0.1552 7.8199
v -62.1707 120.1552 6.2894
v -60.764 120.1552 6.2197
v -62.3754 0.1552 7.9177
v -57.8079 0.1552 6.8771
v -59.9958 120.1552 6.0447
v -58.6978 120.1552 5.4981
v -59.6313 0.1552 7.6449
v -55.6952 0.1552 5.1049
v -58.0359 120.1552 5.0709
v -57.0031 120.1552 4.1134
v -57.146 0.1552 6.4499
v -54.316 0.1552 2.7169
v -56.5271 120.1552 3.4856
v -55.8841 120.1552 2.2325
v -55.2192 0.1552 4.477
v -53.8367 0.1552 0.0012
v -55.6516 120.1552 1.4798
v -55.4759 120.1552 0.0824
v -54.0835 0.1552 1.9641
v -54.3152 0.1552 -2.7146
v -55.5149 120.1552 -0.7045
v -55.8277 120.1552 -2.0777
v -53.8757 0.1552 -0.7857
v -55.6936 0.1552 -5.103
v -56.1335 120.1552 -2.8038
v -56.8971 120.1552 -3.9872
v -54.6209 0.1552 -3.4407
v -57.8058 0.1552 -6.8759
v -57.4328 120.1552 -4.5649
v -58.5551 120.1552 -5.4157
v -56.2293 0.1552 -5.6807
v -60.397 0.1552 -7.8195
v -59.2561 120.1552 -5.7754
v -60.6017 120.1552 -6.1911
v -58.5068 0.1552 -7.2356
vt 0.7521 0.9438
vt 0.7449 0.0509
vt 0.7431 0.9438
vt 0.7521 0.0509
vt 0.7115 0.9438
vt 0.7025 0.0509
vt 0.7025 0.9438
vt 0.7096 0.0509
vt 0.8017 0.9438
vt 0.7945 0.0509
vt 0.7927 0.9438
vt 0.8017 0.0509
vt 0.7611 0.9438
vt 0.7521 0.0509
vt 0.7521 0.9438
vt 0.7592 0.0509
vt 0.8513 0.9438
vt 0.8442 0.0509
vt 0.8423 0.9438
vt 0.8513 0.0509
vt 0.8107 0.9438
vt 0.8017 0.0509
vt 0.8017 0.9438
vt 0.8088 0.0509
vt 0.9009 0.9438
vt 0.8938 0.0509
vt 0.8919 0.9438
vt 0.9009 0.0509
vt 0.8603 0.9438
vt 0.8513 0.0509
vt 0.8513 0.9438
vt 0.8584 0.0509
vt 0.9505 0.9438
vt 0.9434 0.0509
vt 0.9415 0.9438
vt 0.9505 0.0509
vt 0.9099 0.9438
vt 0.9009 0.0509
vt 0.9009 0.9438
vt 0.908 0.0509
vt 0.1072 0.9438
vt 0.1001 0.0509
vt 0.0983 0.9438
vt 0.1072 0.0509
vt 0.0666 0.9438
vt 0.0576 0.0509
vt 0.0576 0.9438
vt 0.0648 0.0509
vt 0.1568 0.9438
vt 0.1497 0.0509
vt 0.1479 0.9438
vt 0.1568 0.0509
vt 0.1162 0.9438
vt 0.1072 0.0509
vt 0.1072 0.9438
vt 0.1144 0.0509
vt 0.2065 0.9438
vt 0.1993 0.0509
vt 0.1975 0.9438
vt 0.2065 0.0509
vt 0.1658 0.9438
vt 0.1568 0.0509
vt 0.1568 0.9438
vt 0.164 0.0509
vt 0.2561 0.9438
vt 0.2489 0.0509
vt 0.2471 0.9438
vt 0.2561 0.0509
vt 0.2154 0.9438
vt 0.2065 0.0509
vt 0.2065 0.9438
vt 0.2136 0.0509
vt 0.3057 0.9438
vt 0.2985 0.0509
vt 0.2967 0.9438
vt 0.3057 0.0509
vt 0.265 0.9438
vt 0.2561 0.0509
vt 0.2561 0.9438
vt 0.2632 0.0509
vt 0.3553 0.9438
vt 0.3481 0.0509
vt 0.3463 0.9438
vt 0.3553 0.0509
vt 0.3146 0.9438
vt 0.3057 0.0509
vt 0.3057 0.9438
vt 0.3128 0.0509
vt 0.4049 0.9438
vt 0.3977 0.0509
vt 0.3959 0.9438
vt 0.4049 0.0509
vt 0.3642 0.9438
vt 0.3553 0.0509
vt 0.3553 0.9438
vt 0.3624 0.0509
vt 0.4545 0.9438
vt 0.4473 0.0509
vt 0.4455 0.9438
vt 0.4545 0.0509
vt 0.4138 0.9438
vt 0.4049 0.0509
vt 0.4049 0.9438
vt 0.412 0.0509
vt 0.5041 0.9438
vt 0.4969 0.0509
vt 0.4951 0.9438
vt 0.5041 0.0509
vt 0.4635 0.9438
vt 0.4545 0.0509
vt 0.4545 0.9438
vt 0.4616 0.0509
vt 0.5537 0.9438
vt 0.5465 0.0509
vt 0.5447 0.9438
vt 0.5537 0.0509
vt 0.5131 0.9438
vt 0.5041 0.0509
vt 0.5041 0.9438
vt 0.5112 0.0509
vt 0.6033 0.9438
vt 0.5961 0.0509
vt 0.5943 0.9438
vt 0.6033 0.0509
vt 0.5627 0.9438
vt 0.5537 0.0509
vt 0.5537 0.9438
vt 0.5608 0.0509
vt 0.6529 0.9438
vt 0.6457 0.0509
vt 0.6439 0.9438
vt 0.6529 0.0509
vt 0.6123 0.9438
vt 0.6033 0.0509
vt 0.6033 0.9438
vt 0.6104 0.0509
vt 0.7025 0.9438
vt 0.6953 0.0509
vt 0.6935 0.9438
vt 0.7025 0.0509
vt 0.6619 0.9438
vt 0.6529 0.0509
vt 0.6529 0.9438
vt 0.66 0.0509
vt 0.7449 0.0509
vt 0.7115 0.9438
vt 0.7431 0.9438
vt 0.7096 0.0509
vt 0.7945 0.0509
vt 0.7611 0.9438
vt 0.7927 0.9438
vt 0.7592 0.0509
vt 0.8442 0.0509
vt 0.8107 0.9438
vt 0.8423 0.9438
vt 0.8088 0.0509
vt 0.8938 0.0509
vt 0.8603 0.9438
vt 0.8919 0.9438
vt 0.8584 0.0509
vt 0.9434 0.0509
vt 0.9099 0.9438
vt 0.9415 0.9438
vt 0.908 0.0509
vt 0.1001 0.0509
vt 0.0666 0.9438
vt 0.0983 0.9438
vt 0.0648 0.0509
vt 0.1497 0.0509
vt 0.1162 0.9438
vt 0.1479 0.9438
vt 0.1144 0.0509
vt 0.1993 0.0509
vt 0.1658 0.9438
vt 0.1975 0.9438
vt 0.164 0.0509
vt 0.2489 0.0509
vt 0.2154 0.9438
vt 0.2471 0.9438
vt 0.2136 0.0509
vt 0.2985 0.0509
vt 0.265 0.9438
vt 0.2967 0.9438
vt 0.2632 0.0509
vt 0.3481 0.0509
vt 0.3146 0.9438
vt 0.3463 0.9438
vt 0.3128 0.0509
vt 0.3977 0.0509
vt 0.3642 0.9438
vt 0.3959 0.9438
vt 0.3624 0.0509
vt 0.4473 0.0509
vt 0.4138 0.9438
vt 0.4455 0.9438
vt 0.412 0.0509
vt 0.4969 0.0509
vt 0.4635 0.9438
vt 0.4951 0.9438
vt 0.4616 0.0509
vt 0.5465 0.0509
vt 0.5131 0.9438
vt 0.5447 0.9438
vt 0.5112 0.0509
vt 0.5961 0.0509
vt 0.5627 0.9438
vt 0.5943 0.9438
vt 0.5608 0.0509
vt 0.6457 0.0509
vt 0.6123 0.9438
vt 0.6439 0.9438
vt 0.6104 0.0509
vt 0.6953 0.0509
vt 0.6619 0.9438
vt 0.6935 0.9438
vt 0.66 0.0509
vn 0.4416196 0.01060047 -0.8971397
vn 0.4416196 0.01060047 -0.8971397
vn 0.4416196 0.01060047 -0.8971397
vn 0.4416196 0.01060047 -0.8971397
vn -0.5281072 0.01060014 -0.8491116
vn -0.5281072 0.01060014 -0.8491116
vn -0.5281072 0.01060014 -0.8491116
vn -0.5281072 0.01060014 -0.8491116
vn 0.1080982 0.01059983 -0.9940837
vn 0.1080982 0.01059983 -0.9940837
vn 0.1080982 0.01059983 -0.9940837
vn 0.1080982 0.01059983 -0.9940837
vn -0.7866731 0.01059964 -0.6172789
vn -0.7866731 0.01059964 -0.6172789
vn -0.7866731 0.01059964 -0.6172789
vn -0.7866731 0.01059964 -0.6172789
vn -0.2384021 0.01060009 -0.9711086
vn -0.2384021 0.01060009 -0.9711086
vn -0.2384021 0.01060009 -0.9711086
vn -0.2384021 0.01060009 -0.9711086
vn -0.9503459 0.01060051 -0.311015
vn -0.9503459 0.01060051 -0.311015
vn -0.9503459 0.01060051 -0.311015
vn -0.9503459 0.01060051 -0.311015
vn -0.5561221 0.01060042 -0.831033
vn -0.5561221 0.01060042 -0.831033
vn -0.5561221 0.01060042 -0.831033
vn -0.5561221 0.01060042 -0.831033
vn -0.9994057 0.01060006 0.03280019
vn -0.9994057 0.01060006 0.03280019
vn -0.9994057 0.01060006 0.03280019
vn -0.9994057 0.01060006 0.03280019
vn -0.8068141 0.01060019 -0.5907103
vn -0.8068141 0.01060019 -0.5907103
vn -0.8068141 0.01060019 -0.5907103
vn -0.8068141 0.01060019 -0.5907103
vn -0.9279271 0.01060031 0.3726109
vn -0.9279271 0.01060031 0.3726109
vn -0.9279271 0.01060031 0.3726109
vn -0.9279271 0.01060031 0.3726109
vn -0.9602032 0.01060004 -0.2791009
vn -0.9602032 0.01060004 -0.2791009
vn -0.9602032 0.01060004 -0.2791009
vn -0.9602032 0.01060004 -0.2791009
vn -0.744519 0.01060027 0.6675171
vn -0.744519 0.01060027 0.6675171
vn -0.744519 0.01060027 0.6675171
vn -0.744519 0.01060027 0.6675171
vn -0.9977569 0.01059954 0.06609715
vn -0.9977569 0.01059954 0.06609715
vn -0.9977569 0.01059954 0.06609715
vn -0.9977569 0.01059954 0.06609715
vn -0.4713039 0.01060009 0.8819072
vn -0.4713039 0.01060009 0.8819072
vn -0.4713039 0.01060009 0.8819072
vn -0.4713039 0.01060009 0.8819072
vn -0.9149684 0.01059963 0.4033861
vn -0.9149684 0.01059963 0.4033861
vn -0.9149684 0.01059963 0.4033861
vn -0.9149684 0.01059963 0.4033861
vn -0.1413014 0.01060011 0.9899099
vn -0.1413014 0.01060011 0.9899099
vn -0.1413014 0.01060011 0.9899099
vn -0.1413014 0.01060011 0.9899099
vn -0.7218102 0.01060015 0.6920097
vn -0.7218102 0.01060015 0.6920097
vn -0.7218102 0.01060015 0.6920097
vn -0.7218102 0.01060015 0.6920097
vn 0.2058074 0.01060038 0.9785351
vn 0.2058074 0.01060038 0.9785351
vn 0.2058074 0.01060038 0.9785351
vn 0.2058074 0.01060038 0.9785351
vn -0.4416196 0.01060047 0.8971397
vn -0.4416196 0.01060047 0.8971397
vn -0.4416196 0.01060047 0.8971397
vn -0.4416196 0.01060047 0.8971397
vn 0.5281072 0.01060014 0.8491116
vn 0.5281072 0.01060014 0.8491116
vn 0.5281072 0.01060014 0.8491116
vn 0.5281072 0.01060014 0.8491116
vn -0.1080982 0.01059983 0.9940837
vn -0.1080982 0.01059983 0.9940837
vn -0.1080982 0.01059983 0.9940837
vn -0.1080982 0.01059983 0.9940837
vn 0.7866731 0.01059964 0.6172789
vn 0.7866731 0.01059964 0.6172789
vn 0.7866731 0.01059964 0.6172789
vn 0.7866731 0.01059964 0.6172789
vn 0.2384021 0.01060009 0.9711086
vn 0.2384021 0.01060009 0.9711086
vn 0.2384021 0.01060009 0.9711086
vn 0.2384021 0.01060009 0.9711086
vn 0.9503459 0.01060051 0.311015
vn 0.9503459 0.01060051 0.311015
vn 0.9503459 0.01060051 0.311015
vn 0.9503459 0.01060051 0.311015
vn 0.5561221 0.01060042 0.831033
vn 0.5561221 0.01060042 0.831033
vn 0.5561221 0.01060042 0.831033
vn 0.5561221 0.01060042 0.831033
vn 0.9994057 0.01060006 -0.03280019
vn 0.9994057 0.01060006 -0.03280019
vn 0.9994057 0.01060006 -0.03280019
vn 0.9994057 0.01060006 -0.03280019
vn 0.8068141 0.01060019 0.5907103
vn 0.8068141 0.01060019 0.5907103
vn 0.8068141 0.01060019 0.5907103
vn 0.8068141 0.01060019 0.5907103
vn 0.9279271 0.01060031 -0.3726109
vn 0.9279271 0.01060031 -0.3726109
vn 0.9279271 0.01060031 -0.3726109
vn 0.9279271 0.01060031 -0.3726109
vn 0.9602032 0.01060004 0.2791009
vn 0.9602032 0.01060004 0.2791009
vn 0.9602032 0.01060004 0.2791009
vn 0.9602032 0.01060004 0.2791009
vn 0.744519 0.01060027 -0.6675171
vn 0.744519 0.01060027 -0.6675171
vn 0.744519 0.01060027 -0.6675171
vn 0.744519 0.01060027 -0.6675171
vn 0.9977569 0.01059954 -0.06609715
vn 0.9977569 0.01059954 -0.06609715
vn 0.9977569 0.01059954 -0.06609715
vn 0.9977569 0.01059954 -0.06609715
vn 0.4713039 0.01060009 -0.8819072
vn 0.4713039 0.01060009 -0.8819072
vn 0.4713039 0.01060009 -0.8819072
vn 0.4713039 0.01060009 -0.8819072
vn 0.9149684 0.01059963 -0.4033861
vn 0.9149684 0.01059963 -0.4033861
vn 0.9149684 0.01059963 -0.4033861
vn 0.9149684 0.01059963 -0.4033861
vn 0.1413014 0.01060011 -0.9899099
vn 0.1413014 0.01060011 -0.9899099
vn 0.1413014 0.01060011 -0.9899099
vn 0.1413014 0.01060011 -0.9899099
vn 0.7218102 0.01060015 -0.6920097
vn 0.7218102 0.01060015 -0.6920097
vn 0.7218102 0.01060015 -0.6920097
vn 0.7218102 0.01060015 -0.6920097
vn -0.2058074 0.01060038 -0.9785351
vn -0.2058074 0.01060038 -0.9785351
vn -0.2058074 0.01060038 -0.9785351
vn -0.2058074 0.01060038 -0.9785351
vn -0.04949915 0.01349977 -0.9986829
vn -0.04949915 0.01349977 -0.9986829
vn -0.04949915 0.01349977 -0.9986829
vn -0.04949915 0.01349977 -0.9986829
vn -0.3880216 0.01350075 -0.9215514
vn -0.3880216 0.01350075 -0.9215514
vn -0.3880216 0.01350075 -0.9215514
vn -0.3880216 0.01350075 -0.9215514
vn -0.6797866 0.01349974 -0.7332856
vn -0.6797866 0.01349974 -0.7332856
vn -0.6797866 0.01349974 -0.7332856
vn -0.6797866 0.01349974 -0.7332856
vn -0.8896166 0.01350025 -0.4565085
vn -0.8896166 0.01350025 -0.4565085
vn -0.8896166 0.01350025 -0.4565085
vn -0.8896166 0.01350025 -0.4565085
vn -0.9921026 0.01350003 -0.1247003
vn -0.9921026 0.01350003 -0.1247003
vn -0.9921026 0.01350003 -0.1247003
vn -0.9921026 0.01350003 -0.1247003
vn -0.9749289 0.0135004 0.2221066
vn -0.9749289 0.0135004 0.2221066
vn -0.9749289 0.0135004 0.2221066
vn -0.9749289 0.0135004 0.2221066
vn -0.8401583 0.01349933 0.5421731
vn -0.8401583 0.01349933 0.5421731
vn -0.8401583 0.01349933 0.5421731
vn -0.8401583 0.01349933 0.5421731
vn -0.6040972 0.01349994 0.7967963
vn -0.6040972 0.01349994 0.7967963
vn -0.6040972 0.01349994 0.7967963
vn -0.6040972 0.01349994 0.7967963
vn -0.2950918 0.01349963 0.9553736
vn -0.2950918 0.01349963 0.9553736
vn -0.2950918 0.01349963 0.9553736
vn -0.2950918 0.01349963 0.9553736
vn 0.04949915 0.01349977 0.9986829
vn 0.04949915 0.01349977 0.9986829
vn 0.04949915 0.01349977 0.9986829
vn 0.04949915 0.01349977 0.9986829
vn 0.3880216 0.01350075 0.9215514
vn 0.3880216 0.01350075 0.9215514
vn 0.3880216 0.01350075 0.9215514
vn 0.3880216 0.01350075 0.9215514
vn 0.6797866 0.01349974 0.7332856
vn 0.6797866 0.01349974 0.7332856
vn 0.6797866 0.01349974 0.7332856
vn 0.6797866 0.01349974 0.7332856
vn 0.8896166 0.01350025 0.4565085
vn 0.8896166 0.01350025 0.4565085
vn 0.8896166 0.01350025 0.4565085
vn 0.8896166 0.01350025 0.4565085
vn 0.9921026 0.01350003 0.1247003
vn 0.9921026 0.01350003 0.1247003
vn 0.9921026 0.01350003 0.1247003
vn 0.9921026 0.01350003 0.1247003
vn 0.9749289 0.0135004 -0.2221066
vn 0.9749289 0.0135004 -0.2221066
vn 0.9749289 0.0135004 -0.2221066
vn 0.9749289 0.0135004 -0.2221066
vn 0.8401583 0.01349933 -0.5421731
vn 0.8401583 0.01349933 -0.5421731
vn 0.8401583 0.01349933 -0.5421731
vn 0.8401583 0.01349933 -0.5421731
vn 0.6040972 0.01349994 -0.7967963
vn 0.6040972 0.01349994 -0.7967963
vn 0.6040972 0.01349994 -0.7967963
vn 0.6040972 0.01349994 -0.7967963
vn 0.2950918 0.01349963 -0.9553736
vn 0.2950918 0.01349963 -0.9553736
vn 0.2950918 0.01349963 -0.9553736
vn 0.2950918 0.01349963 -0.9553736
g OldColumn01_part_01_0
f 3/3/3 2/2/2 1/1/1
f 2/2/2 4/4/4 1/1/1
f 7/7/7 6/6/6 5/5/5
f 6/6/6 8/8/8 5/5/5
f 11/11/11 10/10/10 9/9/9
f 10/10/10 12/12/12 9/9/9
f 15/15/15 14/14/14 13/13/13
f 14/14/14 16/16/16 13/13/13
f 19/19/19 18/18/18 17/17/17
f 18/18/18 20/20/20 17/17/17
f 23/23/23 22/22/22 21/21/21
f 22/22/22 24/24/24 21/21/21
f 27/27/27 26/26/26 25/25/25
f 26/26/26 28/28/28 25/25/25
f 31/31/31 30/30/30 29/29/29
f 30/30/30 32/32/32 29/29/29
f 35/35/35 34/34/34 33/33/33
f 34/34/34 36/36/36 33/33/33
f 39/39/39 38/38/38 37/37/37
f 38/38/38 40/40/40 37/37/37
f 43/43/43 42/42/42 41/41/41
f 42/42/42 44/44/44 41/41/41
f 47/47/47 46/46/46 45/45/45
f 46/46/46 48/48/48 45/45/45
f 51/51/51 50/50/50 49/49/49
f 50/50/50 52/52/52 49/49/49
f 55/55/55 54/54/54 53/53/53
f 54/54/54 56/56/56 53/53/53
f 59/59/59 58/58/58 57/57/57
f 58/58/58 60/60/60 57/57/57
f 63/63/63 62/62/62 61/61/61
f 62/62/62 64/64/64 61/61/61
f 67/67/67 66/66/66 65/65/65
f 66/66/66 68/68/68 65/65/65
f 71/71/71 70/70/70 69/69/69
f 70/70/70 72/72/72 69/69/69
f 75/75/75 74/74/74 73/73/73
f 74/74/74 76/76/76 73/73/73
f 79/79/79 78/78/78 77/77/77
f 78/78/78 80/80/80 77/77/77
f 83/83/83 82/82/82 81/81/81
f 82/82/82 84/84/84 81/81/81
f 87/87/87 86/86/86 85/85/85
f 86/86/86 88/88/88 85/85/85
f 91/91/91 90/90/90 89/89/89
f 90/90/90 92/92/92 89/89/89
f 95/95/95 94/94/94 93/93/93
f 94/94/94 96/96/96 93/93/93
f 99/99/99 98/98/98 97/97/97
f 98/98/98 100/100/100 97/97/97
f 103/103/103 102/102/102 101/101/101
f 102/102/102 104/104/104 101/101/101
f 107/107/107 106/106/106 105/105/105
f 106/106/106 108/108/108 105/105/105
f 111/111/111 110/110/110 109/109/109
f 110/110/110 112/112/112 109/109/109
f 115/115/115 114/114/114 113/113/113
f 114/114/114 116/116/116 113/113/113
f 119/119/119 118/118/118 117/117/117
f 118/118/118 120/120/120 117/117/117
f 123/123/123 122/122/122 121/121/121
f 122/122/122 124/124/124 121/121/121
f 127/127/127 126/126/126 125/125/125
f 126/126/126 128/128/128 125/125/125
f 131/131/131 130/130/130 129/129/129
f 130/130/130 132/132/132 129/129/129
f 135/135/135 134/134/134 133/133/133
f 134/134/134 136/136/136 133/133/133
f 139/139/139 138/138/138 137/137/137
f 138/138/138 140/140/140 137/137/137
f 143/143/143 142/142/142 141/141/141
f 142/142/142 144/144/144 141/141/141
f 147/147/147 146/146/146 145/145/145
f 146/146/146 148/148/148 145/145/145
f 151/151/151 150/150/150 149/149/149
f 150/150/150 152/152/152 149/149/149
f 155/155/155 154/154/154 153/153/153
f 154/154/154 156/156/156 153/153/153
f 159/159/159 158/158/158 157/157/157
f 158/158/158 160/160/160 157/157/157
f 163/163/163 162/162/162 161/161/161
f 162/162/162 164/164/164 161/161/161
f 167/167/167 166/166/166 165/165/165
f 166/166/166 168/168/168 165/165/165
f 171/171/171 170/170/170 169/169/169
f 170/170/170 172/172/172 169/169/169
f 175/175/175 174/174/174 173/173/173
f 174/174/174 176/176/176 173/173/173
f 179/179/179 178/178/178 177/177/177
f 178/178/178 180/180/180 177/177/177
f 183/183/183 182/182/182 181/181/181
f 182/182/182 184/184/184 181/181/181
f 187/187/187 186/186/186 185/185/185
f 186/186/186 188/188/188 185/185/185
f 191/191/191 190/190/190 189/189/189
f 190/190/190 192/192/192 189/189/189
f 195/195/195 194/194/194 193/193/193
f 194/194/194 196/196/196 193/193/193
f 199/199/199 198/198/198 197/197/197
f 198/198/198 200/200/200 197/197/197
f 203/203/203 202/202/202 201/201/201
f 202/202/202 204/204/204 201/201/201
f 207/207/207 206/206/206 205/205/205
f 206/206/206 208/208/208 205/205/205
f 211/211/211 210/210/210 209/209/209
f 210/210/210 212/212/212 209/209/209
f 215/215/215 214/214/214 213/213/213
f 214/214/214 216/216/216 213/213/213
