g OldColumn02
v -13.0556 101.2135 2.455
v -11.9747 0.1766 3.3118
v -13.4985 101.2101 2.7021
v -11.5318 0.1801 3.0647
v -14.2408 103.6533 3.899
v -13.0419 0.1801 5.4996
v -14.2653 103.6567 4.4056
v -13.0174 0.1766 4.9931
v -12.5859 96.2117 0.2084
v -11.2772 0.1766 0.6438
v -12.9176 96.2083 0.5921
v -10.9455 0.1801 0.2602
v -13.2058 101.2101 1.9706
v -11.5318 0.1801 3.0647
v -13.0556 101.2135 2.455
v -11.682 0.1766 2.5803
v -12.913 101.2135 -2.0634
v -11.5343 0.1766 -2.1018
v -13.0935 101.2101 -1.5894
v -11.3538 0.1801 -2.5758
v -12.8928 96.2083 -0.1954
v -10.9455 0.1801 0.2602
v -12.5859 96.2117 0.2084
v -11.2524 0.1766 -0.1436
v -13.9973 84.44 -4.0863
v -12.715 0.1766 -4.5939
v -14.0048 84.4366 -3.5792
v -12.7075 0.1801 -5.101
v -13.3395 101.2101 -2.3379
v -11.3538 0.1801 -2.5758
v -12.913 101.2135 -2.0634
v -11.7803 0.1766 -2.8503
v -15.7082 101.2135 -5.6163
v -14.6768 0.1766 -6.532
v -15.5418 101.2101 -5.1372
v -14.8432 0.1801 -7.0111
v -14.492 84.4366 -4.1984
v -12.7075 0.1801 -5.101
v -13.9973 84.44 -4.0863
v -13.2021 0.1766 -5.2131
v -17.8391 96.6916 -6.4689
v -17.1831 0.1766 -7.6821
v -17.5189 96.6882 -6.0757
v -17.5033 0.1801 -8.0754
v -16.2113 101.2101 -5.5525
v -14.8432 0.1801 -7.0111
v -15.7082 101.2135 -5.6163
v -15.3463 0.1766 -6.9472
v -20.1332 101.2135 -6.5413
v -19.9316 0.1766 -7.9057
v -19.6978 101.2101 -6.2813
v -20.3671 0.1801 -8.1658
v -18.2901 96.6882 -6.2369
v -17.5033 0.1801 -8.0754
v -17.8391 96.6916 -6.4689
v -17.9543 0.1766 -7.8433
v -22.3137 87.9973 -5.8247
v -22.5909 0.1766 -7.1758
v -21.8155 87.9938 -5.7293
v -23.089 0.1801 -7.2712
v -20.4776 101.2101 -6.169
v -20.3671 0.1801 -8.1658
v -20.1332 101.2135 -6.5413
v -20.7115 0.1766 -7.7935
v -24.1175 80.1882 -4.4056
v -24.8402 0.1766 -5.5803
v -23.6168 80.1848 -4.4863
v -25.3409 0.1801 -5.4996
v -22.5099 87.9938 -5.3571
v -23.089 0.1801 -7.2712
v -22.3137 87.9973 -5.8247
v -23.2853 0.1766 -6.8036
v -25.3322 109.6929 -2.4462
v -26.4081 0.1766 -3.3118
v -24.8843 108.6966 -2.7021
v -26.851 0.1801 -3.0647
v -24.142 80.1848 -3.899
v -25.3409 0.1801 -5.4996
v -24.1175 80.1882 -4.4056
v -25.3654 0.1766 -4.9931
v -25.7969 109.4529 -0.2084
v -27.1056 0.1766 -0.6438
v -25.4652 110.1056 -0.5921
v -27.4373 0.1801 -0.2602
v -25.177 110.895 -1.9706
v -26.851 0.1801 -3.0647
v -25.3322 109.6929 -2.4462
v -25.177 110.895 -1.9706
v -26.7008 0.1766 -2.5803
v -25.4698 101.2135 2.0634
v -26.8485 0.1766 2.1018
v -25.2893 101.2101 1.5894
v -27.029 0.1801 2.5758
v -25.49 108.2364 0.1954
v -27.4373 0.1801 -0.2602
v -25.7969 109.4529 -0.2084
v -25.49 108.2364 0.1954
v -27.1304 0.1766 0.1436
v -24.5193 104.1949 4.2718
v -25.6679 0.1766 4.5939
v -24.5118 104.1914 3.7647
v -25.6753 0.1801 5.101
v -25.0433 101.2101 2.3379
v -27.029 0.1801 2.5758
v -25.4698 101.2135 2.0634
v -26.6025 0.1766 2.8503
v -22.6746 101.2135 5.6163
v -23.7061 0.1766 6.532
v -22.841 101.2101 5.1372
v -23.5396 0.1801 7.0111
v -24.0247 104.1914 4.3839
v -25.6753 0.1801 5.101
v -24.5193 104.1949 4.2718
v -25.1807 0.1766 5.2131
v -20.5437 111.8286 6.4689
v -21.1997 0.1766 7.6821
v -20.8639 110.4665 6.0757
v -20.8795 0.1801 8.0754
v -22.1715 101.2101 5.5525
v -23.5396 0.1801 7.0111
v -22.6746 101.2135 5.6163
v -23.0365 0.1766 6.9472
v -18.2496 111.8286 6.5413
v -18.4512 0.1766 7.9057
v -18.685 113.0637 6.2813
v -18.0157 0.1801 8.1658
v -20.0927 112.4577 6.2369
v -20.8795 0.1801 8.0754
v -20.5437 111.8286 6.4689
v -20.4285 0.1766 7.8434
v -16.0692 101.2135 5.8247
v -15.7919 0.1766 7.1758
v -16.5673 101.2101 5.7293
v -15.2938 0.1801 7.2712
v -17.9052 110.9391 6.169
v -18.0157 0.1801 8.1658
v -18.2496 111.8286 6.5413
v -17.9052 110.9391 6.169
v -17.6714 0.1766 7.7935
v -14.2653 103.6567 4.4056
v -13.5426 0.1766 5.5803
v -14.766 103.6533 4.4863
v -13.0419 0.1801 5.4996
v -15.8729 101.2101 5.3571
v -15.2938 0.1801 7.2712
v -16.0692 101.2135 5.8247
v -15.0975 0.1766 6.8036
v -11.9747 0.1766 3.3118
v -14.2408 103.6533 3.899
v -13.4985 101.2101 2.7021
v -13.0174 0.1766 4.9931
v -11.2772 0.1766 0.6438
v -13.2058 101.2101 1.9706
v -12.9176 96.2083 0.5921
v -11.682 0.1766 2.5803
v -11.5343 0.1766 -2.1018
v -12.8928 96.2083 -0.1954
v -13.0935 101.2101 -1.5894
v -11.2524 0.1766 -0.1436
v -12.715 0.1766 -4.5939
v -13.3395 101.2101 -2.3379
v -14.0048 84.4366 -3.5792
v -11.7803 0.1766 -2.8503
v -14.6768 0.1766 -6.532
v -14.492 84.4366 -4.1984
v -15.5418 101.2101 -5.1372
v -13.2021 0.1766 -5.2131
v -17.1831 0.1766 -7.6821
v -16.2113 101.2101 -5.5525
v -17.5189 96.6882 -6.0757
v -15.3463 0.1766 -6.9472
v -19.9316 0.1766 -7.9057
v -18.2901 96.6882 -6.2369
v -19.6978 101.2101 -6.2813
v -17.9543 0.1766 -7.8433
v -22.5909 0.1766 -7.1758
v -20.4776 101.2101 -6.169
v -21.8155 87.9938 -5.7293
v -20.7115 0.1766 -7.7935
v -24.8402 0.1766 -5.5803
v -22.5099 87.9938 -5.3571
v -23.6168 80.1848 -4.4863
v -23.2853 0.1766 -6.8036
v -26.4081 0.1766 -3.3118
v -24.142 80.1848 -3.899
v -24.8843 108.6966 -2.7021
v -25.3654 0.1766 -4.9931
v -27.1056 0.1766 -0.6438
v -25.177 110.895 -1.9706
v -25.4652 110.1056 -0.5921
v -26.7008 0.1766 -2.5803
v -25.177 110.895 -1.9706
v -26.8485 0.1766 2.1018
v -25.49 108.2364 0.1954
v -25.2893 101.2101 1.5894
v -27.1304 0.1766 0.1436
v -25.49 108.2364 0.1954
v -25.6679 0.1766 4.5939
v -25.0433 101.2101 2.3379
v -24.5118 104.1914 3.7647
v -26.6025 0.1766 2.8503
v -23.7061 0.1766 6.532
v -24.0247 104.1914 4.3839
v -22.841 101.2101 5.1372
v -25.1807 0.1766 5.2131
v -21.1997 0.1766 7.6821
v -22.1715 101.2101 5.5525
v -20.8639 110.4665 6.0757
v -23.0365 0.1766 6.9472
v -18.4512 0.1766 7.9057
v -20.0927 112.4577 6.2369
v -18.685 113.0637 6.2813
v -20.4285 0.1766 7.8434
v -15.7919 0.1766 7.1758
v -17.9052 110.9391 6.169
v -16.5673 101.2101 5.7293
v -17.6714 0.1766 7.7935
v -17.9052 110.9391 6.169
v -13.5426 0.1766 5.5803
v -15.8729 101.2101 5.3571
v -14.766 103.6533 4.4863
v -15.0975 0.1766 6.8036
vt 0.309 0.8351
vt 0.3019 0.043
vt 0.3001 0.8351
vt 0.309 0.043
vt 0.268 0.8624
vt 0.2591 0.043
vt 0.2591 0.8624
vt 0.2662 0.043
vt 0.3589 0.7792
vt 0.3518 0.043
vt 0.35 0.7791
vt 0.3589 0.043
vt 0.3179 0.8351
vt 0.309 0.043
vt 0.309 0.8351
vt 0.3161 0.043
vt 0.409 0.8351
vt 0.4019 0.043
vt 0.4 0.8351
vt 0.409 0.043
vt 0.3679 0.7791
vt 0.3589 0.043
vt 0.3589 0.7792
vt 0.3661 0.043
vt 0.4591 0.6476
vt 0.452 0.043
vt 0.4501 0.6475
vt 0.4591 0.043
vt 0.418 0.8351
vt 0.409 0.043
vt 0.409 0.8351
vt 0.4161 0.043
vt 0.5093 0.8351
vt 0.5022 0.043
vt 0.5003 0.8351
vt 0.5093 0.043
vt 0.4681 0.6475
vt 0.4591 0.043
vt 0.4591 0.6476
vt 0.4663 0.043
vt 0.5595 0.7845
vt 0.5524 0.043
vt 0.5505 0.7845
vt 0.5595 0.043
vt 0.5183 0.8351
vt 0.5093 0.043
vt 0.5093 0.8351
vt 0.5165 0.043
vt 0.6096 0.8351
vt 0.6025 0.043
vt 0.6006 0.8351
vt 0.6096 0.043
vt 0.5685 0.7845
vt 0.5595 0.043
vt 0.5595 0.7845
vt 0.5666 0.043
vt 0.6596 0.6873
vt 0.6525 0.043
vt 0.6507 0.6873
vt 0.6596 0.043
vt 0.6186 0.8351
vt 0.6096 0.043
vt 0.6096 0.8351
vt 0.6167 0.043
vt 0.7095 0.6
vt 0.7024 0.043
vt 0.7006 0.6
vt 0.7095 0.043
vt 0.6686 0.6873
vt 0.6596 0.043
vt 0.6596 0.6873
vt 0.6667 0.043
vt 0.7594 0.9346
vt 0.7523 0.043
vt 0.7505 0.9345
vt 0.7594 0.043
vt 0.7185 0.6
vt 0.7095 0.043
vt 0.7095 0.6
vt 0.7166 0.043
vt 0.8094 0.9346
vt 0.8023 0.043
vt 0.8004 0.9345
vt 0.8094 0.043
vt 0.7684 0.9345
vt 0.7594 0.043
vt 0.7594 0.9346
vt 0.7684 0.9345
vt 0.7665 0.043
vt 0.8594 0.8351
vt 0.8523 0.043
vt 0.8505 0.8351
vt 0.8594 0.043
vt 0.8184 0.9345
vt 0.8094 0.043
vt 0.8094 0.9346
vt 0.8184 0.9345
vt 0.8165 0.043
vt 0.9109 0.8684
vt 0.9024 0.043
vt 0.9023 0.8684
vt 0.9096 0.043
vt 0.8684 0.8351
vt 0.8594 0.043
vt 0.8594 0.8351
vt 0.8666 0.043
vt 0.0589 0.8351
vt 0.0517 0.043
vt 0.0499 0.8351
vt 0.0589 0.043
vt 0.9197 0.8684
vt 0.9096 0.043
vt 0.9109 0.8684
vt 0.9167 0.043
vt 0.1091 0.9439
vt 0.1019 0.043
vt 0.1001 0.9438
vt 0.1091 0.043
vt 0.0679 0.8351
vt 0.0589 0.043
vt 0.0589 0.8351
vt 0.066 0.043
vt 0.1592 0.9439
vt 0.152 0.043
vt 0.1502 0.9438
vt 0.1592 0.043
vt 0.118 0.9438
vt 0.1091 0.043
vt 0.1091 0.9439
vt 0.1162 0.043
vt 0.2092 0.8351
vt 0.2021 0.043
vt 0.2002 0.8351
vt 0.2092 0.043
vt 0.1681 0.9438
vt 0.1592 0.043
vt 0.1592 0.9439
vt 0.1681 0.9438
vt 0.1663 0.043
vt 0.2591 0.8624
vt 0.252 0.043
vt 0.2501 0.8624
vt 0.2591 0.043
vt 0.2181 0.8351
vt 0.2092 0.043
vt 0.2092 0.8351
vt 0.2163 0.043
vt 0.3019 0.043
vt 0.268 0.8624
vt 0.3001 0.8351
vt 0.2662 0.043
vt 0.3518 0.043
vt 0.3179 0.8351
vt 0.35 0.7791
vt 0.3161 0.043
vt 0.4019 0.043
vt 0.3679 0.7791
vt 0.4 0.8351
vt 0.3661 0.043
vt 0.452 0.043
vt 0.418 0.8351
vt 0.4501 0.6475
vt 0.4161 0.043
vt 0.5022 0.043
vt 0.4681 0.6475
vt 0.5003 0.8351
vt 0.4663 0.043
vt 0.5524 0.043
vt 0.5183 0.8351
vt 0.5505 0.7845
vt 0.5165 0.043
vt 0.6025 0.043
vt 0.5685 0.7845
vt 0.6006 0.8351
vt 0.5666 0.043
vt 0.6525 0.043
vt 0.6186 0.8351
vt 0.6507 0.6873
vt 0.6167 0.043
vt 0.7024 0.043
vt 0.6686 0.6873
vt 0.7006 0.6
vt 0.6667 0.043
vt 0.7523 0.043
vt 0.7185 0.6
vt 0.7505 0.9345
vt 0.7166 0.043
vt 0.8023 0.043
vt 0.7684 0.9345
vt 0.8004 0.9345
vt 0.7665 0.043
vt 0.7684 0.9345
vt 0.8523 0.043
vt 0.8184 0.9345
vt 0.8505 0.8351
vt 0.8165 0.043
vt 0.8184 0.9345
vt 0.9024 0.043
vt 0.8684 0.8351
vt 0.9023 0.8684
vt 0.8666 0.043
vt 0.9526 0.043
vt 0.9197 0.8684
vt 0.9508 0.8351
vt 0.9167 0.043
vt 0.1019 0.043
vt 0.0679 0.8351
vt 0.1001 0.9438
vt 0.066 0.043
vt 0.152 0.043
vt 0.118 0.9438
vt 0.1502 0.9438
vt 0.1162 0.043
vt 0.2021 0.043
vt 0.1681 0.9438
vt 0.2002 0.8351
vt 0.1663 0.043
vt 0.1681 0.9438
vt 0.252 0.043
vt 0.2181 0.8351
vt 0.2501 0.8624
vt 0.2163 0.043
vn 0.4870047 0.01260012 0.8733085
vn 0.4870047 0.01260012 0.8733085
vn 0.4870047 0.01260012 0.8733085
vn 0.4870047 0.01260012 0.8733085
vn 0.998762 0.01229953 0.04819817
vn 0.998762 0.01229953 0.04819817
vn 0.998762 0.01229953 0.04819817
vn 0.998762 0.01229953 0.04819817
vn 0.7563444 0.01330078 0.6540384
vn 0.7563444 0.01330078 0.6540384
vn 0.7563444 0.01330078 0.6540384
vn 0.7563444 0.01330078 0.6540384
vn 0.9550107 0.01260014 -0.2963033
vn 0.9550107 0.01260014 -0.2963033
vn 0.9550107 0.01260014 -0.2963033
vn 0.9550107 0.01260014 -0.2963033
vn 0.9344342 0.01260046 0.355913
vn 0.9344342 0.01260046 0.355913
vn 0.9344342 0.01260046 0.355913
vn 0.9344342 0.01260046 0.355913
vn 0.796061 0.01329935 -0.6050703
vn 0.796061 0.01329935 -0.6050703
vn 0.796061 0.01329935 -0.6050703
vn 0.796061 0.01329935 -0.6050703
vn 0.999775 0.01509962 0.01489963
vn 0.999775 0.01509962 0.01489963
vn 0.999775 0.01509962 0.01489963
vn 0.999775 0.01509962 0.01489963
vn 0.5411291 0.01260068 -0.8408451
vn 0.5411291 0.01260068 -0.8408451
vn 0.5411291 0.01260068 -0.8408451
vn 0.5411291 0.01260068 -0.8408451
vn 0.9445943 0.01259992 -0.327998
vn 0.9445943 0.01259992 -0.327998
vn 0.9445943 0.01259992 -0.327998
vn 0.9445943 0.01259992 -0.327998
vn 0.2208956 0.0150997 -0.9751805
vn 0.2208956 0.0150997 -0.9751805
vn 0.2208956 0.0150997 -0.9751805
vn 0.2208956 0.0150997 -0.9751805
vn 0.7754159 0.01320027 -0.6313129
vn 0.7754159 0.01320027 -0.6313129
vn 0.7754159 0.01320027 -0.6313129
vn 0.7754159 0.01320027 -0.6313129
vn -0.1259938 0.01259938 -0.991951
vn -0.1259938 0.01259938 -0.991951
vn -0.1259938 0.01259938 -0.991951
vn -0.1259938 0.01259938 -0.991951
vn 0.5128069 0.01260017 -0.8584116
vn 0.5128069 0.01260017 -0.8584116
vn 0.5128069 0.01260017 -0.8584116
vn 0.5128069 0.01260017 -0.8584116
vn -0.4576245 0.01320071 -0.8890476
vn -0.4576245 0.01320071 -0.8890476
vn -0.4576245 0.01320071 -0.8890476
vn -0.4576245 0.01320071 -0.8890476
vn 0.1882044 0.01450034 -0.9820228
vn 0.1882044 0.01450034 -0.9820228
vn 0.1882044 0.01450034 -0.9820228
vn 0.1882044 0.01450034 -0.9820228
vn -0.7341121 0.01260021 -0.6789112
vn -0.7341121 0.01260021 -0.6789112
vn -0.7341121 0.01260021 -0.6789112
vn -0.7341121 0.01260021 -0.6789112
vn -0.1589922 0.01589922 -0.9871519
vn -0.1589922 0.01589922 -0.9871519
vn -0.1589922 0.01589922 -0.9871519
vn -0.1589922 0.01589922 -0.9871519
vn -0.9220065 0.0145001 -0.3869027
vn -0.9220065 0.0145001 -0.3869027
vn -0.9220065 0.0145001 -0.3869027
vn -0.9220065 0.0145001 -0.3869027
vn -0.4816823 0.01169957 -0.8762678
vn -0.4816823 0.01169957 -0.8762678
vn -0.4816823 0.01169957 -0.8762678
vn -0.4816823 0.01169957 -0.8762678
vn -0.9987111 0.01590018 -0.04820054
vn -0.9987111 0.01590018 -0.04820054
vn -0.9987111 0.01590018 -0.04820054
vn -0.9987111 0.01590018 -0.04820054
vn -0.7612972 0.01169996 -0.6482975
vn -0.7612972 0.01169996 -0.6482975
vn -0.7612972 0.01169996 -0.6482975
vn -0.7612972 0.01169996 -0.6482975
vn -0.95696 0.01159951 0.2899879
vn -0.95696 0.01159951 0.2899879
vn -0.95696 0.01159951 0.2899879
vn -0.95696 0.01159951 0.2899879
vn -0.95696 0.01159951 0.2899879
vn -0.9344342 0.01260046 -0.355913
vn -0.9344342 0.01260046 -0.355913
vn -0.9344342 0.01260046 -0.355913
vn -0.9344342 0.01260046 -0.355913
vn -0.7876377 0.01160056 0.6160295
vn -0.7876377 0.01160056 0.6160295
vn -0.7876377 0.01160056 0.6160295
vn -0.7876377 0.01160056 0.6160295
vn -0.7876377 0.01160056 0.6160295
vn -0.9998299 0.01100033 -0.01480044
vn -0.9998299 0.01100033 -0.01480044
vn -0.9998299 0.01100033 -0.01480044
vn -0.9998299 0.01100033 -0.01480044
vn -0.5411291 0.01260068 0.8408451
vn -0.5411291 0.01260068 0.8408451
vn -0.5411291 0.01260068 0.8408451
vn -0.5411291 0.01260068 0.8408451
vn -0.9445943 0.01259992 0.327998
vn -0.9445943 0.01259992 0.327998
vn -0.9445943 0.01259992 0.327998
vn -0.9445943 0.01259992 0.327998
vn -0.2209093 0.01020043 0.9752411
vn -0.2209093 0.01020043 0.9752411
vn -0.2209093 0.01020043 0.9752411
vn -0.2209093 0.01020043 0.9752411
vn -0.7849478 0.01129925 0.6194588
vn -0.7849478 0.01129925 0.6194588
vn -0.7849478 0.01129925 0.6194588
vn -0.7849478 0.01129925 0.6194588
vn 0.1259938 0.01259938 0.991951
vn 0.1259938 0.01259938 0.991951
vn 0.1259938 0.01259938 0.991951
vn 0.1259938 0.01259938 0.991951
vn -0.500676 0.01149945 0.8655584
vn -0.500676 0.01149945 0.8655584
vn -0.500676 0.01149945 0.8655584
vn -0.500676 0.01149945 0.8655584
vn 0.4512998 0.01139999 0.8922995
vn 0.4512998 0.01139999 0.8922995
vn 0.4512998 0.01139999 0.8922995
vn 0.4512998 0.01139999 0.8922995
vn -0.1882092 0.01260062 0.9820482
vn -0.1882092 0.01260062 0.9820482
vn -0.1882092 0.01260062 0.9820482
vn -0.1882092 0.01260062 0.9820482
vn 0.7408144 0.01140022 0.671613
vn 0.7408144 0.01140022 0.671613
vn 0.7408144 0.01140022 0.671613
vn 0.7408144 0.01140022 0.671613
vn 0.7408144 0.01140022 0.671613
vn 0.1590003 0.01230002 0.9872019
vn 0.1590003 0.01230002 0.9872019
vn 0.1590003 0.01230002 0.9872019
vn 0.1590003 0.01230002 0.9872019
vn 0.9220302 0.01260041 0.3869127
vn 0.9220302 0.01260041 0.3869127
vn 0.9220302 0.01260041 0.3869127
vn 0.9220302 0.01260041 0.3869127
vn 0.8498611 0.01559928 0.5267758
vn 0.8635654 0.01609936 0.5039798
vn 0.8640838 0.0160997 0.5030905
vn 0.8497159 0.01560029 0.5270099
vn 0.9788185 0.0160003 0.2041039
vn 0.9886317 0.01690054 0.1494048
vn 0.9892572 0.01699927 0.1451937
vn 0.9787143 0.01600024 0.204603
vn 0.9897236 0.0168004 -0.1420034
vn 0.9960746 0.0157996 -0.08709777
vn 0.9961091 0.01580014 -0.08670079
vn 0.9896532 0.0167992 -0.1424932
vn 0.8802782 0.0159996 -0.4741883
vn 0.7810234 0.01880056 -0.6242187
vn 0.7478642 0.01939907 -0.6635682
vn 0.8812304 0.01600055 -0.4724163
vn 0.668008 0.01910023 -0.7439089
vn 0.7897872 0.01529975 -0.6131901
vn 0.7906214 0.01520041 -0.6121166
vn 0.666479 0.0191994 -0.7452766
vn 0.3709983 0.01599993 -0.9284958
vn 0.3238823 0.01679908 -0.9459482
vn 0.320589 0.01689942 -0.9470676
vn 0.3714121 0.01600052 -0.9283302
vn 0.03200154 0.0167008 -0.9993482
vn 0.08190124 0.01580024 -0.9965152
vn 0.08229855 0.01579972 -0.9964825
vn 0.03149888 0.0166994 -0.9993643
vn -0.3136061 0.01600031 -0.9494184
vn -0.4462193 0.01820078 -0.8947386
vn -0.4738917 0.01869967 -0.8803846
vn -0.3121946 0.01599972 -0.9498835
vn -0.6190983 0.01839995 -0.7850979
vn -0.6933848 0.02019956 -0.7202842
vn -0.7033993 0.02049998 -0.7104993
vn -0.6182027 0.01840008 -0.7858034
vn -0.8478888 0.02009973 -0.529793
vn -0.6734802 0.0136996 -0.7390783
vn -0.6719085 0.01360017 -0.7405093
vn -0.849646 0.02019872 -0.5269665
vn -0.9787595 0.0145994 -0.2044915
vn -0.9803746 0.01469962 -0.1965949
vn -0.9803939 0.01469991 -0.1964988
vn -0.9787351 0.01460053 -0.2046074
vn -0.9803746 0.01469962 -0.1965949
vn -0.9895947 0.01499992 0.1430992
vn -0.9765452 0.01610075 0.2147099
vn -0.9749331 0.01620055 0.2219075
vn -0.9896815 0.01499972 0.1424973
vn -0.9765452 0.01610075 0.2147099
vn -0.8819908 0.01599983 0.470995
vn -0.9452812 0.01309974 0.3259935
vn -0.9456621 0.01309947 0.324887
vn -0.8812304 0.01600055 0.4724163
vn -0.6652781 0.01339956 0.7464755
vn -0.5145909 0.01609971 0.8572847
vn -0.5073818 0.01619942 0.8615691
vn -0.6665976 0.01339995 0.7452973
vn -0.3722051 0.01600022 0.9280127
vn -0.4567809 0.0143994 0.8894627
vn -0.457299 0.01429997 0.889198
vn -0.3714121 0.01600052 0.9283302
vn -0.0315999 0.01439996 0.9993969
vn -0.03759964 0.01429986 0.9991905
vn -0.03769951 0.01429981 0.9991868
vn -0.0315 0.0144 0.9994
vn 0.3130122 0.01460057 0.9496369
vn 0.4042113 0.01600045 0.9145256
vn 0.4166172 0.01620067 0.9089376
vn 0.3122013 0.01460006 0.9499038
vn 0.4042113 0.01600045 0.9145256
vn 0.6180074 0.01600019 0.7860094
vn 0.5969959 0.01549989 0.8020945
vn 0.5968193 0.0155005 0.8022259
vn 0.6182282 0.01600073 0.7858358
g OldColumn02_0
f 3/3/3 2/2/2 1/1/1
f 2/2/2 4/4/4 1/1/1
f 7/7/7 6/6/6 5/5/5
f 6/6/6 8/8/8 5/5/5
f 11/11/11 10/10/10 9/9/9
f 10/10/10 12/12/12 9/9/9
f 15/15/15 14/14/14 13/13/13
f 14/14/14 16/16/16 13/13/13
f 19/19/19 18/18/18 17/17/17
f 18/18/18 20/20/20 17/17/17
f 23/23/23 22/22/22 21/21/21
f 22/22/22 24/24/24 21/21/21
f 27/27/27 26/26/26 25/25/25
f 26/26/26 28/28/28 25/25/25
f 31/31/31 30/30/30 29/29/29
f 30/30/30 32/32/32 29/29/29
f 35/35/35 34/34/34 33/33/33
f 34/34/34 36/36/36 33/33/33
f 39/39/39 38/38/38 37/37/37
f 38/38/38 40/40/40 37/37/37
f 43/43/43 42/42/42 41/41/41
f 42/42/42 44/44/44 41/41/41
f 47/47/47 46/46/46 45/45/45
f 46/46/46 48/48/48 45/45/45
f 51/51/51 50/50/50 49/49/49
f 50/50/50 52/52/52 49/49/49
f 55/55/55 54/54/54 53/53/53
f 54/54/54 56/56/56 53/53/53
f 59/59/59 58/58/58 57/57/57
f 58/58/58 60/60/60 57/57/57
f 63/63/63 62/62/62 61/61/61
f 62/62/62 64/64/64 61/61/61
f 67/67/67 66/66/66 65/65/65
f 66/66/66 68/68/68 65/65/65
f 71/71/71 70/70/70 69/69/69
f 70/70/70 72/72/72 69/69/69
f 75/75/75 74/74/74 73/73/73
f 74/74/74 76/76/76 73/73/73
f 79/79/79 78/78/78 77/77/77
f 78/78/78 80/80/80 77/77/77
f 83/83/83 82/82/82 81/81/81
f 82/82/82 84/84/84 81/81/81
f 87/87/87 86/86/86 85/85/85
f 86/86/86 89/89/89 88/88/88
f 92/92/92 91/91/91 90/90/90
f 91/91/91 93/93/93 90/90/90
f 96/96/96 95/95/95 94/94/94
f 95/95/95 98/98/98 97/97/97
f 101/101/101 100/100/100 99/99/99
f 100/100/100 102/102/102 99/99/99
f 105/105/105 104/104/104 103/103/103
f 104/104/104 106/106/106 103/103/103
f 109/109/109 108/108/108 107/107/107
f 108/108/108 110/110/110 107/107/107
f 113/113/113 112/112/112 111/111/111
f 112/112/112 114/114/114 111/111/111
f 117/117/117 116/116/116 115/115/115
f 116/116/116 118/118/118 115/115/115
f 121/121/121 120/120/120 119/119/119
f 120/120/120 122/122/122 119/119/119
f 125/125/125 124/124/124 123/123/123
f 124/124/124 126/126/126 123/123/123
f 129/129/129 128/128/128 127/127/127
f 128/128/128 130/130/130 127/127/127
f 133/133/133 132/132/132 131/131/131
f 132/132/132 134/134/134 131/131/131
f 137/137/137 136/136/136 135/135/135
f 136/136/136 139/139/139 138/138/138
f 142/142/142 141/141/141 140/140/140
f 141/141/141 143/143/143 140/140/140
f 146/146/146 145/145/145 144/144/144
f 145/145/145 147/147/147 144/144/144
f 150/150/150 149/149/149 148/148/148
f 149/149/149 151/151/151 148/148/148
f 154/154/154 153/153/153 152/152/152
f 153/153/153 155/155/155 152/152/152
f 158/158/158 157/157/157 156/156/156
f 157/157/157 159/159/159 156/156/156
f 162/162/162 161/161/161 160/160/160
f 161/161/161 163/163/163 160/160/160
f 166/166/166 165/165/165 164/164/164
f 165/165/165 167/167/167 164/164/164
f 170/170/170 169/169/169 168/168/168
f 169/169/169 171/171/171 168/168/168
f 174/174/174 173/173/173 172/172/172
f 173/173/173 175/175/175 172/172/172
f 178/178/178 177/177/177 176/176/176
f 177/177/177 179/179/179 176/176/176
f 182/182/182 181/181/181 180/180/180
f 181/181/181 183/183/183 180/180/180
f 186/186/186 185/185/185 184/184/184
f 185/185/185 187/187/187 184/184/184
f 190/190/190 189/189/189 188/188/188
f 192/192/192 191/191/191 188/188/188
f 195/195/195 194/194/194 193/193/193
f 197/197/197 196/196/196 193/193/193
f 200/200/200 199/199/199 198/198/198
f 199/199/199 201/201/201 198/198/198
f 204/204/204 203/203/203 202/202/202
f 203/203/203 205/205/205 202/202/202
f 208/208/208 207/207/207 206/206/206
f 207/207/207 209/209/209 206/206/206
f 212/212/212 211/211/211 210/210/210
f 211/211/211 213/213/213 210/210/210
f 216/216/216 215/215/215 214/214/214
f 218/218/218 217/217/217 214/214/214
f 221/221/221 220/220/220 219/219/219
f 220/220/220 222/222/222 219/219/219
