g polySurface10_House3
v 10.33287 -0.011567 -17.15223
v 10.33287 5.114194 -7.212576
v 10.33287 -0.011567 -7.212576
v 10.33287 5.114194 -17.15223
v 16.98264 5.114194 -17.15223
v 16.98264 -0.011567 -7.212577
v 16.98264 5.114194 -7.212577
v 16.98264 -0.011567 -17.15223
v 10.33287 -0.011567 -7.212576
v 16.98264 5.114194 -7.212577
v 16.98264 -0.011567 -7.212577
v 10.33287 5.114194 -7.212576
v 13.65775 7.762479 -7.283768
v 16.98264 -0.011567 -17.15223
v 10.33287 5.114194 -17.15223
v 10.33287 -0.011567 -17.15223
v 16.98264 5.114194 -17.15223
v 16.98264 5.114194 -17.15223
v 13.65775 7.762479 -17.16976
v 10.33287 5.114194 -17.15223
vt 0.381864 0.27077
vt 0.548218 0.39339
vt 0.548218 0.27077
vt 0.379703 0.39339
vt 0.000265 0.394567
vt 0.240663 0.27077
vt 0.240663 0.394567
vt 0.000265 0.27077
vt 0.241578 0.27077
vt 0.376298 0.394567
vt 0.376298 0.27077
vt 0.241578 0.394567
vt 0.309148 0.45289
vt 0.749848 0.270831
vt 0.619535 0.387994
vt 0.619535 0.270831
vt 0.749848 0.387994
vt 0.621225 0.387742
vt 0.686381 0.453133
vt 0.751538 0.387742
vn -1 0 0
vn -1 0 0
vn -1 0 0
vn -1 0 0
vn 1 0 0
vn 1 0 0
vn 1 0 0
vn 1 0 0
vn 0 0 1
vn 0 0 1
vn 0 0 1
vn 0 0 1
vn 0 0.026872 0.9996389
vn 0 0 -1
vn 0 0 -1
vn 0 0 -1
vn 0 0 -1
vn 0 -0.006619 -0.9999781
vn 0 -0.006619 -0.9999781
vn 0 -0.006619 -0.9999781
g polySurface10_House3_0
f 3/3/3 2/2/2 1/1/1
f 2/2/2 4/4/4 1/1/1
f 7/7/7 6/6/6 5/5/5
f 6/6/6 8/8/8 5/5/5
f 11/11/11 10/10/10 9/9/9
f 10/10/10 12/12/12 9/9/9
f 10/10/10 13/13/13 12/12/12
f 16/16/16 15/15/15 14/14/14
f 15/15/15 17/17/17 14/14/14
f 20/20/20 19/19/19 18/18/18
