g polySurface1_HouseONE
v -9.238059 0.012238 -7.945931
v -0.94597 4.288368 -7.945931
v -0.94597 0.012238 -7.945931
v -9.238059 4.288368 -7.945931
v -9.238059 4.288368 -16.23802
v -0.94597 0.012238 -16.23802
v -0.94597 4.288368 -16.23802
v -9.238059 0.012238 -16.23802
v -0.94597 0.012238 -7.945931
v -0.94597 4.288368 -16.23802
v -0.94597 0.012238 -16.23802
v -0.94597 4.288368 -7.945931
v -9.238059 0.012238 -16.23802
v -9.238059 4.288368 -7.945931
v -9.238059 0.012238 -7.945931
v -9.238059 4.288368 -16.23802
vt 0.327914 0.651903
vt 0.484496 0.759396
vt 0.484496 0.651903
vt 0.327914 0.759396
vt 0.015811 0.758945
vt 0.171463 0.651903
vt 0.171463 0.758945
vt 0.015811 0.651903
vt 0.171383 0.651903
vt 0.328163 0.759529
vt 0.328163 0.651903
vt 0.171383 0.759529
vt 0.640235 0.651903
vt 0.484041 0.759238
vt 0.484041 0.651903
vt 0.640235 0.759238
vn 0 0 1
vn 0 0 1
vn 0 0 1
vn 0 0 1
vn 0 0 -1
vn 0 0 -1
vn 0 0 -1
vn 0 0 -1
vn 1 0 0
vn 1 0 0
vn 1 0 0
vn 1 0 0
vn -1 0 0
vn -1 0 0
vn -1 0 0
vn -1 0 0
g polySurface1_HouseONE_0
f 3/3/3 2/2/2 1/1/1
f 2/2/2 4/4/4 1/1/1
f 7/7/7 6/6/6 5/5/5
f 6/6/6 8/8/8 5/5/5
f 11/11/11 10/10/10 9/9/9
f 10/10/10 12/12/12 9/9/9
f 15/15/15 14/14/14 13/13/13
f 14/14/14 16/16/16 13/13/13
