g Prism001
v 29.2105 10 17.2478
v 34.2105 10 20.1345
v 24.2105 10 20.1345
v 29.2105 10 11.4743
v 24.2105 0 20.1345
v 34.2105 0 20.1345
v 29.2105 0 17.2478
v 29.2105 0 11.4743
v 24.2105 10 20.1345
v 34.2105 0 20.1345
v 24.2105 0 20.1345
v 34.2105 10 20.1345
v 34.2105 10 20.1345
v 29.2105 0 11.4743
v 34.2105 0 20.1345
v 29.2105 10 11.4743
v 29.2105 10 11.4743
v 24.2105 0 20.1345
v 29.2105 0 11.4743
v 24.2105 10 20.1345
vt 0.5 0.3333
vt 1 0
vt 0 0
vt 0.5 1
vt 1 1
vt 0 1
vt 0.5 0.6667
vt 0.5 0
vt 0 1
vt 0.3333 0
vt 0 0
vt 0.3333 1
vt 0.3333 1
vt 0.6667 0
vt 0.3333 0
vt 0.6667 1
vt 0.6667 1
vt 1 0
vt 0.6667 0
vt 1 1
vn 0 1 0
vn 0 1 0
vn 0 1 0
vn 0 1 0
vn 0 -1 0
vn 0 -1 0
vn 0 -1 0
vn 0 -1 0
vn 0 0 1
vn 0 0 1
vn 0 0 1
vn 0 0 1
vn 0.8660191 0 -0.500011
vn 0.8660191 0 -0.500011
vn 0.8660191 0 -0.500011
vn 0.8660191 0 -0.500011
vn -0.8660191 0 -0.500011
vn -0.8660191 0 -0.500011
vn -0.8660191 0 -0.500011
vn -0.8660191 0 -0.500011
g Prism001_0
f 3/3/3 2/2/2 1/1/1
f 2/2/2 4/4/4 1/1/1
f 4/4/4 3/3/3 1/1/1
f 7/7/7 6/6/6 5/5/5
f 7/7/7 8/8/8 6/6/6
f 7/7/7 5/5/5 8/8/8
f 11/11/11 10/10/10 9/9/9
f 10/10/10 12/12/12 9/9/9
f 15/15/15 14/14/14 13/13/13
f 14/14/14 16/16/16 13/13/13
f 19/19/19 18/18/18 17/17/17
f 18/18/18 20/20/20 17/17/17
