g stalagmite01
v 7.702142 8.063996 0.016564
v 3.950299 -0.016682 -8.642165
v 9.494828 -0.008142 0.345921
v 3.1892 8.397541 -7.308053
v 2.472641 20.59252 -6.007772
v 4.490116 7.578178 8.013917
v 9.494828 -0.008142 0.345921
v 3.486116 19.94057 5.395431
v 5.871439 21.33352 -0.567502
v 4.523067 31.36742 0.352801
v 3.486116 19.94057 5.395431
v 1.506023 30.50331 4.870367
v 2.245409 34.27028 -0.212357
v 1.506023 30.50331 4.870367
v 1.506023 30.50331 4.870367
v -0.419045 34.17266 2.213794
v 1.506023 30.50331 4.870367
v -4.666196 30.28536 3.908413
v 1.506023 30.50331 4.870367
v -3.823754 22.33058 4.573395
v 3.486116 19.94057 5.395431
v -4.666196 30.28536 3.908413
v -7.712681 22.79314 0.224921
v -5.417158 8.18393 8.720897
v 3.486116 19.94057 5.395431
v -7.712681 22.79314 0.224921
v -5.888062 31.09723 0.511479
v -3.789869 32.60633 3.655896
v -5.122947 33.45698 -0.024654
v -4.130715 31.43208 -3.694205
v -5.9828 22.61744 -5.255617
v -7.712681 22.79314 0.224921
v -5.9828 22.61744 -5.255617
v -4.130715 31.43208 -3.694205
v -4.027048 33.75242 -1.245391
v -4.130715 31.43208 -3.694205
v 1.12428 31.20249 -3.692569
v 2.472641 20.59252 -6.007772
v -5.9828 22.61744 -5.255617
v 2.472641 20.59252 -6.007772
v 3.1892 8.397541 -7.308053
v 2.472641 20.59252 -6.007772
v -6.496493 -0.049977 -7.044838
v 3.950299 -0.016682 -8.642165
v -6.663438 8.746178 -5.24017
v -5.9828 22.61744 -5.255617
v -10.87457 8.534481 0.796398
v -6.663438 8.746178 -5.24017
v -10.56423 -0.080512 -0.264009
v -7.712681 22.79314 0.224921
v -10.87457 8.534481 0.796398
v -4.753775 -0.049976 7.893865
v -10.56423 -0.080512 -0.264009
v -5.417158 8.18393 8.720897
v -7.712681 22.79314 0.224921
v -5.417158 8.18393 8.720897
v 4.490116 7.578178 8.013917
v -4.753775 -0.049976 7.893865
v -5.417158 8.18393 8.720897
v 4.505476 -0.016681 6.756743
v -4.753775 -0.049976 7.893865
v 4.490116 7.578178 8.013917
v 9.494828 -0.008142 0.345921
v -5.417158 8.18393 8.720897
v 1.12428 31.20249 -3.692569
v 5.871439 21.33352 -0.567502
v 4.523067 31.36742 0.352801
v -0.925243 33.73886 -2.658943
v 2.472641 20.59252 -6.007772
v 5.871439 21.33352 -0.567502
v 2.472641 20.59252 -6.007772
v -0.925243 33.73886 -2.658943
v 4.523067 31.36742 0.352801
v 2.245409 34.27028 -0.212357
v -4.027048 33.75242 -1.245391
v 1.12428 31.20249 -3.692569
v -0.925243 33.73886 -2.658943
v -0.419045 34.17266 2.213794
v -4.666196 30.28536 3.908413
v -3.789869 32.60633 3.655896
v -2.560291 34.89663 0.641337
v -0.925243 33.73886 -2.658943
v 0.184268 35.3265 -0.38106
v -4.027048 33.75242 -1.245391
v -0.925243 33.73886 -2.658943
v -2.560291 34.89663 0.641337
v -5.122947 33.45698 -0.024654
v -3.789869 32.60633 3.655896
v 0.184268 35.3265 -0.38106
v -3.789869 32.60633 3.655896
v -2.560291 34.89663 0.641337
v 2.245409 34.27028 -0.212357
v 0.184268 35.3265 -0.38106
v -0.419045 34.17266 2.213794
v -3.789869 32.60633 3.655896
v -6.663438 8.746178 -5.24017
v -7.712681 22.79314 0.224921
v -0.925243 33.73886 -2.658943
v 2.245409 34.27028 -0.212357
v 0.184268 35.3265 -0.38106
vt 0.790475 0.301487
vt 0.955601 0.026293
vt 0.790373 0.026613
vt 0.95893 0.295701
vt 0.963207 0.563703
vt 0.630788 0.29528
vt 0.790373 0.026613
vt 0.635221 0.568757
vt 0.782164 0.582221
vt 0.79439 0.771767
vt 0.635221 0.568757
vt 0.632273 0.761115
vt 0.783777 0.84466
vt 0.632273 0.761115
vt 0.632273 0.761115
vt 0.592852 0.840336
vt 0.632273 0.761115
vt 0.460336 0.740175
vt 0.632273 0.761115
vt 0.481704 0.552357
vt 0.635221 0.568757
vt 0.460336 0.740175
vt 0.308814 0.533074
vt 0.491803 0.28688
vt 0.635221 0.568757
vt 0.308814 0.533074
vt 0.320439 0.726078
vt 0.485321 0.826336
vt 0.313814 0.814265
vt 0.151491 0.738592
vt 0.174325 0.540155
vt 0.308814 0.533074
vt 0.174325 0.540155
vt 0.151491 0.738592
vt 0.21962 0.825306
vt 0.151491 0.738592
vt 0.012319 0.761115
vt 0.019312 0.563703
vt 0.174325 0.540155
vt 0.019312 0.563703
vt 0.015035 0.295701
vt 0.019312 0.563703
vt 0.162517 0.025049
vt 0.011707 0.026293
vt 0.163793 0.276103
vt 0.174325 0.540155
vt 0.325774 0.275186
vt 0.163793 0.276103
vt 0.317911 0.023908
vt 0.308814 0.533074
vt 0.325774 0.275186
vt 0.499415 0.025049
vt 0.317911 0.023908
vt 0.491803 0.28688
vt 0.308814 0.533074
vt 0.491803 0.28688
vt 0.630788 0.29528
vt 0.499415 0.025049
vt 0.491803 0.28688
vt 0.629107 0.026293
vt 0.499415 0.025049
vt 0.630788 0.29528
vt 0.790373 0.026613
vt 0.491803 0.28688
vt 0.956214 0.761115
vt 0.782164 0.582221
vt 0.79439 0.771767
vt 0.992891 0.8248
vt 0.963207 0.563703
vt 0.782164 0.582221
vt 0.963207 0.563703
vt 0.992891 0.8248
vt 0.79439 0.771767
vt 0.783777 0.84466
vt 0.21962 0.825306
vt 0.012319 0.761115
vt 0.048996 0.8248
vt 0.592852 0.840336
vt 0.460336 0.740175
vt 0.485321 0.826336
vt 0.480797 0.904226
vt 0.571908 0.968865
vt 0.55756 0.907317
vt 0.468261 0.951836
vt 0.571908 0.968865
vt 0.480797 0.904226
vt 0.42158 0.910227
vt 0.485321 0.826336
vt 0.55756 0.907317
vt 0.485321 0.826336
vt 0.480797 0.904226
vt 0.627893 0.908953
vt 0.55756 0.907317
vt 0.592852 0.840336
vt 0.485321 0.826336
vt 0.163793 0.276103
vt 0.308814 0.533074
vt 0.571908 0.968865
vt 0.627893 0.908953
vt 0.55756 0.907317
vn 0.9747931 0.1651267 -0.1500391
vn 0.8416293 0.1614558 -0.5153565
vn 0.9737841 0.2130037 -0.07983627
vn 0.8466501 0.1314284 -0.5156646
vn 0.6882556 0.1733637 -0.7044497
vn 0.8820604 0.0915378 0.4621583
vn 0.9774079 0.1088133 0.1812002
vn 0.8894529 0.1414243 0.434595
vn 0.9846495 0.1538512 -0.08243302
vn 0.8070691 0.2945397 0.5117479
vn 0.6873186 0.2017139 0.6977855
vn 0.6570346 0.492342 0.5708808
vn 0.5001172 0.6942911 0.5175352
vn 0.4851995 0.5397863 0.6879042
vn 0.2917611 0.3989975 0.8692966
vn 0.200374 0.6632489 0.7210764
vn 0.1594745 0.4273453 0.8899122
vn -0.4868534 0.2159491 0.8463686
vn 0.02279049 0.3561275 0.9341595
vn -0.3712857 0.1352757 0.9186117
vn -0.01168912 0.1769083 0.9841579
vn -0.63254 0.2521355 0.7323393
vn -0.8933044 0.1481775 0.4243237
vn -0.4181748 0.1432823 0.8969951
vn 0.2102994 0.1931698 0.9583629
vn -0.9679844 0.1743384 0.1805886
vn -0.9580829 0.2854728 0.02413415
vn -0.662841 0.6360801 0.3950239
vn -0.7757398 0.6279348 -0.06265511
vn -0.8464762 0.3416091 -0.4083887
vn -0.8301207 0.1451084 -0.5383708
vn -0.9751939 0.2057754 0.0815675
vn -0.9314091 0.1718143 -0.320869
vn -0.493411 0.4208597 -0.7611983
vn -0.3835897 0.6971485 -0.6056755
vn -0.1904798 0.4607483 -0.8668497
vn 0.3497314 0.401111 -0.8466392
vn 0.4602064 0.1757157 -0.8702495
vn -0.104693 0.09856878 -0.9896079
vn 0.3539452 0.1849993 -0.9167868
vn -0.1540938 0.1119897 -0.9816891
vn 0.1969072 0.198205 -0.9601783
vn -0.551258 0.127816 -0.8244864
vn -0.1500632 0.1415698 -0.9784881
vn -0.5475191 0.1243279 -0.8275055
vn -0.3399067 0.153172 -0.9279018
vn -0.8305769 0.09712421 -0.5483693
vn -0.6585088 0.1120321 -0.7441874
vn -0.8571496 0.0323955 -0.5140476
vn -0.9638009 0.1619825 -0.2117767
vn -0.8199386 -0.007410744 0.5724035
vn -0.5878812 -0.1190868 0.8001338
vn -0.8102345 -0.1002672 0.5774656
vn -0.5168279 0.1223094 0.8473072
vn -0.9369295 0.1666377 0.3072377
vn -0.5102617 0.1911542 0.8385065
vn 0.2838085 -0.03852699 0.9581066
vn -0.4171816 -0.13834 0.8982325
vn -0.3156955 0.1250892 0.9405791
vn 0.4900736 -0.1413872 0.8601381
vn 0.09307496 -0.1283284 0.9873545
vn 0.5536828 0.0436896 0.8315807
vn 0.8617638 0.05924461 0.5038385
vn -0.308367 0.1961939 0.9308156
vn 0.487869 0.4446743 -0.7511649
vn 0.8041472 0.1580511 -0.5730332
vn 0.6454862 0.3801534 -0.6624432
vn 0.2306648 0.7483374 -0.6219203
vn 0.4602064 0.1757157 -0.8702495
vn 0.9640529 0.1602369 -0.211958
vn 0.5606034 0.1853095 -0.8070837
vn 0.5157264 0.5467544 -0.6596105
vn 0.6454862 0.3801534 -0.6624432
vn 0.4836027 0.4810854 -0.7312217
vn -0.3989141 0.4864023 -0.7773547
vn -0.1341801 0.3510022 -0.926711
vn -0.4034532 0.4991523 -0.7668588
vn 0.3186563 0.5463685 0.7745577
vn 0.03966953 0.1922539 0.9805431
vn 0.2985126 0.3999977 0.8665403
vn -0.3870186 0.9047035 -0.1781242
vn 0.01407826 0.7289064 -0.6844687
vn -0.07256477 0.9515721 -0.2987387
vn -0.341812 0.8129556 -0.4714528
vn 0.1288022 0.8305098 -0.5419071
vn -0.3057327 0.9520809 -0.008328062
vn -0.7757398 0.6279348 -0.06265511
vn -0.530246 0.7045234 0.4716842
vn 0.07627707 0.8659219 0.4943289
vn -0.0826269 0.7249472 0.6838306
vn -0.3188232 0.8982943 0.3023559
vn 0.5001172 0.6942911 0.5175352
vn -0.02293142 0.959626 0.2803428
vn 0.1213351 0.7930397 0.5969638
vn -0.530246 0.7045234 0.4716842
vn -0.8701702 0.102724 -0.4819249
vn -0.985234 0.1496566 0.08316869
vn 0.2306648 0.7483374 -0.6219203
vn 0.4836027 0.4810854 -0.7312217
vn 0.04916267 0.8080092 -0.5871151
g stalagmite01_0
f 3/3/3 2/2/2 1/1/1
f 2/2/2 4/4/4 1/1/1
f 4/4/4 5/5/5 1/1/1
f 7/7/7 1/1/1 6/6/6
f 6/6/6 1/1/1 8/8/8
f 1/1/1 9/9/9 8/8/8
f 8/8/8 9/9/9 10/10/10
f 12/12/12 11/11/11 10/10/10
f 14/14/14 10/10/10 13/13/13
f 16/16/16 15/15/15 13/13/13
f 18/18/18 17/17/17 16/16/16
f 18/18/18 20/20/20 19/19/19
f 20/20/20 21/21/21 19/19/19
f 23/23/23 20/20/20 22/22/22
f 24/24/24 20/20/20 23/23/23
f 25/25/25 20/20/20 24/24/24
f 27/27/27 26/26/26 22/22/22
f 27/27/27 22/22/22 28/28/28
f 29/29/29 27/27/27 28/28/28
f 30/30/30 27/27/27 29/29/29
f 30/30/30 31/31/31 27/27/27
f 33/33/33 32/32/32 27/27/27
f 35/35/35 34/34/34 29/29/29
f 37/37/37 36/36/36 35/35/35
f 37/37/37 38/38/38 36/36/36
f 40/40/40 39/39/39 36/36/36
f 39/39/39 42/42/42 41/41/41
f 44/44/44 43/43/43 41/41/41
f 43/43/43 45/45/45 41/41/41
f 45/45/45 46/46/46 41/41/41
f 48/48/48 43/43/43 47/47/47
f 43/43/43 49/49/49 47/47/47
f 47/47/47 50/50/50 48/48/48
f 53/53/53 52/52/52 51/51/51
f 52/52/52 54/54/54 51/51/51
f 51/51/51 56/56/56 55/55/55
f 59/59/59 58/58/58 57/57/57
f 61/61/61 60/60/60 57/57/57
f 60/60/60 63/63/63 62/62/62
f 57/57/57 25/25/25 64/64/64
f 67/67/67 66/66/66 65/65/65
f 67/67/67 65/65/65 68/68/68
f 70/70/70 69/69/69 65/65/65
f 71/71/71 70/70/70 1/1/1
f 74/74/74 73/73/73 72/72/72
f 77/77/77 76/76/76 75/75/75
f 80/80/80 79/79/79 78/78/78
f 83/83/83 82/82/82 81/81/81
f 85/85/85 84/84/84 81/81/81
f 84/84/84 87/87/87 86/86/86
f 88/88/88 86/86/86 87/87/87
f 91/91/91 90/90/90 89/89/89
f 16/16/16 92/92/92 89/89/89
f 95/95/95 94/94/94 93/93/93
f 97/97/97 33/33/33 96/96/96
f 100/100/100 99/99/99 98/98/98
