g thunderspear
v -0.0301903 0.446648 0.01789335
v -0.0003882186 0.4648489 0.03543629
v -0.0003856977 0.4466657 0.03544638
v -0.03019534 0.4648313 0.01788327
v -0.02989031 0.4466278 -0.01669592
v -0.02989535 0.4648111 -0.016706
v 0.02971637 0.4648464 0.01840005
v 0.02971889 0.4466631 0.01841265
v 0.03001384 0.4648262 -0.0161867
v 0.03001888 0.446643 -0.01617662
v 0.0002092347 0.4648086 -0.03374225
v 0.0002142765 0.4466253 -0.03372964
v 0.0002142765 0.4466253 -0.03372964
v 0.0002092347 0.4648086 -0.03374225
v -0.0290685 -0.4268363 -0.01616905
v -0.02936848 -0.4268161 0.01842022
v 0.001033569 -0.4268388 -0.03320529
v 0.0305407 -0.426801 0.018937
v 0.03084069 -0.4268211 -0.01565227
v 0.001033569 -0.4268388 -0.03320529
v 0.0004361157 -0.4267985 0.03597324
v 0.0004361157 -0.4267985 0.03597324
v -0.01934791 -0.4268136 0.01285407
v -0.02936848 -0.4268161 0.01842022
v 0.0007209774 -0.426801 0.02467205
v -0.01914624 -0.4268262 -0.01043401
v -0.0290685 -0.4268363 -0.01616905
v -0.01934791 -0.4268136 0.01285407
v 0.001121801 -0.4268262 -0.0219041
v 0.001033569 -0.4268388 -0.03320529
v -0.01913867 -0.454667 -0.01041888
v -0.01934035 -0.4546544 0.01286919
v 0.001129363 -0.4546695 -0.02188645
v -0.01913867 -0.454667 -0.01041888
v 0.0305407 -0.426801 0.018937
v 0.0007209774 -0.426801 0.02467205
v 0.02098901 -0.4268035 0.01320195
v 0.03084069 -0.4268211 -0.01565227
v 0.02098901 -0.4268035 0.01320195
v 0.02119069 -0.4268161 -0.01008612
v 0.001033569 -0.4268388 -0.03320529
v 0.02119069 -0.4268161 -0.01008612
v 0.001121801 -0.4268262 -0.0219041
v 0.02119573 -0.4546569 -0.01006848
v 0.02119069 -0.4268161 -0.01008612
v 0.001129363 -0.4546695 -0.02188645
v 0.02099406 -0.4546443 0.01321708
v 0.02098901 -0.4268035 0.01320195
v 0.042457 -0.4470413 -0.02210577
v 0.04204609 -0.4470161 0.02561234
v 0.02099406 -0.4546443 0.01321708
v 0.001338598 -0.4470665 -0.04632154
v 0.0005142636 -0.4470136 0.0491147
v 0.0007260192 -0.4546418 0.02468717
v 0.0009629838 -0.5933921 0.001477247
v 0.0007260192 -0.4546418 0.02468717
v -0.04060414 -0.4470362 0.02489641
v -0.01934035 -0.4546544 0.01286919
v 0.0007209774 -0.426801 0.02467205
v 0.02099406 -0.4546443 0.01321708
v -0.01934035 -0.4546544 0.01286919
v -0.04019323 -0.447064 -0.02282171
v -0.01913867 -0.454667 -0.01041888
v 0.001338598 -0.4470665 -0.04632154
v 0.001129363 -0.4546695 -0.02188645
v -0.01934791 -0.4268136 0.01285407
v 0.0007260192 -0.4546418 0.02468717
v -0.04060414 -0.4470362 0.02489641
v 0.0009629838 -0.5933921 0.001477247
v -0.04019323 -0.447064 -0.02282171
v 0.001338598 -0.4470665 -0.04632154
v 0.0005142636 -0.4470136 0.0491147
v 0.04204609 -0.4470161 0.02561234
v 0.0009629838 -0.5933921 0.001477247
v 0.0009629838 -0.5933921 0.001477247
v 0.0002092347 0.4648086 -0.03374225
v -0.02365612 0.4725452 -0.01314397
v -0.02989535 0.4648111 -0.016706
v 0.0003327588 0.4725452 -0.02671902
v -0.02389561 0.4725603 0.01441703
v -0.03019534 0.4648313 0.01788327
v -0.0001436913 0.4725755 0.0284055
v -0.0003882186 0.4648489 0.03543629
v -0.02389561 0.4725603 0.01441703
v -0.0001436913 0.4725755 0.0284055
v 0.02384519 0.472573 0.01483045
v 0.04356367 0.4915276 -0.02376957
v 0.02408216 0.4725578 -0.01273054
v 0.02971637 0.4648464 0.01840005
v 0.02384519 0.472573 0.01483045
v 0.04313008 0.4915554 0.02618207
v 0.04356367 0.4915276 -0.02376957
v -0.0001436913 0.4725755 0.0284055
v -0.0003428424 0.4915604 0.05078353
v -0.02389561 0.4725603 0.01441703
v -0.04338469 0.4915352 0.02543336
v -0.02365612 0.4725452 -0.01314397
v -0.04295361 0.4915049 -0.02451575
v 0.0005218263 0.4915024 -0.04911721
v 0.02408216 0.4725578 -0.01273054
v 0.03001384 0.4648262 -0.0161867
v 0.0003327588 0.4725452 -0.02671902
v 0.0002092347 0.4648086 -0.03374225
v 0.0005218263 0.4915024 -0.04911721
v -0.04295361 0.4915049 -0.02451575
v 0.0005218263 0.4915024 -0.04911721
v 0.04356367 0.4915276 -0.02376957
v -0.04338469 0.4915352 0.02543336
v 0.04313008 0.4915554 0.02618207
v -0.0003428424 0.4915604 0.05078353
vt 0.114604 0.966384
vt 0.154697 0.987461
vt 0.154698 0.966384
vt 0.114604 0.98746
vt 0.074512 0.966384
vt 0.074511 0.98746
vt 0.194792 0.987461
vt 0.194792 0.966384
vt 0.234886 0.987461
vt 0.234886 0.966384
vt 0.274981 0.987461
vt 0.274981 0.966384
vt 0.034419 0.966384
vt 0.034419 0.98746
vt 0.07451 0.012539
vt 0.114604 0.012539
vt 0.034415 0.012539
vt 0.194793 0.012539
vt 0.234887 0.012539
vt 0.274981 0.012539
vt 0.154698 0.012539
vt 0.461704 0.407843
vt 0.536561 0.375782
vt 0.520615 0.352478
vt 0.479157 0.433597
vt 0.588513 0.327021
vt 0.578366 0.304681
vt 0.536561 0.375782
vt 0.642999 0.300731
vt 0.645889 0.280999
vt 0.648266 0.384042
vt 0.60684 0.448904
vt 0.675094 0.333885
vt 0.648266 0.384042
vt 0.397711 0.463574
vt 0.479157 0.433597
vt 0.415706 0.489605
vt 0.334693 0.524659
vt 0.415706 0.489605
vt 0.359205 0.544486
vt 0.301079 0.611602
vt 0.359205 0.544486
vt 0.331172 0.60691
vt 0.420353 0.609235
vt 0.359205 0.544486
vt 0.367675 0.638705
vt 0.493339 0.575108
vt 0.415706 0.489605
vt 0.442192 0.670465
vt 0.529711 0.629004
vt 0.493339 0.575108
vt 0.358897 0.686664
vt 0.593047 0.573763
vt 0.552059 0.512942
vt 0.45217 0.944015
vt 0.552059 0.512942
vt 0.658257 0.503601
vt 0.60684 0.448904
vt 0.479157 0.433597
vt 0.493339 0.575108
vt 0.60684 0.448904
vt 0.709456 0.408983
vt 0.648266 0.384042
vt 0.725546 0.323926
vt 0.675094 0.333885
vt 0.536561 0.375782
vt 0.552059 0.512942
vt 0.666131 0.773282
vt 0.45217 0.944015
vt 0.708138 0.847012
vt 0.725546 0.930063
vt 0.603564 0.715961
vt 0.526447 0.680554
vt 0.45217 0.944015
vt 0.45217 0.944015
vt 0.809285 0.210762
vt 0.838213 0.285694
vt 0.859897 0.273383
vt 0.796621 0.231514
vt 0.872024 0.351447
vt 0.893144 0.34294
vt 0.90373 0.411301
vt 0.921417 0.405167
vt 0.872024 0.351447
vt 0.90373 0.411301
vt 0.915914 0.477836
vt 0.881688 0.552714
vt 0.929515 0.549236
vt 0.937706 0.47154
vt 0.915914 0.477836
vt 0.875389 0.485494
vt 0.881688 0.552714
vt 0.90373 0.411301
vt 0.860258 0.426388
vt 0.872024 0.351447
vt 0.835529 0.370625
vt 0.838213 0.285694
vt 0.798525 0.314736
vt 0.754609 0.249476
vt 0.929515 0.549236
vt 0.953916 0.546569
vt 0.934566 0.61539
vt 0.953916 0.621733
vt 0.891837 0.629534
vt 0.830384 0.676734
vt 0.891837 0.629534
vt 0.881688 0.552714
vt 0.758781 0.647115
vt 0.810085 0.523094
vt 0.748631 0.570294
vn -0.870352 -0.0002140061 0.4924301
vn -0.009796293 0.3274428 0.9448202
vn -0.008728199 0.0005490125 0.9999617
vn -0.8216385 0.3313169 0.463831
vn -0.8617046 -0.0007930134 -0.5074096
vn -0.8134984 0.3307402 -0.4783631
vn 0.8151699 0.3228633 0.4808923
vn 0.8616491 0.0007930184 0.5075039
vn 0.823401 0.3222797 -0.4670618
vn 0.8702849 0.0002140046 -0.4925487
vn 0.006531211 0.3262835 -0.9452494
vn 0.00851521 -0.0005800143 -0.9999636
vn 0.00851521 -0.0005800143 -0.9999636
vn 0.006531211 0.3262835 -0.9452494
vn -0.6823737 -0.6107457 -0.4016913
vn -0.6892129 -0.6102905 0.3905523
vn 0.007172102 -0.6105617 -0.7919363
vn 0.6830527 -0.6095007 0.4024274
vn 0.6899108 -0.6099517 -0.3898486
vn 0.007172102 -0.6105617 -0.7919363
vn -0.006500136 -0.6096507 0.7926435
vn -0.006500136 -0.6096507 0.7926435
vn -0.4736545 -0.8387532 0.2685972
vn -0.6892129 -0.6102905 0.3905523
vn -0.004486067 -0.8384786 0.5449162
vn -0.4689265 -0.8390619 -0.2758316
vn -0.6823737 -0.6107457 -0.4016913
vn -0.4736545 -0.8387532 0.2685972
vn 0.004883081 -0.8390899 -0.543971
vn 0.007172102 -0.6105617 -0.7919363
vn -0.3113831 0.9323492 -0.1837538
vn -0.3145014 0.9325489 0.1773177
vn 0.002869037 0.9323218 -0.3616186
vn -0.3113831 0.9323492 -0.1837538
vn 0.6830527 -0.6095007 0.4024274
vn -0.004486067 -0.8384786 0.5449162
vn 0.4693529 -0.8385119 0.2767772
vn 0.6899108 -0.6099517 -0.3898486
vn 0.4693529 -0.8385119 0.2767772
vn 0.4740582 -0.8388263 -0.267655
vn 0.007172102 -0.6105617 -0.7919363
vn 0.4740582 -0.8388263 -0.267655
vn 0.004883081 -0.8390899 -0.543971
vn 0.3140397 0.9325071 -0.1783527
vn 0.4740582 -0.8388263 -0.267655
vn 0.002869037 0.9323218 -0.3616186
vn 0.310932 0.932703 0.1827193
vn 0.4693529 -0.8385119 0.2767772
vn 0.7051477 0.5858477 -0.3994361
vn 0.6981333 0.5863099 0.4109142
vn 0.310932 0.932703 0.1827193
vn 0.006836144 0.5854494 -0.8106801
vn -0.00714119 0.5863676 0.8100135
vn -0.003327089 0.9327319 0.3605556
vn 0.0002440075 -0.9999999 0.000549017
vn -0.003327089 0.9327319 0.3605556
vn -0.7054244 0.5859711 0.398766
vn -0.3145014 0.9325489 0.1773177
vn -0.004486067 -0.8384786 0.5449162
vn 0.310932 0.932703 0.1827193
vn -0.3145014 0.9325489 0.1773177
vn -0.6984301 0.5855098 -0.4115503
vn -0.3113831 0.9323492 -0.1837538
vn 0.006836144 0.5854494 -0.8106801
vn 0.002869037 0.9323218 -0.3616186
vn -0.4736545 -0.8387532 0.2685972
vn -0.003327089 0.9327319 0.3605556
vn -0.7054244 0.5859711 0.398766
vn 0.0002440075 -0.9999999 0.000549017
vn -0.6984301 0.5855098 -0.4115503
vn 0.006836144 0.5854494 -0.8106801
vn -0.00714119 0.5863676 0.8100135
vn 0.6981333 0.5863099 0.4109142
vn 0.0002440075 -0.9999999 0.000549017
vn 0.0002440075 -0.9999999 0.000549017
vn 0.006531211 0.3262835 -0.9452494
vn -0.8577746 -0.08066203 -0.5076578
vn -0.8134984 0.3307402 -0.4783631
vn 0.01294022 -0.08819949 -0.9960188
vn -0.8664621 -0.08002102 0.4927883
vn -0.8216385 0.3313169 0.463831
vn -0.004242091 -0.08691886 0.9962063
vn -0.009796293 0.3274428 0.9448202
vn -0.8664621 -0.08002102 0.4927883
vn -0.004242091 -0.08691886 0.9962063
vn 0.8589236 -0.09445617 0.5033172
vn 0.8367372 0.2747617 -0.4736843
vn 0.8674524 -0.09512868 -0.4883407
vn 0.8151699 0.3228633 0.4808923
vn 0.8589236 -0.09445617 0.5033172
vn 0.828424 0.275317 0.4877647
vn 0.8367372 0.2747617 -0.4736843
vn -0.004242091 -0.08691886 0.9962063
vn -0.008362244 0.275377 0.9613
vn -0.8664621 -0.08002102 0.4927883
vn -0.8368789 0.2748901 0.4733595
vn -0.8577746 -0.08066203 -0.5076578
vn -0.8285583 0.2743348 -0.4880897
vn 0.008240076 0.2742725 -0.9616168
vn 0.8674524 -0.09512868 -0.4883407
vn 0.823401 0.3222797 -0.4670618
vn 0.01294022 -0.08819949 -0.9960188
vn 0.006531211 0.3262835 -0.9452494
vn 0.008240076 0.2742725 -0.9616168
vn -0.8285583 0.2743348 -0.4880897
vn 0.008240076 0.2742725 -0.9616168
vn 0.8367372 0.2747617 -0.4736843
vn -0.8368789 0.2748901 0.4733595
vn 0.828424 0.275317 0.4877647
vn -0.008362244 0.275377 0.9613
g thunderspear_0
f 3/3/3 2/2/2 1/1/1
f 2/2/2 4/4/4 1/1/1
f 1/1/1 4/4/4 5/5/5
f 4/4/4 6/6/6 5/5/5
f 7/7/7 2/2/2 3/3/3
f 8/8/8 7/7/7 3/3/3
f 9/9/9 7/7/7 8/8/8
f 10/10/10 9/9/9 8/8/8
f 11/11/11 9/9/9 10/10/10
f 12/12/12 11/11/11 10/10/10
f 5/5/5 6/6/6 13/13/13
f 6/6/6 14/14/14 13/13/13
f 1/1/1 5/5/5 15/15/15
f 16/16/16 1/1/1 15/15/15
f 3/3/3 1/1/1 16/16/16
f 15/15/15 5/5/5 17/17/17
f 5/5/5 13/13/13 17/17/17
f 10/10/10 8/8/8 18/18/18
f 19/19/19 10/10/10 18/18/18
f 12/12/12 10/10/10 19/19/19
f 20/20/20 12/12/12 19/19/19
f 18/18/18 8/8/8 21/21/21
f 8/8/8 3/3/3 21/21/21
f 21/21/21 3/3/3 16/16/16
f 24/24/24 23/23/23 22/22/22
f 23/23/23 25/25/25 22/22/22
f 27/27/27 26/26/26 24/24/24
f 26/26/26 28/28/28 24/24/24
f 29/29/29 26/26/26 27/27/27
f 30/30/30 29/29/29 27/27/27
f 26/26/26 31/31/31 23/23/23
f 31/31/31 32/32/32 23/23/23
f 29/29/29 33/33/33 26/26/26
f 33/33/33 34/34/34 26/26/26
f 22/22/22 36/36/36 35/35/35
f 36/36/36 37/37/37 35/35/35
f 35/35/35 39/39/39 38/38/38
f 39/39/39 40/40/40 38/38/38
f 38/38/38 42/42/42 41/41/41
f 42/42/42 43/43/43 41/41/41
f 45/45/45 44/44/44 43/43/43
f 44/44/44 46/46/46 43/43/43
f 47/47/47 44/44/44 42/42/42
f 48/48/48 47/47/47 42/42/42
f 44/44/44 49/49/49 46/46/46
f 50/50/50 49/49/49 44/44/44
f 51/51/51 50/50/50 44/44/44
f 49/49/49 52/52/52 46/46/46
f 53/53/53 50/50/50 47/47/47
f 54/54/54 53/53/53 47/47/47
f 49/49/49 55/55/55 52/52/52
f 57/57/57 53/53/53 56/56/56
f 58/58/58 57/57/57 56/56/56
f 59/59/59 56/56/56 39/39/39
f 56/56/56 60/60/60 39/39/39
f 62/62/62 57/57/57 61/61/61
f 63/63/63 62/62/62 61/61/61
f 64/64/64 62/62/62 63/63/63
f 65/65/65 64/64/64 63/63/63
f 66/66/66 61/61/61 36/36/36
f 61/61/61 67/67/67 36/36/36
f 70/70/70 69/69/69 68/68/68
f 71/71/71 69/69/69 70/70/70
f 68/68/68 69/69/69 72/72/72
f 72/72/72 74/74/74 73/73/73
f 73/73/73 75/75/75 49/49/49
f 78/78/78 77/77/77 76/76/76
f 77/77/77 79/79/79 76/76/76
f 81/81/81 80/80/80 78/78/78
f 83/83/83 82/82/82 81/81/81
f 85/85/85 84/84/84 81/81/81
f 86/86/86 85/85/85 83/83/83
f 88/88/88 87/87/87 86/86/86
f 88/88/88 86/86/86 89/89/89
f 89/89/89 90/90/90 83/83/83
f 92/92/92 91/91/91 86/86/86
f 86/86/86 91/91/91 93/93/93
f 91/91/91 94/94/94 93/93/93
f 93/93/93 94/94/94 95/95/95
f 94/94/94 96/96/96 84/84/84
f 95/95/95 96/96/96 97/97/97
f 95/95/95 97/97/97 78/78/78
f 96/96/96 98/98/98 97/97/97
f 97/97/97 98/98/98 79/79/79
f 98/98/98 99/99/99 79/79/79
f 101/101/101 100/100/100 89/89/89
f 102/102/102 88/88/88 101/101/101
f 103/103/103 102/102/102 101/101/101
f 102/102/102 104/104/104 88/88/88
f 104/104/104 87/87/87 100/100/100
f 107/107/107 106/106/106 105/105/105
f 105/105/105 108/108/108 107/107/107
f 108/108/108 109/109/109 107/107/107
f 108/108/108 110/110/110 109/109/109
