g Tube001
v 8.1264 2.5 -1.1519
v 8.1264 1.6667 -2.1519
v 8.1264 3.3333 -2.1519
v 8.1264 0 -2.1519
v 8.1264 5 -2.1519
v 8.1264 2.5 -1.1519
v 8.1264 5 -2.1519
v 8.1264 5 -0.1519
v 8.1264 2.5 -1.1519
v 8.1264 3.3333 -0.1519
v 8.1264 1.6667 -0.1519
v 8.1264 5 -0.1519
v 8.1264 0 -0.1519
v 8.1264 2.5 -1.1519
v 8.1264 0 -0.1519
v 8.1264 0 -2.1519
v 17.1264 2.5 7.8481
v 18.1264 0 7.8481
v 16.1264 0 7.8481
v 18.1264 1.6667 7.8481
v 17.1264 2.5 7.8481
v 18.1264 3.3333 7.8481
v 18.1264 1.6667 7.8481
v 18.1264 5 7.8481
v 17.1264 2.5 7.8481
v 16.1264 5 7.8481
v 18.1264 5 7.8481
v 17.1264 2.5 7.8481
v 16.1264 3.3333 7.8481
v 16.1264 5 7.8481
v 16.1264 1.6667 7.8481
v 16.1264 0 7.8481
v 8.1264 0 -2.1519
v 10.7145 1.6667 -1.8112
v 8.1264 1.6667 -2.1519
v 10.7145 0 -1.8112
v 10.7145 3.3333 -1.8112
v 8.1264 3.3333 -2.1519
v 10.7145 5 -1.8112
v 8.1264 5 -2.1519
v 13.1264 1.6667 -0.8122
v 13.1264 0 -0.8122
v 13.1264 3.3333 -0.8122
v 13.1264 5 -0.8122
v 15.1974 1.6667 0.777
v 15.1974 0 0.777
v 15.1974 3.3333 0.777
v 15.1974 5 0.777
v 16.7866 1.6667 2.8481
v 16.7866 0 2.8481
v 16.7866 3.3333 2.8481
v 16.7866 5 2.8481
v 17.7856 1.6667 5.2599
v 17.7856 0 5.2599
v 17.7856 3.3333 5.2599
v 17.7856 5 5.2599
v 18.1264 1.6667 7.8481
v 18.1264 0 7.8481
v 18.1264 3.3333 7.8481
v 18.1264 5 7.8481
v 8.1264 5 -0.1519
v 10.1969 3.3333 0.1207
v 8.1264 3.3333 -0.1519
v 10.1969 5 0.1207
v 10.1969 1.6667 0.1207
v 8.1264 1.6667 -0.1519
v 10.1969 0 0.1207
v 8.1264 0 -0.1519
v 12.1264 3.3333 0.9199
v 12.1264 5 0.9199
v 12.1264 1.6667 0.9199
v 12.1264 0 0.9199
v 13.7832 3.3333 2.1912
v 13.7832 5 2.1912
v 13.7832 1.6667 2.1912
v 13.7832 0 2.1912
v 15.0546 3.3333 3.8481
v 15.0546 5 3.8481
v 15.0546 1.6667 3.8481
v 15.0546 0 3.8481
v 15.8538 3.3333 5.7775
v 15.8538 5 5.7775
v 15.8538 1.6667 5.7775
v 15.8538 0 5.7775
v 16.1264 3.3333 7.8481
v 16.1264 5 7.8481
v 16.1264 1.6667 7.8481
v 16.1264 0 7.8481
v 8.1264 5 -2.1519
v 10.1969 5 0.1207
v 8.1264 5 -0.1519
v 10.7145 5 -1.8112
v 12.1264 5 0.9199
v 13.1264 5 -0.8122
v 13.7832 5 2.1912
v 15.1974 5 0.777
v 15.0546 5 3.8481
v 16.7866 5 2.8481
v 15.8538 5 5.7775
v 17.7856 5 5.2599
v 16.1264 5 7.8481
v 18.1264 5 7.8481
v 8.1264 0 -0.1519
v 10.7145 0 -1.8112
v 8.1264 0 -2.1519
v 10.1969 0 0.1207
v 13.1264 0 -0.8122
v 12.1264 0 0.9199
v 15.1974 0 0.777
v 13.7832 0 2.1912
v 16.7866 0 2.8481
v 15.0546 0 3.8481
v 17.7856 0 5.2599
v 15.8538 0 5.7775
v 18.1264 0 7.8481
v 16.1264 0 7.8481
vt 0.5 1
vt 0.125 0
vt 0.25 0
vt 0 0
vt 0.375 0
vt 0.5 1
vt 0.375 0
vt 0.5 0
vt 0.5 1
vt 0.625 0
vt 0.75 0
vt 0.5 0
vt 0.875 0
vt 0.5 1
vt 0.875 0
vt 1 0
vt 1 0.5
vt 1 0.8571
vt 0.875 0.8571
vt 1.0417 0.619
vt 1 0.5
vt 0.25 0.8571
vt 0.125 0.8571
vt 0.375 0.8571
vt 1 0.5
vt 0.5 0.8571
vt 0.375 0.8571
vt 1 0.5
vt 0.625 0.8571
vt 0.5 0.8571
vt 0.75 0.8571
vt 0.875 0.8571
vt 0 0
vt 0.125 0.1429
vt 0.125 0
vt 0 0.1429
vt 0.25 0.1429
vt 0.25 0
vt 0.375 0.1429
vt 0.375 0
vt 0.125 0.2857
vt 0 0.2857
vt 0.25 0.2857
vt 0.375 0.2857
vt 0.125 0.4286
vt 0 0.4286
vt 0.25 0.4286
vt 0.375 0.4286
vt 0.125 0.5714
vt 0 0.5714
vt 0.25 0.5714
vt 0.375 0.5714
vt 0.125 0.7143
vt 0 0.7143
vt 0.25 0.7143
vt 0.375 0.7143
vt 0.125 0.8571
vt 0 0.8571
vt 0.25 0.8571
vt 0.375 0.8571
vt 0.5 0
vt 0.625 0.1429
vt 0.625 0
vt 0.5 0.1429
vt 0.75 0.1429
vt 0.75 0
vt 0.875 0.1429
vt 0.875 0
vt 0.625 0.2857
vt 0.5 0.2857
vt 0.75 0.2857
vt 0.875 0.2857
vt 0.625 0.4286
vt 0.5 0.4286
vt 0.75 0.4286
vt 0.875 0.4286
vt 0.625 0.5714
vt 0.5 0.5714
vt 0.75 0.5714
vt 0.875 0.5714
vt 0.625 0.7143
vt 0.5 0.7143
vt 0.75 0.7143
vt 0.875 0.7143
vt 0.625 0.8571
vt 0.5 0.8571
vt 0.75 0.8571
vt 0.875 0.8571
vt 0.375 0
vt 0.5 0.1429
vt 0.5 0
vt 0.375 0.1429
vt 0.5 0.2857
vt 0.375 0.2857
vt 0.5 0.4286
vt 0.375 0.4286
vt 0.5 0.5714
vt 0.375 0.5714
vt 0.5 0.7143
vt 0.375 0.7143
vt 0.5 0.8571
vt 0.375 0.8571
vt 0.875 0
vt 1 0.1429
vt 1 0
vt 0.875 0.1429
vt 1 0.2857
vt 0.875 0.2857
vt 1 0.4286
vt 0.875 0.4286
vt 1 0.5714
vt 0.875 0.5714
vt 1 0.7143
vt 0.875 0.7143
vt 1 0.8571
vt 0.875 0.8571
vn -1 0 0
vn -1 0 0
vn -1 0 0
vn -1 0 0
vn -1 0 0
vn -1 0 0
vn -1 0 0
vn -1 0 0
vn -1 0 0
vn -1 0 0
vn -1 0 0
vn -1 0 0
vn -1 0 0
vn -1 0 0
vn -1 0 0
vn -1 0 0
vn 0 0 1
vn 0 0 1
vn 0 0 1
vn 0 0 1
vn 0 0 1
vn 0 0 1
vn 0 0 1
vn 0 0 1
vn 0 0 1
vn 0 0 1
vn 0 0 1
vn 0 0 1
vn 0 0 1
vn 0 0 1
vn 0 0 1
vn 0 0 1
vn 0.1305063 0 -0.9914476
vn 0.2588077 0 -0.9659289
vn 0.1305063 0 -0.9914476
vn 0.2588077 0 -0.9659289
vn 0.2588077 0 -0.9659289
vn 0.1305063 0 -0.9914476
vn 0.2588077 0 -0.9659289
vn 0.1305063 0 -0.9914476
vn 0.500011 0 -0.8660191
vn 0.500011 0 -0.8660191
vn 0.500011 0 -0.8660191
vn 0.500011 0 -0.8660191
vn 0.7071068 0 -0.7071068
vn 0.7071068 0 -0.7071068
vn 0.7071068 0 -0.7071068
vn 0.7071068 0 -0.7071068
vn 0.8660191 0 -0.500011
vn 0.8660191 0 -0.500011
vn 0.8660191 0 -0.500011
vn 0.8660191 0 -0.500011
vn 0.9659289 0 -0.2588077
vn 0.9659289 0 -0.2588077
vn 0.9659289 0 -0.2588077
vn 0.9659289 0 -0.2588077
vn 0.9914476 0 -0.1305063
vn 0.9914476 0 -0.1305063
vn 0.9914476 0 -0.1305063
vn 0.9914476 0 -0.1305063
vn -0.1305063 0 0.9914476
vn -0.2588077 0 0.9659289
vn -0.1305063 0 0.9914476
vn -0.2588077 0 0.9659289
vn -0.2588077 0 0.9659289
vn -0.1305063 0 0.9914476
vn -0.2588077 0 0.9659289
vn -0.1305063 0 0.9914476
vn -0.500011 0 0.8660191
vn -0.500011 0 0.8660191
vn -0.500011 0 0.8660191
vn -0.500011 0 0.8660191
vn -0.7071068 0 0.7071068
vn -0.7071068 0 0.7071068
vn -0.7071068 0 0.7071068
vn -0.7071068 0 0.7071068
vn -0.8660191 0 0.500011
vn -0.8660191 0 0.500011
vn -0.8660191 0 0.500011
vn -0.8660191 0 0.500011
vn -0.9659289 0 0.2588077
vn -0.9659289 0 0.2588077
vn -0.9659289 0 0.2588077
vn -0.9659289 0 0.2588077
vn -0.9914476 0 0.1305063
vn -0.9914476 0 0.1305063
vn -0.9914476 0 0.1305063
vn -0.9914476 0 0.1305063
vn 0 1 0
vn 0 1 0
vn 0 1 0
vn 0 1 0
vn 0 1 0
vn 0 1 0
vn 0 1 0
vn 0 1 0
vn 0 1 0
vn 0 1 0
vn 0 1 0
vn 0 1 0
vn 0 1 0
vn 0 1 0
vn 0 -1 0
vn 0 -1 0
vn 0 -1 0
vn 0 -1 0
vn 0 -1 0
vn 0 -1 0
vn 0 -1 0
vn 0 -1 0
vn 0 -1 0
vn 0 -1 0
vn 0 -1 0
vn 0 -1 0
vn 0 -1 0
vn 0 -1 0
g Tube001_0
f 3/3/3 2/2/2 1/1/1
f 2/2/2 4/4/4 1/1/1
f 5/5/5 3/3/3 1/1/1
f 8/8/8 7/7/7 6/6/6
f 11/11/11 10/10/10 9/9/9
f 10/10/10 12/12/12 9/9/9
f 13/13/13 11/11/11 9/9/9
f 16/16/16 15/15/15 14/14/14
f 19/19/19 18/18/18 17/17/17
f 18/18/18 20/20/20 17/17/17
f 23/23/23 22/22/22 21/21/21
f 22/22/22 24/24/24 21/21/21
f 27/27/27 26/26/26 25/25/25
f 30/30/30 29/29/29 28/28/28
f 29/29/29 31/31/31 28/28/28
f 31/31/31 32/32/32 28/28/28
f 35/35/35 34/34/34 33/33/33
f 34/34/34 36/36/36 33/33/33
f 37/37/37 34/34/34 35/35/35
f 38/38/38 37/37/37 35/35/35
f 39/39/39 37/37/37 38/38/38
f 40/40/40 39/39/39 38/38/38
f 34/34/34 41/41/41 36/36/36
f 41/41/41 42/42/42 36/36/36
f 37/37/37 43/43/43 34/34/34
f 43/43/43 41/41/41 34/34/34
f 39/39/39 44/44/44 37/37/37
f 44/44/44 43/43/43 37/37/37
f 41/41/41 45/45/45 42/42/42
f 45/45/45 46/46/46 42/42/42
f 43/43/43 47/47/47 41/41/41
f 47/47/47 45/45/45 41/41/41
f 44/44/44 48/48/48 43/43/43
f 48/48/48 47/47/47 43/43/43
f 45/45/45 49/49/49 46/46/46
f 49/49/49 50/50/50 46/46/46
f 47/47/47 51/51/51 45/45/45
f 51/51/51 49/49/49 45/45/45
f 48/48/48 52/52/52 47/47/47
f 52/52/52 51/51/51 47/47/47
f 49/49/49 53/53/53 50/50/50
f 53/53/53 54/54/54 50/50/50
f 51/51/51 55/55/55 49/49/49
f 55/55/55 53/53/53 49/49/49
f 52/52/52 56/56/56 51/51/51
f 56/56/56 55/55/55 51/51/51
f 53/53/53 57/57/57 54/54/54
f 57/57/57 58/58/58 54/54/54
f 55/55/55 59/59/59 53/53/53
f 59/59/59 57/57/57 53/53/53
f 56/56/56 60/60/60 55/55/55
f 60/60/60 59/59/59 55/55/55
f 63/63/63 62/62/62 61/61/61
f 62/62/62 64/64/64 61/61/61
f 65/65/65 62/62/62 63/63/63
f 66/66/66 65/65/65 63/63/63
f 67/67/67 65/65/65 66/66/66
f 68/68/68 67/67/67 66/66/66
f 62/62/62 69/69/69 64/64/64
f 69/69/69 70/70/70 64/64/64
f 65/65/65 71/71/71 62/62/62
f 71/71/71 69/69/69 62/62/62
f 67/67/67 72/72/72 65/65/65
f 72/72/72 71/71/71 65/65/65
f 69/69/69 73/73/73 70/70/70
f 73/73/73 74/74/74 70/70/70
f 71/71/71 75/75/75 69/69/69
f 75/75/75 73/73/73 69/69/69
f 72/72/72 76/76/76 71/71/71
f 76/76/76 75/75/75 71/71/71
f 73/73/73 77/77/77 74/74/74
f 77/77/77 78/78/78 74/74/74
f 75/75/75 79/79/79 73/73/73
f 79/79/79 77/77/77 73/73/73
f 76/76/76 80/80/80 75/75/75
f 80/80/80 79/79/79 75/75/75
f 77/77/77 81/81/81 78/78/78
f 81/81/81 82/82/82 78/78/78
f 79/79/79 83/83/83 77/77/77
f 83/83/83 81/81/81 77/77/77
f 80/80/80 84/84/84 79/79/79
f 84/84/84 83/83/83 79/79/79
f 81/81/81 85/85/85 82/82/82
f 85/85/85 86/86/86 82/82/82
f 83/83/83 87/87/87 81/81/81
f 87/87/87 85/85/85 81/81/81
f 84/84/84 88/88/88 83/83/83
f 88/88/88 87/87/87 83/83/83
f 91/91/91 90/90/90 89/89/89
f 90/90/90 92/92/92 89/89/89
f 90/90/90 93/93/93 92/92/92
f 93/93/93 94/94/94 92/92/92
f 93/93/93 95/95/95 94/94/94
f 95/95/95 96/96/96 94/94/94
f 95/95/95 97/97/97 96/96/96
f 97/97/97 98/98/98 96/96/96
f 97/97/97 99/99/99 98/98/98
f 99/99/99 100/100/100 98/98/98
f 99/99/99 101/101/101 100/100/100
f 101/101/101 102/102/102 100/100/100
f 105/105/105 104/104/104 103/103/103
f 104/104/104 106/106/106 103/103/103
f 104/104/104 107/107/107 106/106/106
f 107/107/107 108/108/108 106/106/106
f 107/107/107 109/109/109 108/108/108
f 109/109/109 110/110/110 108/108/108
f 109/109/109 111/111/111 110/110/110
f 111/111/111 112/112/112 110/110/110
f 111/111/111 113/113/113 112/112/112
f 113/113/113 114/114/114 112/112/112
f 113/113/113 115/115/115 114/114/114
f 115/115/115 116/116/116 114/114/114
