g Tube001
v 0.1783 0 6.8353
v 4.0051 4 7.5965
v 0.1783 4 6.8353
v 4.0051 0 7.5965
v 4.0051 8 7.5965
v 0.1783 8 6.8353
v 4.0051 12 7.5965
v 0.1783 12 6.8353
v 7.2494 4 9.7642
v 7.2494 0 9.7642
v 7.2494 8 9.7642
v 7.2494 12 9.7642
v 9.4171 4 13.0084
v 9.4171 0 13.0084
v 9.4171 8 13.0084
v 9.4171 12 13.0084
v 10.1783 4 16.8353
v 10.1783 0 16.8353
v 10.1783 8 16.8353
v 10.1783 12 16.8353
v 9.4171 4 20.6621
v 9.4171 0 20.6621
v 9.4171 8 20.6621
v 9.4171 12 20.6621
v 7.2494 4 23.9063
v 7.2494 0 23.9063
v 7.2494 8 23.9063
v 7.2494 12 23.9063
v 4.0051 4 26.0741
v 4.0051 0 26.0741
v 4.0051 8 26.0741
v 4.0051 12 26.0741
v 0.1783 4 26.8353
v 0.1783 0 26.8353
v 0.1783 8 26.8353
v 0.1783 12 26.8353
v -3.6485 4 26.0741
v -3.6485 0 26.0741
v -3.6485 8 26.0741
v -3.6485 12 26.0741
v -6.8928 4 23.9063
v -6.8928 0 23.9063
v -6.8928 8 23.9063
v -6.8928 12 23.9063
v -9.0605 4 20.6621
v -9.0605 0 20.6621
v -9.0605 8 20.6621
v -9.0605 12 20.6621
v -9.8217 4 16.8353
v -9.8217 0 16.8353
v -9.8217 8 16.8353
v -9.8217 12 16.8353
v -9.0605 4 13.0084
v -9.0605 0 13.0084
v -9.0605 8 13.0084
v -9.0605 12 13.0084
v -6.8928 4 9.7642
v -6.8928 0 9.7642
v -6.8928 8 9.7642
v -6.8928 12 9.7642
v -3.6485 4 7.5965
v -3.6485 0 7.5965
v -3.6485 8 7.5965
v -3.6485 12 7.5965
v 0.1783 4 6.8353
v 0.1783 0 6.8353
v 0.1783 8 6.8353
v 0.1783 12 6.8353
v 0.1783 12 9.8353
v 2.8571 8 10.3681
v 0.1783 8 9.8353
v 2.8571 12 10.3681
v 2.8571 4 10.3681
v 0.1783 4 9.8353
v 2.8571 0 10.3681
v 0.1783 0 9.8353
v 5.1281 8 11.8855
v 5.1281 12 11.8855
v 5.1281 4 11.8855
v 5.1281 0 11.8855
v 6.6455 8 14.1565
v 6.6455 12 14.1565
v 6.6455 4 14.1565
v 6.6455 0 14.1565
v 7.1783 8 16.8353
v 7.1783 12 16.8353
v 7.1783 4 16.8353
v 7.1783 0 16.8353
v 6.6455 8 19.514
v 6.6455 12 19.514
v 6.6455 4 19.514
v 6.6455 0 19.514
v 5.1281 8 21.785
v 5.1281 12 21.785
v 5.1281 4 21.785
v 5.1281 0 21.785
v 2.8571 8 23.3024
v 2.8571 12 23.3024
v 2.8571 4 23.3024
v 2.8571 0 23.3024
v 0.1783 8 23.8353
v 0.1783 12 23.8353
v 0.1783 4 23.8353
v 0.1783 0 23.8353
v -2.5005 8 23.3024
v -2.5005 12 23.3024
v -2.5005 4 23.3024
v -2.5005 0 23.3024
v -4.7714 8 21.785
v -4.7714 12 21.785
v -4.7714 4 21.785
v -4.7714 0 21.785
v -6.2888 8 19.514
v -6.2888 12 19.514
v -6.2888 4 19.514
v -6.2888 0 19.514
v -6.8217 8 16.8353
v -6.8217 12 16.8353
v -6.8217 4 16.8353
v -6.8217 0 16.8353
v -6.2888 8 14.1565
v -6.2888 12 14.1565
v -6.2888 4 14.1565
v -6.2888 0 14.1565
v -4.7714 8 11.8855
v -4.7714 12 11.8855
v -4.7714 4 11.8855
v -4.7714 0 11.8855
v -2.5005 8 10.3681
v -2.5005 12 10.3681
v -2.5005 4 10.3681
v -2.5005 0 10.3681
v 0.1783 8 9.8353
v 0.1783 12 9.8353
v 0.1783 4 9.8353
v 0.1783 0 9.8353
v 0.1783 12 6.8353
v 2.8571 12 10.3681
v 0.1783 12 9.8353
v 4.0051 12 7.5965
v 5.1281 12 11.8855
v 7.2494 12 9.7642
v 6.6455 12 14.1565
v 9.4171 12 13.0084
v 7.1783 12 16.8353
v 10.1783 12 16.8353
v 6.6455 12 19.514
v 9.4171 12 20.6621
v 5.1281 12 21.785
v 7.2494 12 23.9063
v 2.8571 12 23.3024
v 4.0051 12 26.0741
v 0.1783 12 23.8353
v 0.1783 12 26.8353
v -2.5005 12 23.3024
v -3.6485 12 26.0741
v -4.7714 12 21.785
v -6.8928 12 23.9063
v -6.2888 12 19.514
v -9.0605 12 20.6621
v -6.8217 12 16.8353
v -9.8217 12 16.8353
v -6.2888 12 14.1565
v -9.0605 12 13.0084
v -4.7714 12 11.8855
v -6.8928 12 9.7642
v -2.5005 12 10.3681
v -3.6485 12 7.5965
v 0.1783 12 9.8353
v 0.1783 12 6.8353
v 0.1783 0 9.8353
v 4.0051 0 7.5965
v 0.1783 0 6.8353
v 2.8571 0 10.3681
v 7.2494 0 9.7642
v 5.1281 0 11.8855
v 9.4171 0 13.0084
v 6.6455 0 14.1565
v 10.1783 0 16.8353
v 7.1783 0 16.8353
v 9.4171 0 20.6621
v 6.6455 0 19.514
v 7.2494 0 23.9063
v 5.1281 0 21.785
v 4.0051 0 26.0741
v 2.8571 0 23.3024
v 0.1783 0 26.8353
v 0.1783 0 23.8353
v -3.6485 0 26.0741
v -2.5005 0 23.3024
v -6.8928 0 23.9063
v -4.7714 0 21.785
v -9.0605 0 20.6621
v -6.2888 0 19.514
v -9.8217 0 16.8353
v -6.8217 0 16.8353
v -9.0605 0 13.0084
v -6.2888 0 14.1565
v -6.8928 0 9.7642
v -4.7714 0 11.8855
v -3.6485 0 7.5965
v -2.5005 0 10.3681
v 0.1783 0 6.8353
v 0.1783 0 9.8353
vt 0 0
vt 0.125 0.0625
vt 0.125 0
vt 0 0.0625
vt 0.25 0.0625
vt 0.25 0
vt 0.375 0.0625
vt 0.375 0
vt 0.125 0.125
vt 0 0.125
vt 0.25 0.125
vt 0.375 0.125
vt 0.125 0.1875
vt 0 0.1875
vt 0.25 0.1875
vt 0.375 0.1875
vt 0.125 0.25
vt 0 0.25
vt 0.25 0.25
vt 0.375 0.25
vt 0.125 0.3125
vt 0 0.3125
vt 0.25 0.3125
vt 0.375 0.3125
vt 0.125 0.375
vt 0 0.375
vt 0.25 0.375
vt 0.375 0.375
vt 0.125 0.4375
vt 0 0.4375
vt 0.25 0.4375
vt 0.375 0.4375
vt 0.125 0.5
vt 0 0.5
vt 0.25 0.5
vt 0.375 0.5
vt 0.125 0.5625
vt 0 0.5625
vt 0.25 0.5625
vt 0.375 0.5625
vt 0.125 0.625
vt 0 0.625
vt 0.25 0.625
vt 0.375 0.625
vt 0.125 0.6875
vt 0 0.6875
vt 0.25 0.6875
vt 0.375 0.6875
vt 0.125 0.75
vt 0 0.75
vt 0.25 0.75
vt 0.375 0.75
vt 0.125 0.8125
vt 0 0.8125
vt 0.25 0.8125
vt 0.375 0.8125
vt 0.125 0.875
vt 0 0.875
vt 0.25 0.875
vt 0.375 0.875
vt 0.125 0.9375
vt 0 0.9375
vt 0.25 0.9375
vt 0.375 0.9375
vt 0.125 1
vt 0 1
vt 0.25 1
vt 0.375 1
vt 0.5 0
vt 0.625 0.0625
vt 0.625 0
vt 0.5 0.0625
vt 0.75 0.0625
vt 0.75 0
vt 0.875 0.0625
vt 0.875 0
vt 0.625 0.125
vt 0.5 0.125
vt 0.75 0.125
vt 0.875 0.125
vt 0.625 0.1875
vt 0.5 0.1875
vt 0.75 0.1875
vt 0.875 0.1875
vt 0.625 0.25
vt 0.5 0.25
vt 0.75 0.25
vt 0.875 0.25
vt 0.625 0.3125
vt 0.5 0.3125
vt 0.75 0.3125
vt 0.875 0.3125
vt 0.625 0.375
vt 0.5 0.375
vt 0.75 0.375
vt 0.875 0.375
vt 0.625 0.4375
vt 0.5 0.4375
vt 0.75 0.4375
vt 0.875 0.4375
vt 0.625 0.5
vt 0.5 0.5
vt 0.75 0.5
vt 0.875 0.5
vt 0.625 0.5625
vt 0.5 0.5625
vt 0.75 0.5625
vt 0.875 0.5625
vt 0.625 0.625
vt 0.5 0.625
vt 0.75 0.625
vt 0.875 0.625
vt 0.625 0.6875
vt 0.5 0.6875
vt 0.75 0.6875
vt 0.875 0.6875
vt 0.625 0.75
vt 0.5 0.75
vt 0.75 0.75
vt 0.875 0.75
vt 0.625 0.8125
vt 0.5 0.8125
vt 0.75 0.8125
vt 0.875 0.8125
vt 0.625 0.875
vt 0.5 0.875
vt 0.75 0.875
vt 0.875 0.875
vt 0.625 0.9375
vt 0.5 0.9375
vt 0.75 0.9375
vt 0.875 0.9375
vt 0.625 1
vt 0.5 1
vt 0.75 1
vt 0.875 1
vt 0.375 0
vt 0.5 0.0625
vt 0.5 0
vt 0.375 0.0625
vt 0.5 0.125
vt 0.375 0.125
vt 0.5 0.1875
vt 0.375 0.1875
vt 0.5 0.25
vt 0.375 0.25
vt 0.5 0.3125
vt 0.375 0.3125
vt 0.5 0.375
vt 0.375 0.375
vt 0.5 0.4375
vt 0.375 0.4375
vt 0.5 0.5
vt 0.375 0.5
vt 0.5 0.5625
vt 0.375 0.5625
vt 0.5 0.625
vt 0.375 0.625
vt 0.5 0.6875
vt 0.375 0.6875
vt 0.5 0.75
vt 0.375 0.75
vt 0.5 0.8125
vt 0.375 0.8125
vt 0.5 0.875
vt 0.375 0.875
vt 0.5 0.9375
vt 0.375 0.9375
vt 0.5 1
vt 0.375 1
vt 0.875 0
vt 1 0.0625
vt 1 0
vt 0.875 0.0625
vt 1 0.125
vt 0.875 0.125
vt 1 0.1875
vt 0.875 0.1875
vt 1 0.25
vt 0.875 0.25
vt 1 0.3125
vt 0.875 0.3125
vt 1 0.375
vt 0.875 0.375
vt 1 0.4375
vt 0.875 0.4375
vt 1 0.5
vt 0.875 0.5
vt 1 0.5625
vt 0.875 0.5625
vt 1 0.625
vt 0.875 0.625
vt 1 0.6875
vt 0.875 0.6875
vt 1 0.75
vt 0.875 0.75
vt 1 0.8125
vt 0.875 0.8125
vt 1 0.875
vt 0.875 0.875
vt 1 0.9375
vt 0.875 0.9375
vt 1 1
vt 0.875 1
vn 0 0 -1
vn 0.3826903 0 -0.9238766
vn 0 0 -1
vn 0.3826903 0 -0.9238766
vn 0.3826903 0 -0.9238766
vn 0 0 -1
vn 0.3826903 0 -0.9238766
vn 0 0 -1
vn 0.7071068 0 -0.7071068
vn 0.7071068 0 -0.7071068
vn 0.7071068 0 -0.7071068
vn 0.7071068 0 -0.7071068
vn 0.9238766 0 -0.3826903
vn 0.9238766 0 -0.3826903
vn 0.9238766 0 -0.3826903
vn 0.9238766 0 -0.3826903
vn 1 0 0
vn 1 0 0
vn 1 0 0
vn 1 0 0
vn 0.9238766 0 0.3826903
vn 0.9238766 0 0.3826903
vn 0.9238766 0 0.3826903
vn 0.9238766 0 0.3826903
vn 0.7071068 0 0.7071068
vn 0.7071068 0 0.7071068
vn 0.7071068 0 0.7071068
vn 0.7071068 0 0.7071068
vn 0.3826903 0 0.9238766
vn 0.3826903 0 0.9238766
vn 0.3826903 0 0.9238766
vn 0.3826903 0 0.9238766
vn 0 0 1
vn 0 0 1
vn 0 0 1
vn 0 0 1
vn -0.3826903 0 0.9238766
vn -0.3826903 0 0.9238766
vn -0.3826903 0 0.9238766
vn -0.3826903 0 0.9238766
vn -0.7071068 0 0.7071068
vn -0.7071068 0 0.7071068
vn -0.7071068 0 0.7071068
vn -0.7071068 0 0.7071068
vn -0.9238766 0 0.3826903
vn -0.9238766 0 0.3826903
vn -0.9238766 0 0.3826903
vn -0.9238766 0 0.3826903
vn -1 0 0
vn -1 0 0
vn -1 0 0
vn -1 0 0
vn -0.9238766 0 -0.3826903
vn -0.9238766 0 -0.3826903
vn -0.9238766 0 -0.3826903
vn -0.9238766 0 -0.3826903
vn -0.7071068 0 -0.7071068
vn -0.7071068 0 -0.7071068
vn -0.7071068 0 -0.7071068
vn -0.7071068 0 -0.7071068
vn -0.3826903 0 -0.9238766
vn -0.3826903 0 -0.9238766
vn -0.3826903 0 -0.9238766
vn -0.3826903 0 -0.9238766
vn 0 0 -1
vn 0 0 -1
vn 0 0 -1
vn 0 0 -1
vn 0 0 1
vn -0.3826903 0 0.9238766
vn 0 0 1
vn -0.3826903 0 0.9238766
vn -0.3826903 0 0.9238766
vn 0 0 1
vn -0.3826903 0 0.9238766
vn 0 0 1
vn -0.7071068 0 0.7071068
vn -0.7071068 0 0.7071068
vn -0.7071068 0 0.7071068
vn -0.7071068 0 0.7071068
vn -0.9238766 0 0.3826903
vn -0.9238766 0 0.3826903
vn -0.9238766 0 0.3826903
vn -0.9238766 0 0.3826903
vn -1 0 0
vn -1 0 0
vn -1 0 0
vn -1 0 0
vn -0.9238766 0 -0.3826903
vn -0.9238766 0 -0.3826903
vn -0.9238766 0 -0.3826903
vn -0.9238766 0 -0.3826903
vn -0.7071068 0 -0.7071068
vn -0.7071068 0 -0.7071068
vn -0.7071068 0 -0.7071068
vn -0.7071068 0 -0.7071068
vn -0.3826903 0 -0.9238766
vn -0.3826903 0 -0.9238766
vn -0.3826903 0 -0.9238766
vn -0.3826903 0 -0.9238766
vn 0 0 -1
vn 0 0 -1
vn 0 0 -1
vn 0 0 -1
vn 0.3826903 0 -0.9238766
vn 0.3826903 0 -0.9238766
vn 0.3826903 0 -0.9238766
vn 0.3826903 0 -0.9238766
vn 0.7071068 0 -0.7071068
vn 0.7071068 0 -0.7071068
vn 0.7071068 0 -0.7071068
vn 0.7071068 0 -0.7071068
vn 0.9238766 0 -0.3826903
vn 0.9238766 0 -0.3826903
vn 0.9238766 0 -0.3826903
vn 0.9238766 0 -0.3826903
vn 1 0 0
vn 1 0 0
vn 1 0 0
vn 1 0 0
vn 0.9238766 0 0.3826903
vn 0.9238766 0 0.3826903
vn 0.9238766 0 0.3826903
vn 0.9238766 0 0.3826903
vn 0.7071068 0 0.7071068
vn 0.7071068 0 0.7071068
vn 0.7071068 0 0.7071068
vn 0.7071068 0 0.7071068
vn 0.3826903 0 0.9238766
vn 0.3826903 0 0.9238766
vn 0.3826903 0 0.9238766
vn 0.3826903 0 0.9238766
vn 0 0 1
vn 0 0 1
vn 0 0 1
vn 0 0 1
vn 0 1 0
vn 0 1 0
vn 0 1 0
vn 0 1 0
vn 0 1 0
vn 0 1 0
vn 0 1 0
vn 0 1 0
vn 0 1 0
vn 0 1 0
vn 0 1 0
vn 0 1 0
vn 0 1 0
vn 0 1 0
vn 0 1 0
vn 0 1 0
vn 0 1 0
vn 0 1 0
vn 0 1 0
vn 0 1 0
vn 0 1 0
vn 0 1 0
vn 0 1 0
vn 0 1 0
vn 0 1 0
vn 0 1 0
vn 0 1 0
vn 0 1 0
vn 0 1 0
vn 0 1 0
vn 0 1 0
vn 0 1 0
vn 0 1 0
vn 0 1 0
vn 0 -1 0
vn 0 -1 0
vn 0 -1 0
vn 0 -1 0
vn 0 -1 0
vn 0 -1 0
vn 0 -1 0
vn 0 -1 0
vn 0 -1 0
vn 0 -1 0
vn 0 -1 0
vn 0 -1 0
vn 0 -1 0
vn 0 -1 0
vn 0 -1 0
vn 0 -1 0
vn 0 -1 0
vn 0 -1 0
vn 0 -1 0
vn 0 -1 0
vn 0 -1 0
vn 0 -1 0
vn 0 -1 0
vn 0 -1 0
vn 0 -1 0
vn 0 -1 0
vn 0 -1 0
vn 0 -1 0
vn 0 -1 0
vn 0 -1 0
vn 0 -1 0
vn 0 -1 0
vn 0 -1 0
vn 0 -1 0
g Tube001_0
f 3/3/3 2/2/2 1/1/1
f 2/2/2 4/4/4 1/1/1
f 5/5/5 2/2/2 3/3/3
f 6/6/6 5/5/5 3/3/3
f 7/7/7 5/5/5 6/6/6
f 8/8/8 7/7/7 6/6/6
f 2/2/2 9/9/9 4/4/4
f 9/9/9 10/10/10 4/4/4
f 5/5/5 11/11/11 2/2/2
f 11/11/11 9/9/9 2/2/2
f 7/7/7 12/12/12 5/5/5
f 12/12/12 11/11/11 5/5/5
f 9/9/9 13/13/13 10/10/10
f 13/13/13 14/14/14 10/10/10
f 11/11/11 15/15/15 9/9/9
f 15/15/15 13/13/13 9/9/9
f 12/12/12 16/16/16 11/11/11
f 16/16/16 15/15/15 11/11/11
f 13/13/13 17/17/17 14/14/14
f 17/17/17 18/18/18 14/14/14
f 15/15/15 19/19/19 13/13/13
f 19/19/19 17/17/17 13/13/13
f 16/16/16 20/20/20 15/15/15
f 20/20/20 19/19/19 15/15/15
f 17/17/17 21/21/21 18/18/18
f 21/21/21 22/22/22 18/18/18
f 19/19/19 23/23/23 17/17/17
f 23/23/23 21/21/21 17/17/17
f 20/20/20 24/24/24 19/19/19
f 24/24/24 23/23/23 19/19/19
f 21/21/21 25/25/25 22/22/22
f 25/25/25 26/26/26 22/22/22
f 23/23/23 27/27/27 21/21/21
f 27/27/27 25/25/25 21/21/21
f 24/24/24 28/28/28 23/23/23
f 28/28/28 27/27/27 23/23/23
f 25/25/25 29/29/29 26/26/26
f 29/29/29 30/30/30 26/26/26
f 27/27/27 31/31/31 25/25/25
f 31/31/31 29/29/29 25/25/25
f 28/28/28 32/32/32 27/27/27
f 32/32/32 31/31/31 27/27/27
f 29/29/29 33/33/33 30/30/30
f 33/33/33 34/34/34 30/30/30
f 31/31/31 35/35/35 29/29/29
f 35/35/35 33/33/33 29/29/29
f 32/32/32 36/36/36 31/31/31
f 36/36/36 35/35/35 31/31/31
f 33/33/33 37/37/37 34/34/34
f 37/37/37 38/38/38 34/34/34
f 35/35/35 39/39/39 33/33/33
f 39/39/39 37/37/37 33/33/33
f 36/36/36 40/40/40 35/35/35
f 40/40/40 39/39/39 35/35/35
f 37/37/37 41/41/41 38/38/38
f 41/41/41 42/42/42 38/38/38
f 39/39/39 43/43/43 37/37/37
f 43/43/43 41/41/41 37/37/37
f 40/40/40 44/44/44 39/39/39
f 44/44/44 43/43/43 39/39/39
f 41/41/41 45/45/45 42/42/42
f 45/45/45 46/46/46 42/42/42
f 43/43/43 47/47/47 41/41/41
f 47/47/47 45/45/45 41/41/41
f 44/44/44 48/48/48 43/43/43
f 48/48/48 47/47/47 43/43/43
f 45/45/45 49/49/49 46/46/46
f 49/49/49 50/50/50 46/46/46
f 47/47/47 51/51/51 45/45/45
f 51/51/51 49/49/49 45/45/45
f 48/48/48 52/52/52 47/47/47
f 52/52/52 51/51/51 47/47/47
f 49/49/49 53/53/53 50/50/50
f 53/53/53 54/54/54 50/50/50
f 51/51/51 55/55/55 49/49/49
f 55/55/55 53/53/53 49/49/49
f 52/52/52 56/56/56 51/51/51
f 56/56/56 55/55/55 51/51/51
f 53/53/53 57/57/57 54/54/54
f 57/57/57 58/58/58 54/54/54
f 55/55/55 59/59/59 53/53/53
f 59/59/59 57/57/57 53/53/53
f 56/56/56 60/60/60 55/55/55
f 60/60/60 59/59/59 55/55/55
f 57/57/57 61/61/61 58/58/58
f 61/61/61 62/62/62 58/58/58
f 59/59/59 63/63/63 57/57/57
f 63/63/63 61/61/61 57/57/57
f 60/60/60 64/64/64 59/59/59
f 64/64/64 63/63/63 59/59/59
f 61/61/61 65/65/65 62/62/62
f 65/65/65 66/66/66 62/62/62
f 63/63/63 67/67/67 61/61/61
f 67/67/67 65/65/65 61/61/61
f 64/64/64 68/68/68 63/63/63
f 68/68/68 67/67/67 63/63/63
f 71/71/71 70/70/70 69/69/69
f 70/70/70 72/72/72 69/69/69
f 73/73/73 70/70/70 71/71/71
f 74/74/74 73/73/73 71/71/71
f 75/75/75 73/73/73 74/74/74
f 76/76/76 75/75/75 74/74/74
f 70/70/70 77/77/77 72/72/72
f 77/77/77 78/78/78 72/72/72
f 73/73/73 79/79/79 70/70/70
f 79/79/79 77/77/77 70/70/70
f 75/75/75 80/80/80 73/73/73
f 80/80/80 79/79/79 73/73/73
f 77/77/77 81/81/81 78/78/78
f 81/81/81 82/82/82 78/78/78
f 79/79/79 83/83/83 77/77/77
f 83/83/83 81/81/81 77/77/77
f 80/80/80 84/84/84 79/79/79
f 84/84/84 83/83/83 79/79/79
f 81/81/81 85/85/85 82/82/82
f 85/85/85 86/86/86 82/82/82
f 83/83/83 87/87/87 81/81/81
f 87/87/87 85/85/85 81/81/81
f 84/84/84 88/88/88 83/83/83
f 88/88/88 87/87/87 83/83/83
f 85/85/85 89/89/89 86/86/86
f 89/89/89 90/90/90 86/86/86
f 87/87/87 91/91/91 85/85/85
f 91/91/91 89/89/89 85/85/85
f 88/88/88 92/92/92 87/87/87
f 92/92/92 91/91/91 87/87/87
f 89/89/89 93/93/93 90/90/90
f 93/93/93 94/94/94 90/90/90
f 91/91/91 95/95/95 89/89/89
f 95/95/95 93/93/93 89/89/89
f 92/92/92 96/96/96 91/91/91
f 96/96/96 95/95/95 91/91/91
f 93/93/93 97/97/97 94/94/94
f 97/97/97 98/98/98 94/94/94
f 95/95/95 99/99/99 93/93/93
f 99/99/99 97/97/97 93/93/93
f 96/96/96 100/100/100 95/95/95
f 100/100/100 99/99/99 95/95/95
f 97/97/97 101/101/101 98/98/98
f 101/101/101 102/102/102 98/98/98
f 99/99/99 103/103/103 97/97/97
f 103/103/103 101/101/101 97/97/97
f 100/100/100 104/104/104 99/99/99
f 104/104/104 103/103/103 99/99/99
f 101/101/101 105/105/105 102/102/102
f 105/105/105 106/106/106 102/102/102
f 103/103/103 107/107/107 101/101/101
f 107/107/107 105/105/105 101/101/101
f 104/104/104 108/108/108 103/103/103
f 108/108/108 107/107/107 103/103/103
f 105/105/105 109/109/109 106/106/106
f 109/109/109 110/110/110 106/106/106
f 107/107/107 111/111/111 105/105/105
f 111/111/111 109/109/109 105/105/105
f 108/108/108 112/112/112 107/107/107
f 112/112/112 111/111/111 107/107/107
f 109/109/109 113/113/113 110/110/110
f 113/113/113 114/114/114 110/110/110
f 111/111/111 115/115/115 109/109/109
f 115/115/115 113/113/113 109/109/109
f 112/112/112 116/116/116 111/111/111
f 116/116/116 115/115/115 111/111/111
f 113/113/113 117/117/117 114/114/114
f 117/117/117 118/118/118 114/114/114
f 115/115/115 119/119/119 113/113/113
f 119/119/119 117/117/117 113/113/113
f 116/116/116 120/120/120 115/115/115
f 120/120/120 119/119/119 115/115/115
f 117/117/117 121/121/121 118/118/118
f 121/121/121 122/122/122 118/118/118
f 119/119/119 123/123/123 117/117/117
f 123/123/123 121/121/121 117/117/117
f 120/120/120 124/124/124 119/119/119
f 124/124/124 123/123/123 119/119/119
f 121/121/121 125/125/125 122/122/122
f 125/125/125 126/126/126 122/122/122
f 123/123/123 127/127/127 121/121/121
f 127/127/127 125/125/125 121/121/121
f 124/124/124 128/128/128 123/123/123
f 128/128/128 127/127/127 123/123/123
f 125/125/125 129/129/129 126/126/126
f 129/129/129 130/130/130 126/126/126
f 127/127/127 131/131/131 125/125/125
f 131/131/131 129/129/129 125/125/125
f 128/128/128 132/132/132 127/127/127
f 132/132/132 131/131/131 127/127/127
f 129/129/129 133/133/133 130/130/130
f 133/133/133 134/134/134 130/130/130
f 131/131/131 135/135/135 129/129/129
f 135/135/135 133/133/133 129/129/129
f 132/132/132 136/136/136 131/131/131
f 136/136/136 135/135/135 131/131/131
f 139/139/139 138/138/138 137/137/137
f 138/138/138 140/140/140 137/137/137
f 138/138/138 141/141/141 140/140/140
f 141/141/141 142/142/142 140/140/140
f 141/141/141 143/143/143 142/142/142
f 143/143/143 144/144/144 142/142/142
f 143/143/143 145/145/145 144/144/144
f 145/145/145 146/146/146 144/144/144
f 145/145/145 147/147/147 146/146/146
f 147/147/147 148/148/148 146/146/146
f 147/147/147 149/149/149 148/148/148
f 149/149/149 150/150/150 148/148/148
f 149/149/149 151/151/151 150/150/150
f 151/151/151 152/152/152 150/150/150
f 151/151/151 153/153/153 152/152/152
f 153/153/153 154/154/154 152/152/152
f 153/153/153 155/155/155 154/154/154
f 155/155/155 156/156/156 154/154/154
f 155/155/155 157/157/157 156/156/156
f 157/157/157 158/158/158 156/156/156
f 157/157/157 159/159/159 158/158/158
f 159/159/159 160/160/160 158/158/158
f 159/159/159 161/161/161 160/160/160
f 161/161/161 162/162/162 160/160/160
f 161/161/161 163/163/163 162/162/162
f 163/163/163 164/164/164 162/162/162
f 163/163/163 165/165/165 164/164/164
f 165/165/165 166/166/166 164/164/164
f 165/165/165 167/167/167 166/166/166
f 167/167/167 168/168/168 166/166/166
f 167/167/167 169/169/169 168/168/168
f 169/169/169 170/170/170 168/168/168
f 173/173/173 172/172/172 171/171/171
f 172/172/172 174/174/174 171/171/171
f 172/172/172 175/175/175 174/174/174
f 175/175/175 176/176/176 174/174/174
f 175/175/175 177/177/177 176/176/176
f 177/177/177 178/178/178 176/176/176
f 177/177/177 179/179/179 178/178/178
f 179/179/179 180/180/180 178/178/178
f 179/179/179 181/181/181 180/180/180
f 181/181/181 182/182/182 180/180/180
f 181/181/181 183/183/183 182/182/182
f 183/183/183 184/184/184 182/182/182
f 183/183/183 185/185/185 184/184/184
f 185/185/185 186/186/186 184/184/184
f 185/185/185 187/187/187 186/186/186
f 187/187/187 188/188/188 186/186/186
f 187/187/187 189/189/189 188/188/188
f 189/189/189 190/190/190 188/188/188
f 189/189/189 191/191/191 190/190/190
f 191/191/191 192/192/192 190/190/190
f 191/191/191 193/193/193 192/192/192
f 193/193/193 194/194/194 192/192/192
f 193/193/193 195/195/195 194/194/194
f 195/195/195 196/196/196 194/194/194
f 195/195/195 197/197/197 196/196/196
f 197/197/197 198/198/198 196/196/196
f 197/197/197 199/199/199 198/198/198
f 199/199/199 200/200/200 198/198/198
f 199/199/199 201/201/201 200/200/200
f 201/201/201 202/202/202 200/200/200
f 201/201/201 203/203/203 202/202/202
f 203/203/203 204/204/204 202/202/202
